{"glyphs":{"0":{"ha":1176,"x_min":92,"x_max":1085,"o":"m 592 -26 q 331 53 444 -26 q 155 292 218 132 q 92 693 92 451 q 108 913 92 814 q 156 1092 124 1013 q 231 1232 188 1172 q 331 1331 275 1292 q 452 1390 386 1369 q 592 1410 518 1410 q 847 1331 736 1410 q 1022 1092 958 1251 q 1085 693 1085 933 q 1068 472 1085 572 q 1020 292 1051 372 q 945 152 989 213 q 847 53 901 92 q 728 -6 792 14 q 592 -26 664 -26 m 588 92 q 690 108 642 92 q 780 159 739 125 q 853 243 821 193 q 908 360 886 293 q 942 510 931 426 q 954 693 954 593 q 908 1026 954 893 q 780 1225 863 1158 q 588 1292 697 1292 q 485 1275 533 1292 q 396 1225 436 1258 q 323 1142 356 1192 q 268 1026 290 1093 q 234 876 246 960 q 222 693 222 793 q 268 360 222 494 q 397 159 314 226 q 588 92 479 92 z "},"1":{"ha":693,"x_min":10,"x_max":435,"o":"m 374 -19 q 327 -9 342 -19 q 313 19 313 1 l 313 1238 q 242 1177 279 1207 q 169 1122 206 1147 q 100 1075 133 1096 q 63 1064 81 1064 q 26 1089 44 1064 q 13 1133 10 1117 q 44 1168 15 1150 q 127 1226 88 1197 q 209 1292 167 1256 q 301 1379 251 1329 q 322 1398 313 1392 q 345 1407 332 1404 q 379 1410 358 1410 q 423 1398 411 1410 q 435 1372 435 1386 l 435 19 q 420 -9 435 1 q 374 -19 406 -19 z "},"2":{"ha":1022,"x_min":61,"x_max":925,"o":"m 111 0 q 78 15 93 0 q 63 51 64 29 q 79 92 61 72 l 379 394 q 505 526 449 464 q 606 646 561 589 q 684 756 651 703 q 738 859 717 810 q 771 956 760 908 q 782 1047 782 1003 q 746 1193 782 1139 q 643 1272 710 1247 q 483 1296 576 1296 q 324 1263 394 1296 q 188 1171 254 1229 q 147 1151 164 1151 q 110 1169 131 1151 q 88 1210 85 1192 q 106 1244 92 1228 q 200 1324 142 1286 q 335 1385 258 1361 q 499 1410 413 1410 q 656 1388 583 1410 q 785 1322 729 1365 q 873 1211 842 1278 q 904 1054 904 1144 q 892 945 904 1000 q 856 833 881 890 q 794 717 831 776 q 709 593 758 657 q 598 460 660 529 q 460 314 536 390 l 260 111 l 886 111 q 915 100 906 111 q 925 60 925 89 q 917 15 925 31 q 886 0 910 0 l 111 0 z "},"3":{"ha":1050,"x_min":40,"x_max":949,"o":"m 497 -26 q 336 -1 415 -26 q 186 78 257 25 q 58 213 115 132 q 42 249 44 231 q 65 289 40 268 q 106 306 88 306 q 140 285 124 307 q 245 175 189 219 q 365 108 301 131 q 494 85 428 85 q 629 104 569 85 q 733 162 689 124 q 799 257 776 200 q 822 389 822 314 q 778 545 822 478 q 656 651 735 613 q 471 690 578 690 l 381 690 q 351 706 358 690 q 343 750 343 721 q 353 791 343 781 q 381 801 363 801 l 475 801 q 606 823 551 801 q 695 881 660 844 q 748 964 731 917 q 765 1061 765 1011 q 742 1168 765 1124 q 678 1241 718 1213 q 589 1283 638 1269 q 492 1297 540 1297 q 376 1281 429 1297 q 274 1237 322 1265 q 183 1172 226 1208 q 142 1154 160 1154 q 106 1172 125 1154 q 85 1213 82 1194 q 101 1244 89 1231 q 199 1324 140 1286 q 333 1385 258 1361 q 492 1410 408 1410 q 647 1388 575 1410 q 774 1324 719 1367 q 860 1215 829 1281 q 890 1064 890 1150 q 877 964 890 1013 q 835 874 864 915 q 761 800 807 832 q 651 749 715 768 q 819 672 754 726 q 917 544 885 618 q 949 386 949 471 q 919 213 949 289 q 831 84 889 138 q 690 2 774 31 q 497 -26 607 -26 z "},"4":{"ha":1069,"x_min":49,"x_max":1036,"o":"m 792 -19 q 746 -10 761 -19 q 731 19 731 0 l 731 369 l 106 369 q 64 392 79 369 q 63 443 49 415 l 492 1372 q 517 1403 503 1394 q 563 1410 531 1411 q 597 1401 583 1408 q 615 1381 611 1394 q 608 1347 618 1368 l 203 481 l 731 481 l 731 947 q 792 986 731 986 q 838 976 822 986 q 853 947 853 967 l 853 481 l 997 481 q 1026 469 1017 481 q 1036 428 1036 458 q 1028 385 1036 400 q 997 369 1021 369 l 853 369 l 853 19 q 792 -19 853 -19 z "},"5":{"ha":1050,"x_min":82,"x_max":956,"o":"m 513 -26 q 399 -12 454 -26 q 291 30 343 1 q 192 101 239 58 q 100 201 144 143 q 85 235 88 217 q 106 275 82 254 q 145 295 126 294 q 182 274 164 296 q 279 171 229 213 q 386 107 329 129 q 511 85 443 85 q 653 108 593 85 q 751 178 713 132 q 810 290 790 225 q 829 438 829 356 q 808 572 829 510 q 749 679 788 633 q 651 750 710 725 q 517 775 593 775 q 415 763 464 775 q 328 728 367 750 q 260 674 289 706 q 210 644 235 646 q 172 656 186 643 q 157 685 157 669 l 182 1354 q 194 1377 183 1368 q 221 1386 204 1386 l 872 1386 q 901 1375 892 1386 q 911 1333 911 1364 q 903 1290 911 1304 q 872 1275 896 1275 l 290 1275 l 274 804 q 342 846 304 826 q 424 876 379 865 q 519 886 469 886 q 756 829 658 886 q 904 671 853 772 q 956 438 956 569 q 925 242 956 328 q 836 96 894 156 q 697 5 778 36 q 513 -26 615 -26 z "},"6":{"ha":1128,"x_min":128,"x_max":1040,"o":"m 596 -26 q 340 47 444 -26 q 182 251 236 119 q 128 558 128 382 q 156 838 128 711 q 238 1063 183 964 q 375 1232 293 1161 q 564 1345 457 1303 q 803 1403 671 1388 q 871 1401 854 1408 q 890 1361 888 1393 q 885 1316 893 1329 q 850 1299 878 1303 q 624 1244 722 1283 q 455 1140 525 1204 q 340 989 385 1076 q 275 793 296 901 q 254 554 254 685 q 281 349 254 438 q 353 203 307 261 q 462 115 400 144 q 596 85 524 85 q 730 109 671 85 q 830 180 789 133 q 892 291 871 226 q 913 436 913 356 q 875 605 913 533 q 769 716 838 676 q 607 756 700 756 q 508 742 557 756 q 417 703 460 729 q 338 642 374 678 q 274 558 301 606 q 232 454 247 511 l 185 532 q 248 676 206 614 q 347 781 290 739 q 470 844 403 822 q 608 867 538 867 q 787 836 707 867 q 923 750 867 806 q 1010 615 979 694 q 1040 439 1040 536 q 1010 246 1040 332 q 922 99 979 160 q 782 6 864 39 q 596 -26 700 -26 z "},"7":{"ha":851,"x_min":4,"x_max":831,"o":"m 217 -14 q 178 11 185 -3 q 182 53 171 25 l 678 1275 l 42 1275 q 14 1285 24 1275 q 4 1326 4 1296 q 12 1371 4 1356 q 42 1386 19 1386 l 775 1386 q 816 1363 801 1386 q 819 1315 831 1340 l 301 35 q 272 -15 288 -1 q 217 -14 257 -28 z "},"8":{"ha":1050,"x_min":71,"x_max":979,"o":"m 526 -26 q 338 0 421 -26 q 194 76 254 26 q 103 200 135 126 q 71 367 71 274 q 90 477 71 422 q 146 583 108 532 q 240 674 183 633 q 371 744 296 715 q 246 827 300 778 q 161 941 192 876 q 131 1083 131 1006 q 161 1228 131 1165 q 246 1331 192 1290 q 372 1392 300 1372 q 528 1413 444 1413 q 682 1393 611 1413 q 806 1333 753 1374 q 890 1231 860 1292 q 919 1086 919 1169 q 906 993 919 1039 q 864 904 893 947 q 790 824 835 861 q 683 760 744 788 q 840 667 774 724 q 942 535 906 610 q 979 371 979 461 q 948 206 979 279 q 858 81 917 133 q 715 1 799 29 q 526 -26 632 -26 m 526 86 q 663 105 603 86 q 765 160 722 124 q 829 249 807 196 q 851 371 851 301 q 810 509 851 447 q 692 617 769 571 q 510 694 615 664 q 380 638 438 672 q 282 562 322 604 q 221 470 242 519 q 200 367 200 421 q 222 245 200 297 q 288 157 244 193 q 391 103 331 121 q 526 86 451 86 m 544 806 q 678 869 624 828 q 764 965 733 910 q 794 1086 794 1019 q 774 1181 794 1140 q 717 1247 753 1221 q 632 1287 681 1274 q 528 1300 583 1300 q 422 1287 471 1300 q 335 1247 372 1274 q 278 1180 299 1221 q 257 1083 257 1139 q 290 969 257 1022 q 387 874 322 915 q 544 806 451 832 z "},"9":{"ha":1128,"x_min":88,"x_max":1001,"o":"m 532 1415 q 788 1342 683 1415 q 947 1138 893 1269 q 1001 831 1001 1007 q 973 551 1001 678 q 890 326 944 425 q 753 157 835 228 q 565 44 672 86 q 325 -14 457 1 q 258 -11 274 -19 q 239 28 242 -3 q 243 73 236 60 q 278 90 250 86 q 505 145 407 106 q 673 249 603 185 q 788 400 743 313 q 853 596 832 488 q 874 835 874 704 q 848 1040 874 951 q 775 1186 822 1128 q 666 1274 728 1244 q 533 1304 604 1304 q 399 1280 458 1304 q 299 1209 340 1256 q 237 1098 258 1163 q 215 953 215 1033 q 253 785 215 857 q 360 673 290 713 q 522 633 429 633 q 620 647 572 633 q 711 685 668 660 q 790 747 754 711 q 853 831 826 783 q 896 935 881 878 l 943 857 q 881 713 922 775 q 783 609 839 651 q 660 544 726 567 q 521 522 593 522 q 342 553 421 522 q 206 639 263 583 q 118 774 149 694 q 88 950 88 853 q 118 1143 88 1057 q 206 1290 149 1229 q 347 1383 264 1350 q 532 1415 429 1415 z "},"\r":{"ha":417,"x_min":0,"x_max":0,"o":""}," ":{"ha":417,"x_min":0,"x_max":0,"o":""}," ":{"ha":139,"x_min":0,"x_max":0,"o":""}," ":{"ha":417,"x_min":0,"x_max":0,"o":""},"A":{"ha":1158,"x_min":29,"x_max":1131,"o":"m 92 -19 q 42 -2 56 -19 q 39 43 29 15 l 501 1354 q 529 1398 513 1386 q 579 1410 546 1410 q 628 1398 613 1410 q 656 1354 644 1386 l 1119 43 q 1115 -2 1131 15 q 1064 -19 1100 -19 q 1020 -8 1033 -19 q 996 32 1007 4 l 872 389 l 283 389 l 158 32 q 135 -8 149 4 q 92 -19 122 -19 m 322 500 l 832 500 l 578 1226 l 322 500 z "},"B":{"ha":1118,"x_min":199,"x_max":1040,"o":"m 260 0 q 199 39 199 0 l 199 1347 q 261 1386 199 1386 l 574 1386 q 793 1360 701 1386 q 934 1268 885 1333 q 983 1088 983 1203 q 953 954 983 1013 q 876 853 924 896 q 774 782 828 810 q 671 739 719 754 l 671 733 q 809 715 743 732 q 928 662 875 697 q 1010 569 981 626 q 1040 429 1040 511 q 1017 287 1040 353 q 951 168 994 221 q 844 78 907 115 q 704 20 782 40 q 533 0 626 0 l 260 0 m 321 111 l 533 111 q 706 137 633 111 q 824 208 778 163 q 892 309 869 253 q 915 428 915 365 q 892 542 915 494 q 822 620 868 590 q 710 664 776 650 q 557 678 643 678 l 321 678 l 321 111 m 321 789 l 535 789 q 661 810 603 789 q 764 872 719 832 q 833 966 808 911 q 858 1088 858 1021 q 822 1204 858 1164 q 723 1260 786 1244 q 574 1275 660 1275 l 321 1275 l 321 789 z "},"C":{"ha":1194,"x_min":128,"x_max":1147,"o":"m 697 -26 q 463 26 568 -26 q 283 173 358 78 q 168 399 208 268 q 128 688 128 529 q 147 888 128 793 q 201 1063 165 982 q 288 1207 236 1143 q 406 1317 340 1271 q 549 1386 471 1363 q 715 1410 628 1410 q 857 1393 786 1410 q 992 1337 928 1376 q 1104 1225 1056 1297 q 1111 1196 1117 1208 q 1089 1169 1106 1183 q 1055 1149 1069 1153 q 1028 1160 1040 1146 q 937 1232 986 1203 q 833 1276 888 1261 q 715 1292 778 1292 q 590 1273 650 1292 q 479 1219 531 1254 q 388 1131 428 1183 q 318 1012 347 1079 q 274 864 289 944 q 258 688 258 783 q 291 435 258 546 q 383 247 324 324 q 522 131 442 171 q 697 92 603 92 q 805 109 756 92 q 899 156 854 126 q 982 224 943 186 q 1056 304 1021 263 q 1084 317 1068 319 q 1119 299 1100 314 q 1144 271 1140 283 q 1136 243 1147 258 q 1005 93 1075 153 q 858 3 935 33 q 697 -26 781 -26 z "},"D":{"ha":1340,"x_min":199,"x_max":1211,"o":"m 260 0 q 199 39 199 0 l 199 1347 q 214 1376 199 1367 q 260 1386 229 1386 l 540 1386 q 836 1338 710 1386 q 1046 1203 963 1289 q 1170 1005 1129 1117 q 1211 764 1211 893 q 1182 506 1211 624 q 1093 294 1153 388 q 943 134 1033 200 q 731 34 853 68 q 453 0 608 0 l 260 0 m 321 118 l 453 118 q 681 144 581 118 q 857 224 782 171 q 981 355 932 276 q 1055 535 1031 433 q 1079 764 1079 638 q 1044 967 1079 875 q 940 1126 1010 1058 q 771 1231 871 1193 q 540 1268 671 1268 l 321 1268 l 321 118 z "},"E":{"ha":1022,"x_min":199,"x_max":961,"o":"m 260 0 q 214 14 229 0 q 199 56 199 28 l 199 1347 q 214 1376 199 1367 q 260 1386 229 1386 l 922 1386 q 952 1374 943 1386 q 961 1331 961 1363 q 952 1288 961 1300 q 922 1275 943 1275 l 321 1275 l 321 789 l 826 789 q 856 777 847 789 q 864 733 864 765 q 856 690 864 703 q 826 678 847 678 l 321 678 l 321 111 l 922 111 q 952 99 943 111 q 961 56 961 88 q 952 13 961 25 q 922 0 943 0 l 260 0 z "},"F":{"ha":964,"x_min":199,"x_max":942,"o":"m 260 -19 q 199 19 199 -19 l 199 1347 q 214 1376 199 1367 q 260 1386 229 1386 l 903 1386 q 933 1374 924 1386 q 942 1331 942 1363 q 933 1288 942 1300 q 903 1275 924 1275 l 321 1275 l 321 749 l 807 749 q 836 737 828 749 q 844 693 844 725 q 836 650 844 663 q 807 638 828 638 l 321 638 l 321 19 q 306 -10 321 0 q 260 -19 290 -19 z "},"H":{"ha":1368,"x_min":199,"x_max":1169,"o":"m 260 -19 q 199 19 199 -19 l 199 1372 q 214 1401 199 1392 q 260 1410 229 1410 q 321 1372 321 1410 l 321 782 l 1047 782 l 1047 1372 q 1063 1401 1047 1392 q 1108 1410 1078 1410 q 1169 1372 1169 1410 l 1169 19 q 1154 -10 1169 0 q 1108 -19 1139 -19 q 1047 19 1047 -19 l 1047 671 l 321 671 l 321 19 q 306 -10 321 0 q 260 -19 290 -19 z "},"I":{"ha":521,"x_min":200,"x_max":321,"o":"m 261 -19 q 215 -10 231 -19 q 200 19 200 0 l 200 1372 q 215 1401 200 1392 q 261 1410 231 1410 q 306 1401 290 1410 q 321 1372 321 1392 l 321 19 q 306 -10 321 0 q 261 -19 290 -19 z "},"J":{"ha":1001,"x_min":57,"x_max":832,"o":"m 450 -26 q 281 6 357 -26 q 149 100 204 38 q 64 254 94 163 q 69 288 57 276 q 101 306 81 299 q 139 312 122 314 q 163 289 156 310 q 227 178 192 222 q 316 113 263 135 q 450 92 369 92 q 538 104 497 92 q 610 142 578 117 q 664 208 642 168 q 698 301 686 247 q 710 422 710 354 l 710 1372 q 725 1401 710 1392 q 771 1410 740 1410 q 817 1401 801 1410 q 832 1372 832 1392 l 832 422 q 815 266 832 336 q 765 141 797 196 q 685 49 732 86 q 579 -8 638 11 q 450 -26 521 -26 z "},"K":{"ha":1060,"x_min":199,"x_max":1039,"o":"m 260 -19 q 214 -10 229 -19 q 199 21 199 0 l 199 1372 q 260 1410 199 1410 q 321 1372 321 1410 l 321 796 l 932 1397 q 965 1410 949 1415 q 999 1386 981 1406 q 1019 1349 1018 1364 q 1007 1321 1019 1335 l 411 731 q 621 472 521 590 q 819 255 721 353 q 1017 75 917 157 q 1035 42 1032 64 q 1013 -6 1039 21 q 975 -23 994 -22 q 935 -7 956 -24 q 769 142 851 61 q 608 313 686 224 q 457 492 529 401 q 321 672 385 583 l 321 21 q 306 -10 321 0 q 260 -19 292 -19 z "},"L":{"ha":964,"x_min":199,"x_max":925,"o":"m 260 0 q 199 56 199 0 l 199 1372 q 214 1401 199 1392 q 260 1410 229 1410 q 306 1401 290 1410 q 321 1372 321 1392 l 321 111 l 888 111 q 917 99 908 111 q 925 56 925 88 q 917 13 925 25 q 888 0 908 0 l 260 0 z "},"M":{"ha":1618,"x_min":199,"x_max":1419,"o":"m 260 -19 q 199 19 199 -19 l 199 1372 q 214 1401 199 1392 q 260 1410 229 1410 q 299 1399 288 1410 q 321 1372 311 1389 l 810 499 l 1299 1372 q 1319 1399 1307 1389 q 1358 1410 1332 1410 q 1419 1372 1419 1410 l 1419 19 q 1404 -10 1419 0 q 1358 -19 1389 -19 q 1299 19 1299 -19 l 1299 1135 l 874 379 q 851 355 864 361 q 811 349 838 349 q 770 353 785 349 q 744 378 756 358 l 321 1135 l 321 19 q 306 -10 321 0 q 260 -19 290 -19 z "},"N":{"ha":1368,"x_min":199,"x_max":1169,"o":"m 260 -19 q 199 19 199 -19 l 199 1372 q 214 1401 199 1392 q 260 1410 229 1410 q 301 1401 285 1410 q 329 1372 317 1392 l 1047 242 l 1047 1372 q 1063 1401 1047 1392 q 1108 1410 1078 1410 q 1169 1372 1169 1410 l 1169 19 q 1154 -10 1169 0 q 1110 -19 1139 -19 q 1075 -12 1088 -19 q 1047 19 1063 -6 l 321 1164 l 321 19 q 306 -10 321 0 q 260 -19 290 -19 z "},"O":{"ha":1426,"x_min":128,"x_max":1297,"o":"m 715 -26 q 473 26 581 -26 q 288 175 365 79 q 169 403 211 271 q 128 693 128 535 q 147 892 128 799 q 201 1066 165 986 q 288 1209 236 1146 q 404 1317 339 1272 q 548 1386 469 1363 q 715 1410 626 1410 q 956 1358 849 1410 q 1140 1210 1063 1306 q 1257 982 1217 1114 q 1297 693 1297 850 q 1279 493 1297 588 q 1226 319 1261 399 q 1140 175 1190 239 q 1024 67 1089 111 q 881 -2 958 22 q 715 -26 804 -26 m 715 92 q 841 110 782 92 q 951 163 900 128 q 1042 251 1001 199 q 1110 369 1082 303 q 1153 517 1138 436 q 1168 693 1168 599 q 1135 944 1168 833 q 1041 1133 1101 1056 q 898 1251 981 1210 q 715 1292 815 1292 q 589 1274 649 1292 q 478 1220 529 1256 q 386 1133 426 1185 q 317 1014 346 1081 q 274 867 289 947 q 258 693 258 786 q 292 440 258 551 q 386 251 325 329 q 531 133 447 174 q 715 92 614 92 z "},"P":{"ha":1079,"x_min":199,"x_max":1018,"o":"m 260 -19 q 199 19 199 -19 l 199 1347 q 215 1376 199 1367 q 261 1386 231 1386 l 556 1386 q 810 1351 707 1386 q 965 1240 913 1317 q 1018 1039 1018 1164 q 975 839 1018 922 q 861 702 932 756 q 703 617 790 649 q 528 572 617 586 q 417 560 469 564 q 321 556 364 556 l 321 19 q 306 -10 321 0 q 260 -19 290 -19 m 321 665 q 384 667 350 665 q 454 673 418 669 q 528 682 490 676 q 706 737 622 697 q 841 849 789 776 q 893 1038 893 922 q 855 1175 893 1124 q 741 1251 817 1226 q 556 1275 665 1275 l 321 1275 l 321 665 z "},"Q":{"ha":1426,"x_min":128,"x_max":1297,"o":"m 1089 -269 q 1047 -283 1065 -285 q 1013 -264 1028 -282 l 690 200 q 681 238 678 218 q 706 275 683 257 q 747 290 726 293 q 783 265 768 288 l 1103 -197 q 1113 -234 1115 -215 q 1089 -269 1111 -253 m 715 -26 q 473 26 581 -26 q 288 175 365 79 q 169 403 211 271 q 128 693 128 535 q 147 892 128 799 q 201 1066 165 986 q 288 1209 236 1146 q 404 1317 339 1272 q 548 1386 469 1363 q 715 1410 626 1410 q 956 1358 849 1410 q 1140 1210 1063 1306 q 1257 982 1217 1114 q 1297 693 1297 850 q 1279 493 1297 588 q 1226 319 1261 399 q 1140 175 1190 239 q 1024 67 1089 111 q 881 -2 958 22 q 715 -26 804 -26 m 715 92 q 841 110 782 92 q 951 163 900 128 q 1042 251 1001 199 q 1110 369 1082 303 q 1153 517 1138 436 q 1168 693 1168 599 q 1135 944 1168 833 q 1041 1133 1101 1056 q 898 1251 981 1210 q 715 1292 815 1292 q 589 1274 649 1292 q 478 1220 529 1256 q 386 1133 426 1185 q 317 1014 346 1081 q 274 867 289 947 q 258 693 258 786 q 292 440 258 551 q 386 251 325 329 q 531 133 447 174 q 715 92 614 92 z "},"R":{"ha":1069,"x_min":199,"x_max":1035,"o":"m 260 -19 q 214 -10 229 -19 q 199 19 199 0 l 199 1347 q 215 1376 199 1367 q 261 1386 231 1386 l 515 1386 q 776 1353 674 1386 q 928 1248 879 1321 q 978 1054 978 1175 q 961 938 978 993 q 913 838 944 883 q 836 757 882 793 q 733 694 790 721 q 606 651 675 668 q 457 628 536 635 q 626 435 538 531 q 811 249 715 339 q 1011 75 907 158 q 1031 42 1026 64 q 1008 -6 1035 21 q 971 -23 990 -22 q 931 -7 951 -24 q 712 188 818 85 q 508 397 606 290 q 321 610 410 504 l 321 19 q 306 -10 321 0 q 260 -19 290 -19 m 321 725 q 453 733 392 726 q 569 752 515 739 q 668 784 624 765 q 747 829 713 803 q 806 890 782 856 q 841 965 829 924 q 853 1054 853 1006 q 818 1183 853 1135 q 713 1253 783 1232 q 532 1275 642 1275 l 321 1275 l 321 725 z "},"S":{"ha":1061,"x_min":108,"x_max":953,"o":"m 511 -26 q 407 -16 461 -26 q 300 16 353 -6 q 200 71 247 38 q 119 151 153 104 q 109 178 108 165 q 129 211 110 192 q 163 233 150 232 q 203 211 176 235 q 283 152 238 179 q 384 108 328 125 q 511 92 440 92 q 647 108 588 92 q 745 160 706 125 q 805 246 785 194 q 825 365 825 297 q 804 467 825 425 q 745 541 783 510 q 656 597 707 572 q 540 643 604 621 q 431 687 486 663 q 326 744 376 711 q 238 822 276 776 q 176 926 199 867 q 154 1067 154 986 q 183 1212 154 1149 q 266 1319 213 1275 q 392 1387 319 1364 q 549 1410 464 1410 q 691 1389 626 1410 q 810 1331 756 1368 q 913 1249 864 1294 q 925 1219 928 1233 q 907 1189 922 1204 q 874 1164 890 1171 q 843 1169 858 1157 q 758 1233 801 1206 q 664 1276 715 1261 q 549 1292 613 1292 q 437 1277 486 1292 q 353 1234 388 1263 q 301 1163 319 1206 q 283 1067 283 1121 q 305 951 283 999 q 366 871 326 904 q 458 813 406 838 q 572 767 511 789 q 705 715 638 744 q 828 640 772 685 q 919 528 885 594 q 953 367 953 461 q 922 198 953 271 q 834 76 892 125 q 694 0 776 26 q 511 -26 613 -26 z "},"T":{"ha":1064,"x_min":26,"x_max":1038,"o":"m 532 -21 q 471 18 471 -21 l 471 1275 l 65 1275 q 35 1288 44 1275 q 26 1331 26 1300 q 35 1374 26 1363 q 65 1386 44 1386 l 1000 1386 q 1029 1374 1021 1386 q 1038 1331 1038 1363 q 1029 1288 1038 1300 q 1000 1275 1021 1275 l 593 1275 l 593 18 q 578 -11 593 -1 q 532 -21 563 -21 z "},"U":{"ha":1331,"x_min":196,"x_max":1135,"o":"m 668 -26 q 469 4 557 -26 q 321 94 382 35 q 228 239 260 154 q 196 432 196 324 l 196 1372 q 211 1401 196 1392 q 257 1410 226 1410 q 303 1401 288 1410 q 318 1372 318 1392 l 318 432 q 359 249 318 325 q 478 132 400 172 q 668 92 557 92 q 856 132 779 92 q 972 249 932 172 q 1013 432 1013 325 l 1013 1372 q 1028 1401 1013 1392 q 1074 1410 1043 1410 q 1135 1372 1135 1410 l 1135 432 q 1079 185 1135 288 q 919 28 1024 82 q 668 -26 815 -26 z "},"V":{"ha":1118,"x_min":22,"x_max":1097,"o":"m 557 -19 q 509 -8 525 -19 q 481 36 493 4 l 28 1349 q 32 1382 22 1368 q 71 1406 42 1396 q 117 1413 99 1415 q 140 1390 135 1410 l 560 165 l 978 1390 q 1003 1413 985 1410 q 1047 1406 1021 1415 q 1088 1382 1078 1396 q 1090 1349 1097 1368 l 636 36 q 608 -8 624 4 q 557 -19 592 -19 z "},"W":{"ha":1838,"x_min":21,"x_max":1817,"o":"m 469 -19 q 420 -7 438 -19 q 393 36 403 6 l 26 1347 q 30 1381 21 1367 q 69 1404 39 1394 q 116 1410 97 1414 q 140 1383 135 1407 l 472 174 l 846 1360 q 871 1399 854 1388 q 917 1410 888 1410 q 965 1399 949 1410 q 990 1360 982 1388 l 1363 175 l 1697 1383 q 1723 1410 1704 1407 q 1768 1404 1742 1414 q 1808 1381 1799 1394 q 1811 1347 1817 1367 l 1440 36 q 1413 -7 1431 6 q 1363 -19 1396 -19 q 1313 -7 1329 -19 q 1286 36 1297 6 l 917 1215 l 547 36 q 520 -7 538 6 q 469 -19 503 -19 z "},"X":{"ha":1061,"x_min":60,"x_max":1003,"o":"m 968 -1 q 922 -19 942 -18 q 892 0 903 -19 l 528 600 l 164 0 q 134 -19 153 -19 q 88 -1 115 -18 q 66 20 72 10 q 62 42 60 31 q 69 63 64 53 l 463 710 l 86 1331 q 82 1363 76 1346 q 113 1394 88 1379 q 158 1411 140 1411 q 190 1389 176 1411 l 539 814 l 888 1389 q 918 1409 900 1408 q 960 1394 936 1410 q 983 1374 976 1385 q 991 1352 990 1363 q 985 1331 992 1342 l 606 704 l 994 63 q 998 31 1003 47 q 968 -1 993 14 z "},"Z":{"ha":944,"x_min":17,"x_max":925,"o":"m 68 0 q 38 13 51 0 q 21 46 25 26 q 26 81 17 65 l 740 1275 l 111 1275 q 81 1288 90 1275 q 72 1331 72 1300 q 81 1374 72 1363 q 111 1386 90 1386 l 861 1386 q 902 1358 888 1386 q 903 1306 917 1331 l 189 111 l 888 111 q 917 99 908 111 q 925 56 925 88 q 917 13 925 25 q 888 0 908 0 l 68 0 z "},"Æ":{"ha":1486,"x_min":18,"x_max":1425,"o":"m 1388 0 l 801 0 q 756 14 771 0 q 740 56 740 28 l 740 638 l 435 638 l 132 1 q 103 -21 122 -17 q 57 -14 83 -25 q 26 15 35 -3 q 28 50 18 32 l 647 1338 q 677 1377 663 1368 q 731 1386 692 1386 l 1388 1386 q 1417 1374 1408 1386 q 1425 1331 1425 1363 q 1417 1288 1425 1300 q 1388 1275 1408 1275 l 863 1275 l 863 749 l 1290 749 q 1320 737 1311 749 q 1329 693 1329 725 q 1320 650 1329 663 q 1290 638 1311 638 l 863 638 l 863 111 l 1388 111 q 1417 99 1408 111 q 1425 56 1425 88 q 1417 13 1425 25 q 1388 0 1408 0 m 489 749 l 740 749 l 740 1278 l 489 749 z "},"Ð":{"ha":1307,"x_min":25,"x_max":1211,"o":"m 260 0 q 199 39 199 0 l 199 1347 q 214 1376 199 1367 q 260 1386 229 1386 l 540 1386 q 836 1338 710 1386 q 1046 1203 963 1289 q 1170 1005 1129 1117 q 1211 764 1211 893 q 1182 506 1211 624 q 1093 294 1153 388 q 943 134 1033 200 q 731 34 853 68 q 453 0 608 0 l 260 0 m 321 118 l 453 118 q 681 144 581 118 q 857 224 782 171 q 981 355 932 276 q 1055 535 1031 433 q 1079 764 1079 638 q 1044 967 1079 875 q 940 1126 1010 1058 q 771 1231 871 1193 q 540 1268 671 1268 l 321 1268 l 321 118 m 64 629 q 32 644 39 629 q 25 678 25 660 q 32 714 25 697 q 64 731 39 731 l 613 731 q 643 714 636 731 q 650 678 650 697 q 643 644 650 660 q 613 629 636 629 l 64 629 z "},"Ĳ":{"ha":1522,"x_min":200,"x_max":1353,"o":"m 261 -19 q 215 -10 231 -19 q 200 19 200 0 l 200 1372 q 215 1401 200 1392 q 261 1410 231 1410 q 306 1401 290 1410 q 321 1372 321 1392 l 321 19 q 306 -10 321 0 q 261 -19 290 -19 m 971 -26 q 801 6 878 -26 q 670 100 725 38 q 585 254 615 163 q 590 288 578 276 q 622 306 601 299 q 660 312 643 314 q 683 289 676 310 q 748 178 713 222 q 837 113 783 135 q 971 92 890 92 q 1058 104 1018 92 q 1131 142 1099 117 q 1185 208 1163 168 q 1219 301 1207 247 q 1231 422 1231 354 l 1231 1372 q 1246 1401 1231 1392 q 1292 1410 1261 1410 q 1338 1401 1322 1410 q 1353 1372 1353 1392 l 1353 422 q 1335 266 1353 336 q 1285 141 1318 196 q 1206 49 1253 86 q 1100 -8 1158 11 q 971 -26 1042 -26 z "},"Ŋ":{"ha":1368,"x_min":199,"x_max":1169,"o":"m 1169 -179 q 1144 -311 1169 -261 q 1076 -383 1119 -361 q 981 -406 1033 -406 q 865 -374 914 -406 q 792 -296 817 -342 q 788 -258 781 -275 q 817 -229 796 -242 q 858 -218 840 -214 q 889 -240 875 -222 q 916 -272 903 -258 q 945 -293 929 -286 q 981 -300 961 -300 q 1023 -286 1008 -300 q 1043 -247 1038 -272 q 1049 -185 1049 -221 l 1049 15 l 321 1164 l 321 19 q 306 -10 321 0 q 260 -19 290 -19 q 199 19 199 -19 l 199 1372 q 214 1401 199 1392 q 260 1410 229 1410 q 301 1401 285 1410 q 329 1372 317 1392 l 1047 242 l 1047 1372 q 1063 1401 1047 1392 q 1108 1410 1078 1410 q 1169 1372 1169 1410 l 1169 -179 z "},"Œ":{"ha":1968,"x_min":128,"x_max":1907,"o":"m 704 -26 q 467 26 572 -26 q 285 175 361 79 q 169 403 210 271 q 128 693 128 535 q 147 892 128 799 q 199 1066 165 986 q 284 1209 233 1146 q 399 1317 335 1272 q 540 1386 463 1363 q 704 1410 617 1410 q 934 1358 832 1410 q 1109 1210 1036 1306 q 1221 982 1182 1114 q 1260 693 1260 850 q 1242 493 1260 588 q 1192 319 1225 399 q 1110 175 1158 239 q 999 67 1061 111 q 864 -2 938 22 q 704 -26 790 -26 m 704 92 q 826 110 769 92 q 933 163 883 128 q 1022 251 982 199 q 1089 369 1061 303 q 1131 517 1117 436 q 1146 693 1146 599 q 1113 944 1146 833 q 1022 1133 1081 1056 q 882 1251 963 1210 q 704 1292 801 1292 q 581 1274 639 1292 q 473 1220 522 1256 q 384 1133 424 1185 q 316 1014 344 1081 q 273 867 288 947 q 258 693 258 786 q 291 440 258 551 q 383 251 324 329 q 525 133 443 174 q 704 92 607 92 m 1207 0 q 1161 14 1176 0 q 1146 56 1146 28 l 1146 1347 q 1161 1376 1146 1367 q 1207 1386 1176 1386 l 1869 1386 q 1899 1374 1890 1386 q 1907 1331 1907 1363 q 1899 1288 1907 1300 q 1869 1275 1890 1275 l 1268 1275 l 1268 789 l 1772 789 q 1802 777 1793 789 q 1811 733 1811 765 q 1802 690 1811 703 q 1772 678 1793 678 l 1268 678 l 1268 111 l 1869 111 q 1899 99 1890 111 q 1907 56 1907 88 q 1899 13 1907 25 q 1869 0 1890 0 l 1207 0 z "},"Þ":{"ha":1115,"x_min":199,"x_max":1018,"o":"m 260 -19 q 214 -10 229 -19 q 199 19 199 0 l 199 1372 q 214 1401 199 1392 q 260 1410 229 1410 q 306 1401 290 1410 q 321 1372 321 1392 l 321 1192 l 556 1192 q 810 1157 707 1192 q 965 1046 913 1122 q 1018 844 1018 969 q 975 645 1018 728 q 861 508 932 563 q 703 423 790 454 q 528 378 617 392 q 417 366 469 369 q 321 361 364 363 l 321 19 q 306 -10 321 0 q 260 -19 290 -19 m 321 471 q 384 474 350 472 q 454 478 418 475 q 528 488 490 482 q 706 543 622 503 q 841 656 789 583 q 893 843 893 729 q 855 981 893 929 q 741 1057 817 1033 q 556 1081 665 1081 l 321 1081 l 321 471 z "},"ẞ":{"ha":1354,"x_min":190,"x_max":1226,"o":"m 797 -26 q 689 -17 742 -26 q 588 10 636 -7 q 497 53 540 28 q 469 81 474 64 q 476 124 465 99 q 506 156 490 149 q 546 151 521 164 q 627 119 588 132 q 709 99 667 106 q 797 92 751 92 q 916 112 861 92 q 1012 170 971 132 q 1075 261 1053 208 q 1097 379 1097 314 q 1076 494 1097 444 q 1017 583 1054 544 q 933 655 979 622 q 837 718 886 688 q 742 781 788 749 q 658 851 696 813 q 599 940 621 890 q 576 1053 576 989 q 595 1151 576 1107 q 648 1232 614 1196 q 725 1293 682 1268 q 519 1240 600 1278 q 393 1142 438 1201 q 331 1002 349 1082 q 313 822 313 922 l 313 19 q 297 -10 313 0 q 251 -19 282 -19 q 206 -10 221 -19 q 190 19 190 0 l 190 822 q 211 1027 190 935 q 281 1190 232 1119 q 415 1310 331 1261 q 626 1385 499 1360 q 929 1410 753 1410 l 964 1410 q 994 1397 985 1410 q 1003 1353 1003 1385 q 994 1309 1003 1322 q 964 1296 985 1296 q 870 1282 917 1296 q 785 1241 824 1268 q 725 1173 747 1214 q 703 1078 703 1132 q 725 984 703 1025 q 784 910 747 943 q 868 847 821 876 q 965 787 915 818 q 1062 719 1015 756 q 1145 635 1108 682 q 1204 525 1182 588 q 1226 379 1226 463 q 1193 213 1226 288 q 1101 84 1160 138 q 965 2 1043 31 q 797 -26 886 -26 z "},"ŋ":{"ha":851,"x_min":131,"x_max":729,"o":"m 729 -151 q 704 -272 729 -228 q 640 -335 679 -317 q 556 -354 601 -354 q 448 -325 493 -354 q 379 -256 403 -296 q 377 -218 369 -235 q 406 -190 385 -201 q 446 -179 429 -175 q 476 -200 463 -183 q 513 -237 496 -224 q 554 -250 531 -250 q 599 -226 588 -250 q 610 -158 610 -201 l 610 464 q 597 544 610 511 q 556 593 583 576 q 481 610 528 610 q 413 595 446 610 q 349 551 379 581 q 293 476 318 522 q 250 368 268 431 l 250 15 q 235 -12 250 -3 q 189 -21 219 -21 q 145 -12 160 -21 q 131 15 131 -3 l 131 679 q 145 706 131 697 q 189 715 160 715 q 235 706 219 715 q 250 679 250 697 l 250 553 q 299 626 272 594 q 359 679 326 658 q 426 710 392 700 q 497 721 460 721 q 617 697 565 721 q 699 619 669 672 q 729 476 729 565 l 729 -151 z "},"$":{"ha":1039,"x_min":86,"x_max":929,"o":"m 488 -26 q 385 -16 439 -26 q 277 16 331 -6 q 177 71 224 38 q 96 151 131 104 q 87 178 86 165 q 107 211 88 192 q 140 233 128 232 q 179 211 153 235 q 259 152 214 179 q 361 108 304 125 q 488 92 418 92 q 623 108 564 92 q 722 160 682 125 q 781 246 761 194 q 801 365 801 297 q 781 467 801 425 q 722 542 760 510 q 632 598 683 574 q 517 644 581 622 q 408 688 464 664 q 303 744 353 711 q 215 822 254 776 q 154 926 176 867 q 132 1067 132 986 q 162 1212 132 1149 q 244 1319 192 1275 q 369 1387 297 1364 q 526 1410 442 1410 q 668 1389 604 1410 q 786 1331 732 1368 q 890 1249 840 1294 q 903 1219 906 1233 q 885 1189 900 1204 q 852 1164 868 1171 q 821 1169 836 1157 q 735 1233 779 1206 q 641 1276 692 1261 q 526 1292 590 1292 q 415 1277 464 1292 q 331 1234 365 1263 q 278 1163 296 1206 q 261 1067 261 1121 q 283 951 261 999 q 343 870 304 904 q 435 811 382 836 q 550 765 488 786 q 682 713 615 743 q 805 639 749 683 q 895 528 861 594 q 929 367 929 461 q 898 198 929 271 q 809 76 867 125 q 669 0 751 26 q 488 -26 588 -26 m 522 -208 q 467 -169 467 -208 l 467 1575 q 522 1613 467 1613 q 578 1575 578 1613 l 578 -169 q 522 -208 578 -208 z "},"€":{"ha":1194,"x_min":36,"x_max":1132,"o":"m 694 -26 q 473 26 569 -26 q 310 175 376 79 q 211 402 244 271 q 178 692 178 533 q 195 889 178 796 q 246 1062 213 982 q 327 1206 279 1142 q 435 1316 375 1271 q 567 1385 494 1361 q 718 1410 639 1410 q 856 1394 790 1410 q 980 1342 921 1378 q 1088 1247 1039 1307 q 1097 1218 1103 1232 q 1075 1189 1092 1204 q 1043 1169 1057 1172 q 1015 1178 1029 1165 q 926 1241 972 1215 q 828 1280 879 1267 q 718 1293 776 1293 q 604 1274 658 1293 q 503 1219 550 1256 q 420 1131 457 1183 q 357 1012 383 1079 q 317 864 331 944 q 303 692 303 783 q 331 438 303 550 q 410 249 358 326 q 533 131 461 172 q 694 90 606 90 q 797 103 749 90 q 890 140 846 117 q 973 193 933 163 q 1046 257 1013 224 q 1075 265 1058 269 q 1110 244 1092 261 q 1129 215 1126 226 q 1119 188 1132 203 q 990 69 1058 117 q 848 -3 922 21 q 694 -26 774 -26 m 75 758 q 45 770 54 758 q 36 813 36 782 q 45 856 36 844 q 75 867 54 867 l 879 867 q 909 856 900 867 q 918 813 918 844 q 909 770 918 782 q 879 758 900 758 l 75 758 m 75 540 q 45 551 54 540 q 36 593 36 563 q 45 636 36 625 q 75 647 54 647 l 879 647 q 909 636 900 647 q 918 593 918 625 q 909 551 918 563 q 879 540 900 540 l 75 540 z "},"¢":{"ha":817,"x_min":78,"x_max":746,"o":"m 428 -26 q 244 22 324 -26 q 122 163 165 71 q 78 386 78 256 q 94 531 78 464 q 143 651 111 597 q 219 743 175 706 q 319 801 263 781 q 439 822 375 822 q 531 808 483 822 q 623 767 579 794 q 703 694 667 739 q 715 661 718 676 q 694 629 711 646 q 661 608 676 611 q 629 619 646 606 q 572 666 600 644 q 512 699 544 688 q 435 711 479 711 q 355 697 392 711 q 290 655 318 682 q 241 589 261 628 q 210 500 221 550 q 200 392 200 450 q 228 227 200 296 q 307 122 256 158 q 429 85 358 85 q 516 101 479 85 q 583 145 553 117 q 647 213 614 174 q 679 228 663 229 q 715 213 696 228 q 740 183 735 197 q 732 149 746 168 q 641 49 692 88 q 536 -8 590 10 q 428 -26 482 -26 m 424 -208 q 368 -169 368 -208 l 368 983 q 424 1022 368 1022 q 479 983 479 1022 l 479 -169 q 424 -208 479 -208 z "},"£":{"ha":1040,"x_min":56,"x_max":1006,"o":"m 93 0 q 63 15 71 0 q 56 58 56 29 q 65 100 56 89 q 93 111 75 111 l 294 111 l 294 544 l 133 544 q 103 556 111 544 q 94 599 94 568 q 103 641 94 631 q 133 651 113 651 l 294 651 l 294 1054 q 333 1241 294 1161 q 447 1365 372 1321 q 628 1410 522 1410 q 807 1378 725 1410 q 950 1293 889 1346 q 970 1262 965 1281 q 956 1219 975 1243 q 919 1197 936 1199 q 878 1211 903 1194 q 756 1275 815 1253 q 632 1297 697 1297 q 472 1233 526 1297 q 417 1047 417 1168 l 417 651 l 740 651 q 769 641 760 651 q 778 599 778 631 q 769 556 778 568 q 740 544 761 544 l 417 544 l 417 111 l 967 111 q 996 100 986 111 q 1006 58 1006 89 q 998 15 1006 29 q 967 0 990 0 l 93 0 z "},"¥":{"ha":1033,"x_min":42,"x_max":992,"o":"m 515 -19 q 454 19 454 -19 l 454 344 l 158 344 q 128 356 138 344 q 119 399 119 368 q 128 442 119 431 q 158 453 138 453 l 454 453 l 454 563 l 158 563 q 128 574 138 563 q 119 617 119 586 q 128 660 119 649 q 158 671 138 671 l 410 671 l 51 1335 q 49 1368 42 1353 q 86 1397 57 1383 q 130 1412 113 1411 q 160 1389 147 1413 l 515 721 l 875 1389 q 905 1412 889 1413 q 947 1397 921 1411 q 984 1368 976 1383 q 982 1335 992 1353 l 621 671 l 874 671 q 903 660 894 671 q 911 617 911 649 q 903 574 911 586 q 874 563 894 563 l 576 563 l 576 453 l 874 453 q 903 442 894 453 q 911 399 911 431 q 903 356 911 368 q 874 344 894 344 l 576 344 l 576 19 q 515 -19 576 -19 z "},"%":{"ha":1271,"x_min":75,"x_max":1189,"o":"m 332 803 q 201 842 260 803 q 108 949 142 881 q 75 1107 75 1018 q 87 1206 75 1160 q 122 1289 99 1251 q 176 1353 144 1326 q 247 1395 208 1381 q 332 1410 286 1410 q 464 1371 407 1410 q 553 1264 521 1332 q 586 1107 586 1196 q 573 1008 586 1054 q 538 923 560 961 q 483 858 515 885 q 414 817 451 832 q 332 803 376 803 m 332 908 q 378 916 357 908 q 417 940 400 924 q 445 980 433 956 q 463 1036 457 1004 q 469 1107 469 1068 q 432 1255 469 1206 q 332 1304 394 1304 q 285 1296 307 1304 q 247 1272 264 1288 q 217 1233 229 1257 q 198 1177 204 1208 q 192 1107 192 1146 q 230 958 192 1008 q 332 908 268 908 m 274 -12 q 249 -28 264 -28 q 210 -12 233 -28 q 178 15 183 3 q 182 43 172 26 l 985 1396 q 1010 1411 996 1411 q 1049 1396 1024 1411 q 1081 1369 1075 1381 q 1076 1340 1088 1357 l 274 -12 m 935 -26 q 804 13 863 -26 q 712 120 746 51 q 678 278 678 189 q 690 376 678 331 q 725 460 703 422 q 778 524 747 497 q 849 566 810 551 q 935 581 889 581 q 1065 542 1008 581 q 1156 435 1122 503 q 1189 278 1189 367 q 1176 178 1189 225 q 1141 94 1164 132 q 1086 29 1118 56 q 1016 -12 1054 3 q 935 -26 978 -26 m 935 81 q 981 88 960 81 q 1019 112 1003 96 q 1048 151 1036 128 q 1066 207 1060 175 q 1072 278 1072 239 q 1035 426 1072 376 q 935 475 997 475 q 887 467 908 475 q 848 443 865 458 q 819 403 831 428 q 800 348 807 379 q 793 278 793 317 q 832 131 793 181 q 935 81 871 81 z "},".":{"ha":435,"x_min":131,"x_max":304,"o":"m 217 -47 q 152 -24 174 -47 q 131 43 131 -1 q 152 111 131 89 q 217 133 174 133 q 283 111 261 133 q 304 43 304 89 q 283 -24 304 -1 q 217 -47 261 -47 z "},",":{"ha":435,"x_min":83,"x_max":283,"o":"m 138 -293 q 101 -280 118 -293 q 83 -249 83 -267 q 88 -235 83 -243 q 97 -214 92 -226 q 131 -136 119 -172 q 146 -53 142 -100 q 150 64 150 -7 q 167 103 150 90 q 215 117 185 117 q 265 102 247 117 q 283 61 283 88 q 273 -53 283 6 q 239 -168 263 -112 q 176 -269 215 -224 q 161 -285 171 -278 q 138 -293 151 -293 z "},":":{"ha":435,"x_min":131,"x_max":304,"o":"m 217 -47 q 152 -24 174 -47 q 131 43 131 -1 q 152 111 131 89 q 217 133 174 133 q 283 111 261 133 q 304 43 304 89 q 283 -24 304 -1 q 217 -47 261 -47 m 217 558 q 152 581 174 558 q 131 649 131 604 q 152 717 131 694 q 217 739 174 739 q 283 717 261 739 q 304 649 304 694 q 283 581 304 604 q 217 558 261 558 z "},";":{"ha":435,"x_min":83,"x_max":304,"o":"m 217 558 q 152 581 174 558 q 131 649 131 604 q 152 717 131 694 q 217 739 174 739 q 283 717 261 739 q 304 649 304 694 q 283 581 304 604 q 217 558 261 558 m 138 -293 q 101 -280 118 -293 q 83 -249 83 -267 q 88 -235 83 -243 q 97 -214 92 -226 q 131 -136 119 -172 q 146 -53 142 -100 q 150 64 150 -7 q 167 103 150 90 q 215 117 185 117 q 265 102 247 117 q 283 61 283 88 q 273 -53 283 6 q 239 -168 263 -112 q 176 -269 215 -224 q 161 -285 171 -278 q 138 -293 151 -293 z "},"…":{"ha":1178,"x_min":131,"x_max":1047,"o":"m 589 -47 q 524 -24 546 -47 q 503 43 503 -1 q 524 111 503 89 q 589 133 546 133 q 655 111 633 133 q 676 43 676 89 q 655 -24 676 -1 q 589 -47 633 -47 m 960 -47 q 895 -24 917 -47 q 874 43 874 -1 q 895 111 874 89 q 960 133 917 133 q 1026 111 1004 133 q 1047 43 1047 89 q 1026 -24 1047 -1 q 960 -47 1004 -47 m 217 -47 q 152 -24 174 -47 q 131 43 131 -1 q 152 111 131 89 q 217 133 174 133 q 283 111 261 133 q 304 43 304 89 q 283 -24 304 -1 q 217 -47 261 -47 z "},"!":{"ha":539,"x_min":192,"x_max":347,"o":"m 269 300 q 208 339 208 300 l 208 1372 q 224 1401 208 1392 q 269 1410 239 1410 q 331 1372 331 1410 l 331 339 q 315 310 331 319 q 269 300 300 300 m 269 -19 q 211 2 231 -19 q 192 68 192 24 q 211 135 192 113 q 269 157 231 157 q 326 135 307 157 q 346 68 346 113 q 327 2 347 24 q 269 -19 307 -19 z "},"¡":{"ha":539,"x_min":192,"x_max":347,"o":"m 269 396 q 331 357 331 396 l 331 -676 q 315 -704 331 -694 q 269 -714 300 -714 q 208 -676 208 -714 l 208 357 q 224 386 208 376 q 269 396 239 396 m 269 715 q 327 694 307 715 q 346 628 347 672 q 326 562 346 585 q 269 539 307 539 q 211 562 231 539 q 192 628 192 585 q 211 694 192 672 q 269 715 231 715 z "},"?":{"ha":789,"x_min":15,"x_max":767,"o":"m 308 299 q 263 308 278 299 q 247 338 247 318 l 247 663 q 260 689 247 679 q 294 700 272 699 q 433 726 369 704 q 542 788 496 747 q 615 889 589 828 q 640 1031 640 950 q 611 1172 640 1113 q 525 1265 582 1232 q 385 1299 468 1299 q 274 1283 325 1299 q 180 1244 222 1268 q 101 1190 138 1219 q 69 1179 85 1176 q 36 1199 54 1182 q 18 1233 21 1217 q 31 1263 15 1249 q 139 1342 81 1308 q 260 1392 197 1375 q 385 1410 324 1410 q 579 1366 493 1410 q 716 1238 665 1322 q 767 1028 767 1154 q 734 857 767 932 q 646 729 701 782 q 519 644 590 676 q 369 596 447 611 l 369 338 q 354 308 369 318 q 308 299 339 299 m 308 -19 q 250 2 269 -19 q 231 68 231 24 q 250 135 231 113 q 308 157 269 157 q 365 135 346 157 q 385 68 385 113 q 365 2 385 24 q 308 -19 346 -19 z "},"¿":{"ha":789,"x_min":18,"x_max":768,"o":"m 475 397 q 521 388 506 397 q 536 358 536 378 l 536 33 q 524 7 536 17 q 489 -4 513 -3 q 351 -30 414 -8 q 242 -92 289 -51 q 169 -192 194 -132 q 143 -335 143 -253 q 173 -476 143 -415 q 260 -569 203 -536 q 400 -603 318 -603 q 510 -587 460 -603 q 604 -548 561 -572 q 682 -494 647 -524 q 714 -483 699 -479 q 747 -503 729 -486 q 766 -536 764 -521 q 753 -567 768 -551 q 645 -645 704 -612 q 524 -696 586 -678 q 400 -714 461 -714 q 205 -670 292 -714 q 68 -542 118 -626 q 18 -332 18 -457 q 50 -161 18 -236 q 138 -33 82 -86 q 266 52 194 19 q 414 100 338 85 l 414 358 q 429 388 414 378 q 475 397 444 397 m 475 715 q 533 694 514 715 q 553 628 553 672 q 533 562 553 585 q 475 539 514 539 q 418 562 438 539 q 399 628 399 585 q 418 694 399 672 q 475 715 438 715 z "},"'":{"ha":235,"x_min":58,"x_max":189,"o":"m 124 988 q 90 1001 97 988 q 81 1031 82 1014 l 60 1340 q 73 1379 58 1363 q 124 1396 88 1396 q 174 1379 160 1396 q 188 1340 189 1363 l 167 1031 q 158 1001 165 1014 q 124 988 150 988 z "},"\"":{"ha":467,"x_min":58,"x_max":421,"o":"m 124 988 q 90 1001 97 988 q 81 1031 82 1014 l 60 1340 q 73 1379 58 1363 q 124 1396 88 1396 q 174 1379 160 1396 q 188 1340 189 1363 l 167 1031 q 158 1001 165 1014 q 124 988 150 988 m 356 988 q 322 1001 329 988 q 313 1031 314 1014 l 292 1340 q 305 1379 290 1363 q 356 1396 319 1396 q 406 1379 392 1396 q 419 1340 421 1363 l 399 1031 q 390 1001 397 1014 q 356 988 382 988 z "},"‘":{"ha":297,"x_min":61,"x_max":256,"o":"m 129 988 q 80 1002 99 988 q 61 1043 61 1017 q 67 1128 61 1085 q 83 1215 72 1172 q 114 1299 94 1258 q 161 1374 133 1339 q 178 1388 168 1381 q 201 1396 188 1396 q 238 1383 221 1396 q 256 1353 256 1371 q 252 1338 256 1347 q 242 1318 249 1329 q 210 1240 221 1276 q 197 1158 200 1204 q 194 1039 194 1113 q 176 1000 194 1013 q 129 988 158 988 z "},"’":{"ha":304,"x_min":47,"x_max":242,"o":"m 174 1396 q 224 1381 206 1396 q 242 1340 242 1367 q 236 1256 242 1300 q 219 1168 231 1211 q 190 1085 208 1125 q 142 1010 171 1044 q 126 995 135 1003 q 101 988 117 988 q 65 1000 82 988 q 47 1031 47 1013 q 51 1045 47 1036 q 61 1065 56 1054 q 93 1144 83 1108 q 106 1226 103 1179 q 108 1344 108 1272 q 126 1383 108 1371 q 174 1396 144 1396 z "},"‚":{"ha":310,"x_min":49,"x_max":249,"o":"m 103 -293 q 66 -280 83 -293 q 49 -249 49 -267 q 53 -235 49 -243 q 63 -214 57 -226 q 96 -136 85 -172 q 111 -53 107 -100 q 115 64 115 -7 q 133 103 115 90 q 181 117 150 117 q 231 102 213 117 q 249 61 249 88 q 238 -53 249 6 q 204 -168 228 -112 q 142 -269 181 -224 q 126 -285 136 -278 q 103 -293 117 -293 z "},"“":{"ha":547,"x_min":61,"x_max":506,"o":"m 129 988 q 80 1002 99 988 q 61 1043 61 1017 q 67 1128 61 1085 q 83 1215 72 1172 q 114 1299 94 1258 q 161 1374 133 1339 q 178 1388 168 1381 q 201 1396 188 1396 q 238 1383 221 1396 q 256 1353 256 1371 q 252 1338 256 1347 q 242 1318 249 1329 q 210 1240 221 1276 q 197 1158 200 1204 q 194 1039 194 1113 q 176 1000 194 1013 q 129 988 158 988 m 379 988 q 330 1002 349 988 q 311 1043 311 1017 q 317 1128 311 1085 q 333 1215 322 1172 q 364 1299 344 1258 q 411 1374 383 1339 q 428 1388 418 1381 q 451 1396 438 1396 q 488 1383 471 1396 q 506 1353 506 1371 q 502 1338 506 1347 q 492 1318 499 1329 q 460 1240 471 1276 q 447 1158 450 1204 q 444 1039 444 1113 q 426 1000 444 1013 q 379 988 408 988 z "},"”":{"ha":553,"x_min":47,"x_max":492,"o":"m 424 1396 q 474 1381 456 1396 q 492 1340 492 1367 q 486 1256 492 1300 q 469 1168 481 1211 q 440 1085 458 1125 q 392 1010 421 1044 q 376 995 385 1003 q 351 988 367 988 q 315 1000 332 988 q 297 1031 297 1013 q 301 1045 297 1036 q 311 1065 306 1054 q 343 1144 333 1108 q 356 1226 353 1179 q 358 1344 358 1272 q 376 1383 358 1371 q 424 1396 394 1396 m 174 1396 q 224 1381 206 1396 q 242 1340 242 1367 q 236 1256 242 1300 q 219 1168 231 1211 q 190 1085 208 1125 q 142 1010 171 1044 q 126 995 135 1003 q 101 988 117 988 q 65 1000 82 988 q 47 1031 47 1013 q 51 1045 47 1036 q 61 1065 56 1054 q 93 1144 83 1108 q 106 1226 103 1179 q 108 1344 108 1272 q 126 1383 108 1371 q 174 1396 144 1396 z "},"„":{"ha":557,"x_min":49,"x_max":496,"o":"m 349 -293 q 312 -280 329 -293 q 294 -249 294 -267 q 299 -235 294 -243 q 308 -214 303 -226 q 342 -136 331 -172 q 357 -53 353 -100 q 361 64 361 -7 q 378 103 361 90 q 426 117 396 117 q 476 102 458 117 q 494 61 494 88 q 484 -53 494 6 q 450 -168 474 -112 q 388 -269 426 -224 q 372 -285 382 -278 q 349 -293 363 -293 m 103 -293 q 66 -280 83 -293 q 49 -249 49 -267 q 53 -235 49 -243 q 63 -214 57 -226 q 96 -136 85 -172 q 111 -53 107 -100 q 115 64 115 -7 q 133 103 115 90 q 181 117 150 117 q 231 102 213 117 q 249 61 249 88 q 238 -53 249 6 q 204 -168 228 -112 q 142 -269 181 -224 q 126 -285 136 -278 q 103 -293 117 -293 z "},"«":{"ha":1007,"x_min":131,"x_max":875,"o":"m 458 -19 q 419 -11 438 -19 q 383 19 401 -3 l 164 297 q 138 331 144 321 q 131 349 131 342 q 138 367 131 357 q 164 401 144 378 l 383 678 q 419 708 401 700 q 458 715 438 715 q 499 703 483 715 q 518 675 515 692 q 507 640 521 658 l 275 349 l 507 56 q 512 5 528 29 q 458 -19 496 -19 m 806 -19 q 767 -11 785 -19 q 731 19 749 -3 l 511 297 q 485 331 492 321 q 478 349 478 342 q 485 367 478 357 q 511 401 492 378 l 731 678 q 767 708 749 700 q 806 715 785 715 q 847 703 831 715 q 865 675 863 692 q 854 640 868 658 l 622 349 l 854 56 q 859 5 875 29 q 806 -19 843 -19 z "},"»":{"ha":1007,"x_min":132,"x_max":876,"o":"m 201 -19 q 160 -8 176 -19 q 142 22 144 4 q 153 56 139 39 l 385 349 l 153 640 q 148 691 132 667 q 201 715 164 715 q 241 708 222 715 q 276 678 260 700 l 497 401 q 523 367 517 378 q 529 349 529 357 q 523 331 529 342 q 497 297 517 321 l 276 19 q 241 -11 260 -3 q 201 -19 222 -19 m 549 -19 q 508 -8 524 -19 q 489 22 492 4 q 500 56 486 39 l 732 349 l 500 640 q 495 691 479 667 q 549 715 511 715 q 588 708 569 715 q 624 678 607 700 l 844 401 q 870 367 864 378 q 876 349 876 357 q 870 331 876 342 q 844 297 864 321 l 624 19 q 588 -11 607 -3 q 549 -19 569 -19 z "},"‹":{"ha":660,"x_min":131,"x_max":528,"o":"m 458 -19 q 419 -11 438 -19 q 383 19 401 -3 l 164 297 q 138 331 144 321 q 131 349 131 342 q 138 367 131 357 q 164 401 144 378 l 383 678 q 419 708 401 700 q 458 715 438 715 q 499 703 483 715 q 518 675 515 692 q 507 640 521 658 l 275 349 l 507 56 q 512 5 528 29 q 458 -19 496 -19 z "},"›":{"ha":660,"x_min":132,"x_max":529,"o":"m 201 -19 q 160 -8 176 -19 q 142 22 144 4 q 153 56 139 39 l 385 349 l 153 640 q 148 691 132 667 q 201 715 164 715 q 241 708 222 715 q 276 678 260 700 l 497 401 q 523 367 517 378 q 529 349 529 357 q 523 331 529 342 q 497 297 517 321 l 276 19 q 241 -11 260 -3 q 201 -19 222 -19 z "},"Á":{"ha":1158,"x_min":29,"x_max":1131,"o":"m 92 -19 q 42 -2 56 -19 q 39 43 29 15 l 501 1354 q 529 1398 513 1386 q 579 1410 546 1410 q 628 1398 613 1410 q 656 1354 644 1386 l 1119 43 q 1115 -2 1131 15 q 1064 -19 1100 -19 q 1020 -8 1033 -19 q 996 32 1007 4 l 872 389 l 283 389 l 158 32 q 135 -8 149 4 q 92 -19 122 -19 m 322 500 l 832 500 l 578 1226 l 322 500 m 511 1469 q 478 1488 496 1469 q 460 1521 460 1507 q 461 1532 460 1526 q 471 1546 463 1538 l 669 1747 q 683 1758 676 1754 q 697 1763 689 1763 q 728 1750 710 1763 q 759 1721 746 1738 q 772 1689 772 1704 q 769 1672 772 1679 q 751 1654 765 1665 l 538 1483 q 523 1474 529 1478 q 511 1469 517 1469 z "},"Ă":{"ha":1158,"x_min":29,"x_max":1131,"o":"m 92 -19 q 42 -2 56 -19 q 39 43 29 15 l 501 1354 q 529 1398 513 1386 q 579 1410 546 1410 q 628 1398 613 1410 q 656 1354 644 1386 l 1119 43 q 1115 -2 1131 15 q 1064 -19 1100 -19 q 1020 -8 1033 -19 q 996 32 1007 4 l 872 389 l 283 389 l 158 32 q 135 -8 149 4 q 92 -19 122 -19 m 322 500 l 832 500 l 578 1226 l 322 500 m 578 1469 q 402 1532 469 1469 q 325 1721 335 1594 q 338 1749 324 1738 q 378 1761 351 1761 q 408 1751 400 1761 q 422 1721 417 1740 q 477 1625 440 1657 q 578 1593 514 1593 q 679 1625 642 1593 q 733 1721 717 1657 q 747 1751 739 1740 q 776 1761 754 1761 q 817 1749 803 1761 q 831 1721 832 1738 q 791 1585 825 1640 q 702 1499 757 1529 q 578 1469 647 1469 z "},"Ǎ":{"ha":1158,"x_min":29,"x_max":1131,"o":"m 92 -19 q 42 -2 56 -19 q 39 43 29 15 l 501 1354 q 529 1398 513 1386 q 579 1410 546 1410 q 628 1398 613 1410 q 656 1354 644 1386 l 1119 43 q 1115 -2 1131 15 q 1064 -19 1100 -19 q 1020 -8 1033 -19 q 996 32 1007 4 l 872 389 l 283 389 l 158 32 q 135 -8 149 4 q 92 -19 122 -19 m 322 500 l 832 500 l 578 1226 l 322 500 m 793 1763 q 824 1747 807 1763 q 842 1715 842 1731 q 841 1707 842 1713 q 833 1693 840 1701 l 639 1497 q 617 1479 629 1489 q 578 1469 606 1469 q 540 1479 551 1469 q 519 1497 528 1489 l 324 1693 q 315 1707 315 1701 q 315 1715 315 1713 q 333 1747 315 1731 q 364 1763 350 1763 q 381 1758 372 1763 q 399 1746 389 1753 l 578 1608 l 758 1746 q 776 1758 769 1753 q 793 1763 783 1763 z "},"Â":{"ha":1158,"x_min":29,"x_max":1131,"o":"m 92 -19 q 42 -2 56 -19 q 39 43 29 15 l 501 1354 q 529 1398 513 1386 q 579 1410 546 1410 q 628 1398 613 1410 q 656 1354 644 1386 l 1119 43 q 1115 -2 1131 15 q 1064 -19 1100 -19 q 1020 -8 1033 -19 q 996 32 1007 4 l 872 389 l 283 389 l 158 32 q 135 -8 149 4 q 92 -19 122 -19 m 322 500 l 832 500 l 578 1226 l 322 500 m 364 1469 q 333 1486 350 1469 q 315 1517 315 1503 q 315 1526 315 1521 q 324 1539 315 1532 l 517 1735 q 539 1753 526 1744 q 578 1763 551 1763 q 616 1753 604 1763 q 638 1735 628 1744 l 833 1539 q 841 1526 840 1532 q 842 1517 842 1521 q 824 1486 842 1503 q 793 1469 807 1469 q 776 1474 783 1469 q 758 1488 769 1479 l 578 1624 l 399 1488 q 381 1474 389 1479 q 364 1469 372 1469 z "},"Ä":{"ha":1158,"x_min":29,"x_max":1131,"o":"m 92 -19 q 42 -2 56 -19 q 39 43 29 15 l 501 1354 q 529 1398 513 1386 q 579 1410 546 1410 q 628 1398 613 1410 q 656 1354 644 1386 l 1119 43 q 1115 -2 1131 15 q 1064 -19 1100 -19 q 1020 -8 1033 -19 q 996 32 1007 4 l 872 389 l 283 389 l 158 32 q 135 -8 149 4 q 92 -19 122 -19 m 322 500 l 832 500 l 578 1226 l 322 500 m 407 1517 q 349 1538 368 1517 q 329 1604 329 1560 q 349 1670 329 1649 q 407 1692 368 1692 q 465 1670 446 1692 q 483 1604 483 1649 q 466 1538 486 1560 q 407 1517 446 1517 m 750 1517 q 692 1538 711 1517 q 672 1604 672 1560 q 692 1670 672 1649 q 750 1692 711 1692 q 807 1670 788 1692 q 826 1604 826 1649 q 808 1539 828 1561 q 750 1517 788 1517 z "},"Ǽ":{"ha":1486,"x_min":18,"x_max":1425,"o":"m 1388 0 l 801 0 q 756 14 771 0 q 740 56 740 28 l 740 638 l 435 638 l 132 1 q 103 -21 122 -17 q 57 -14 83 -25 q 26 15 35 -3 q 28 50 18 32 l 647 1338 q 677 1377 663 1368 q 731 1386 692 1386 l 1388 1386 q 1417 1374 1408 1386 q 1425 1331 1425 1363 q 1417 1288 1425 1300 q 1388 1275 1408 1275 l 863 1275 l 863 749 l 1290 749 q 1320 737 1311 749 q 1329 693 1329 725 q 1320 650 1329 663 q 1290 638 1311 638 l 863 638 l 863 111 l 1388 111 q 1417 99 1408 111 q 1425 56 1425 88 q 1417 13 1425 25 q 1388 0 1408 0 m 489 749 l 740 749 l 740 1278 l 489 749 m 975 1469 q 942 1488 960 1469 q 924 1521 924 1507 q 925 1532 924 1526 q 935 1546 926 1538 l 1133 1747 q 1147 1758 1140 1754 q 1161 1763 1153 1763 q 1192 1750 1174 1763 q 1223 1721 1210 1738 q 1236 1689 1236 1704 q 1233 1672 1236 1679 q 1215 1654 1229 1665 l 1001 1483 q 987 1474 993 1478 q 975 1469 981 1469 z "},"À":{"ha":1158,"x_min":29,"x_max":1131,"o":"m 92 -19 q 42 -2 56 -19 q 39 43 29 15 l 501 1354 q 529 1398 513 1386 q 579 1410 546 1410 q 628 1398 613 1410 q 656 1354 644 1386 l 1119 43 q 1115 -2 1131 15 q 1064 -19 1100 -19 q 1020 -8 1033 -19 q 996 32 1007 4 l 872 389 l 283 389 l 158 32 q 135 -8 149 4 q 92 -19 122 -19 m 322 500 l 832 500 l 578 1226 l 322 500 m 644 1469 q 633 1474 639 1469 q 618 1483 626 1478 l 406 1654 q 388 1672 392 1665 q 385 1689 385 1679 q 397 1721 385 1704 q 428 1750 410 1738 q 460 1763 446 1763 q 474 1758 468 1763 q 486 1747 481 1754 l 685 1546 q 696 1532 694 1538 q 697 1521 697 1526 q 679 1488 697 1507 q 644 1469 661 1469 z "},"Ā":{"ha":1158,"x_min":29,"x_max":1131,"o":"m 92 -19 q 42 -2 56 -19 q 39 43 29 15 l 501 1354 q 529 1398 513 1386 q 579 1410 546 1410 q 628 1398 613 1410 q 656 1354 644 1386 l 1119 43 q 1115 -2 1131 15 q 1064 -19 1100 -19 q 1020 -8 1033 -19 q 996 32 1007 4 l 872 389 l 283 389 l 158 32 q 135 -8 149 4 q 92 -19 122 -19 m 322 500 l 832 500 l 578 1226 l 322 500 m 386 1556 q 356 1572 363 1556 q 349 1613 349 1588 q 356 1656 349 1639 q 386 1674 363 1674 l 769 1674 q 801 1656 794 1674 q 807 1613 807 1639 q 801 1572 807 1588 q 769 1556 794 1556 l 386 1556 z "},"Ą":{"ha":1158,"x_min":29,"x_max":1156,"o":"m 92 -19 q 42 -2 56 -19 q 39 43 29 15 l 501 1354 q 529 1398 513 1386 q 579 1410 546 1410 q 628 1398 613 1410 q 656 1354 644 1386 l 1119 43 q 1115 -2 1131 15 q 1064 -19 1100 -19 q 1020 -8 1033 -19 q 996 32 1007 4 l 872 389 l 283 389 l 158 32 q 135 -8 149 4 q 92 -19 122 -19 m 322 500 l 832 500 l 578 1226 l 322 500 m 972 -368 q 878 -337 917 -368 q 840 -247 840 -307 q 853 -178 840 -211 q 890 -114 865 -146 q 949 -48 914 -82 q 1032 24 985 -14 l 1118 25 l 1118 13 q 1057 -42 1086 -14 q 1003 -99 1028 -71 q 965 -156 979 -128 q 950 -208 950 -183 q 963 -250 950 -236 q 997 -264 976 -264 q 1038 -253 1019 -264 q 1081 -219 1056 -242 q 1103 -211 1090 -212 q 1132 -222 1117 -210 q 1151 -253 1146 -235 q 1149 -282 1156 -271 q 1099 -329 1131 -310 q 1034 -358 1068 -349 q 972 -368 1000 -368 z "},"Å":{"ha":1158,"x_min":29,"x_max":1131,"o":"m 92 -19 q 42 -2 56 -19 q 39 43 29 15 l 501 1354 q 529 1398 513 1386 q 579 1410 546 1410 q 628 1398 613 1410 q 656 1354 644 1386 l 1119 43 q 1115 -2 1131 15 q 1064 -19 1100 -19 q 1020 -8 1033 -19 q 996 32 1007 4 l 872 389 l 283 389 l 158 32 q 135 -8 149 4 q 92 -19 122 -19 m 322 500 l 832 500 l 578 1226 l 322 500 m 578 1458 q 479 1481 522 1458 q 411 1541 436 1503 q 386 1629 386 1579 q 411 1716 386 1678 q 479 1776 436 1754 q 578 1797 522 1797 q 678 1776 635 1797 q 747 1716 722 1754 q 772 1629 772 1678 q 747 1541 772 1579 q 678 1481 722 1503 q 578 1458 635 1458 m 578 1543 q 647 1568 621 1543 q 674 1629 674 1593 q 647 1688 674 1664 q 578 1713 621 1713 q 510 1688 536 1713 q 485 1629 485 1664 q 510 1568 485 1593 q 578 1543 536 1543 z "},"Ã":{"ha":1158,"x_min":29,"x_max":1131,"o":"m 92 -19 q 42 -2 56 -19 q 39 43 29 15 l 501 1354 q 529 1398 513 1386 q 579 1410 546 1410 q 628 1398 613 1410 q 656 1354 644 1386 l 1119 43 q 1115 -2 1131 15 q 1064 -19 1100 -19 q 1020 -8 1033 -19 q 996 32 1007 4 l 872 389 l 283 389 l 158 32 q 135 -8 149 4 q 92 -19 122 -19 m 322 500 l 832 500 l 578 1226 l 322 500 m 367 1510 q 319 1546 319 1510 q 355 1678 321 1635 q 456 1722 389 1722 q 531 1706 497 1722 q 593 1671 565 1690 q 644 1635 621 1651 q 692 1619 668 1619 q 720 1641 710 1619 q 733 1694 731 1663 q 781 1725 735 1725 q 819 1715 807 1725 q 831 1686 831 1706 q 795 1556 829 1600 q 693 1511 761 1511 q 617 1526 651 1511 q 553 1562 582 1542 q 501 1598 525 1582 q 457 1614 478 1614 q 428 1597 438 1614 q 417 1546 419 1581 q 403 1519 415 1528 q 367 1510 390 1510 z "},"Ắ":{"ha":1158,"x_min":29,"x_max":1131,"o":"m 92 -19 q 42 -2 56 -19 q 39 43 29 15 l 501 1354 q 529 1398 513 1386 q 579 1410 546 1410 q 628 1398 613 1410 q 656 1354 644 1386 l 1119 43 q 1115 -2 1131 15 q 1064 -19 1100 -19 q 1020 -8 1033 -19 q 996 32 1007 4 l 872 389 l 283 389 l 158 32 q 135 -8 149 4 q 92 -19 122 -19 m 322 500 l 832 500 l 578 1226 l 322 500 m 578 1469 q 402 1532 469 1469 q 325 1721 335 1594 q 338 1749 324 1738 q 378 1761 351 1761 q 408 1751 400 1761 q 422 1721 417 1740 q 477 1625 440 1657 q 578 1593 514 1593 q 679 1625 642 1593 q 733 1721 717 1657 q 747 1751 739 1740 q 776 1761 754 1761 q 817 1749 803 1761 q 831 1721 832 1738 q 791 1585 825 1640 q 702 1499 757 1529 q 578 1469 647 1469 m 511 1738 q 478 1756 496 1738 q 460 1789 460 1775 q 461 1800 460 1794 q 471 1814 463 1806 l 669 2015 q 683 2026 676 2022 q 697 2031 689 2031 q 728 2018 710 2031 q 759 1989 746 2006 q 772 1957 772 1972 q 769 1940 772 1947 q 751 1922 765 1933 l 538 1751 q 523 1742 529 1746 q 511 1738 517 1738 z "},"Ặ":{"ha":1158,"x_min":29,"x_max":1131,"o":"m 92 -19 q 42 -2 56 -19 q 39 43 29 15 l 501 1354 q 529 1398 513 1386 q 579 1410 546 1410 q 628 1398 613 1410 q 656 1354 644 1386 l 1119 43 q 1115 -2 1131 15 q 1064 -19 1100 -19 q 1020 -8 1033 -19 q 996 32 1007 4 l 872 389 l 283 389 l 158 32 q 135 -8 149 4 q 92 -19 122 -19 m 322 500 l 832 500 l 578 1226 l 322 500 m 578 -326 q 519 -305 539 -326 q 500 -239 500 -283 q 519 -173 500 -194 q 578 -151 539 -151 q 635 -173 615 -151 q 654 -239 654 -194 q 635 -305 656 -283 q 578 -326 615 -326 m 578 1469 q 402 1532 469 1469 q 325 1721 335 1594 q 338 1749 324 1738 q 378 1761 351 1761 q 408 1751 400 1761 q 422 1721 417 1740 q 477 1625 440 1657 q 578 1593 514 1593 q 679 1625 642 1593 q 733 1721 717 1657 q 747 1751 739 1740 q 776 1761 754 1761 q 817 1749 803 1761 q 831 1721 832 1738 q 791 1585 825 1640 q 702 1499 757 1529 q 578 1469 647 1469 z "},"Ằ":{"ha":1158,"x_min":29,"x_max":1131,"o":"m 92 -19 q 42 -2 56 -19 q 39 43 29 15 l 501 1354 q 529 1398 513 1386 q 579 1410 546 1410 q 628 1398 613 1410 q 656 1354 644 1386 l 1119 43 q 1115 -2 1131 15 q 1064 -19 1100 -19 q 1020 -8 1033 -19 q 996 32 1007 4 l 872 389 l 283 389 l 158 32 q 135 -8 149 4 q 92 -19 122 -19 m 322 500 l 832 500 l 578 1226 l 322 500 m 578 1469 q 402 1532 469 1469 q 325 1721 335 1594 q 338 1749 324 1738 q 378 1761 351 1761 q 408 1751 400 1761 q 422 1721 417 1740 q 477 1625 440 1657 q 578 1593 514 1593 q 679 1625 642 1593 q 733 1721 717 1657 q 747 1751 739 1740 q 776 1761 754 1761 q 817 1749 803 1761 q 831 1721 832 1738 q 791 1585 825 1640 q 702 1499 757 1529 q 578 1469 647 1469 m 644 1736 q 633 1740 639 1736 q 618 1750 626 1744 l 406 1921 q 388 1939 392 1932 q 385 1956 385 1946 q 397 1988 385 1971 q 428 2017 410 2004 q 460 2029 446 2029 q 474 2025 468 2029 q 486 2014 481 2021 l 685 1813 q 696 1799 694 1804 q 697 1788 697 1793 q 679 1755 697 1774 q 644 1736 661 1736 z "},"Ẳ":{"ha":1158,"x_min":29,"x_max":1131,"o":"m 92 -19 q 42 -2 56 -19 q 39 43 29 15 l 501 1354 q 529 1398 513 1386 q 579 1410 546 1410 q 628 1398 613 1410 q 656 1354 644 1386 l 1119 43 q 1115 -2 1131 15 q 1064 -19 1100 -19 q 1020 -8 1033 -19 q 996 32 1007 4 l 872 389 l 283 389 l 158 32 q 135 -8 149 4 q 92 -19 122 -19 m 322 500 l 832 500 l 578 1226 l 322 500 m 578 1469 q 402 1532 469 1469 q 325 1721 335 1594 q 338 1749 324 1738 q 378 1761 351 1761 q 408 1751 400 1761 q 422 1721 417 1740 q 477 1625 440 1657 q 578 1593 514 1593 q 679 1625 642 1593 q 733 1721 717 1657 q 747 1751 739 1740 q 776 1761 754 1761 q 817 1749 803 1761 q 831 1721 832 1738 q 791 1585 825 1640 q 702 1499 757 1529 q 578 1469 647 1469 m 586 2049 q 696 2015 654 2049 q 738 1928 738 1982 q 722 1865 738 1892 q 665 1808 706 1838 q 641 1783 647 1794 q 638 1758 635 1772 l 639 1749 q 631 1722 643 1733 q 601 1707 619 1711 q 567 1707 583 1703 q 544 1725 551 1711 l 529 1763 q 530 1822 518 1794 q 572 1871 542 1849 q 599 1896 590 1885 q 607 1918 607 1907 q 595 1938 607 1929 q 564 1947 583 1947 q 522 1941 544 1947 q 488 1925 500 1935 q 429 1947 454 1904 q 438 2001 413 1979 q 506 2035 467 2022 q 586 2049 546 2049 z "},"Ẵ":{"ha":1158,"x_min":29,"x_max":1131,"o":"m 92 -19 q 42 -2 56 -19 q 39 43 29 15 l 501 1354 q 529 1398 513 1386 q 579 1410 546 1410 q 628 1398 613 1410 q 656 1354 644 1386 l 1119 43 q 1115 -2 1131 15 q 1064 -19 1100 -19 q 1020 -8 1033 -19 q 996 32 1007 4 l 872 389 l 283 389 l 158 32 q 135 -8 149 4 q 92 -19 122 -19 m 322 500 l 832 500 l 578 1226 l 322 500 m 578 1469 q 402 1532 469 1469 q 325 1721 335 1594 q 338 1749 324 1738 q 378 1761 351 1761 q 408 1751 400 1761 q 422 1721 417 1740 q 477 1625 440 1657 q 578 1593 514 1593 q 679 1625 642 1593 q 733 1721 717 1657 q 747 1751 739 1740 q 776 1761 754 1761 q 817 1749 803 1761 q 831 1721 832 1738 q 791 1585 825 1640 q 702 1499 757 1529 q 578 1469 647 1469 m 367 1804 q 319 1840 319 1804 q 355 1974 321 1931 q 456 2017 389 2017 q 531 2001 497 2017 q 593 1966 565 1986 q 644 1931 621 1946 q 692 1915 668 1915 q 720 1936 710 1915 q 733 1989 731 1957 q 781 2019 735 2019 q 819 2010 807 2019 q 831 1981 831 2000 q 795 1850 829 1894 q 693 1806 761 1806 q 617 1822 651 1806 q 553 1858 582 1838 q 501 1893 525 1878 q 457 1908 478 1908 q 428 1892 438 1908 q 417 1840 419 1876 q 403 1813 415 1822 q 367 1804 390 1804 z "},"Ấ":{"ha":1158,"x_min":29,"x_max":1131,"o":"m 92 -19 q 42 -2 56 -19 q 39 43 29 15 l 501 1354 q 529 1398 513 1386 q 579 1410 546 1410 q 628 1398 613 1410 q 656 1354 644 1386 l 1119 43 q 1115 -2 1131 15 q 1064 -19 1100 -19 q 1020 -8 1033 -19 q 996 32 1007 4 l 872 389 l 283 389 l 158 32 q 135 -8 149 4 q 92 -19 122 -19 m 322 500 l 832 500 l 578 1226 l 322 500 m 364 1469 q 333 1486 350 1469 q 315 1517 315 1503 q 315 1526 315 1521 q 324 1539 315 1532 l 517 1735 q 539 1753 526 1744 q 578 1763 551 1763 q 616 1753 604 1763 q 638 1735 628 1744 l 833 1539 q 841 1526 840 1532 q 842 1517 842 1521 q 824 1486 842 1503 q 793 1469 807 1469 q 776 1474 783 1469 q 758 1488 769 1479 l 578 1624 l 399 1488 q 381 1474 389 1479 q 364 1469 372 1469 m 799 1690 q 765 1709 783 1690 q 747 1742 747 1728 q 749 1752 747 1747 q 758 1767 750 1757 l 947 1954 q 960 1967 954 1963 q 975 1971 967 1971 q 1006 1958 989 1971 q 1036 1928 1024 1946 q 1049 1897 1049 1911 q 1046 1881 1049 1888 q 1028 1863 1043 1875 l 825 1704 q 810 1694 817 1699 q 799 1690 804 1690 z "},"Ậ":{"ha":1158,"x_min":29,"x_max":1131,"o":"m 92 -19 q 42 -2 56 -19 q 39 43 29 15 l 501 1354 q 529 1398 513 1386 q 579 1410 546 1410 q 628 1398 613 1410 q 656 1354 644 1386 l 1119 43 q 1115 -2 1131 15 q 1064 -19 1100 -19 q 1020 -8 1033 -19 q 996 32 1007 4 l 872 389 l 283 389 l 158 32 q 135 -8 149 4 q 92 -19 122 -19 m 322 500 l 832 500 l 578 1226 l 322 500 m 578 -326 q 519 -305 539 -326 q 500 -239 500 -283 q 519 -173 500 -194 q 578 -151 539 -151 q 635 -173 615 -151 q 654 -239 654 -194 q 635 -305 656 -283 q 578 -326 615 -326 m 364 1469 q 333 1486 350 1469 q 315 1517 315 1503 q 315 1526 315 1521 q 324 1539 315 1532 l 517 1735 q 539 1753 526 1744 q 578 1763 551 1763 q 616 1753 604 1763 q 638 1735 628 1744 l 833 1539 q 841 1526 840 1532 q 842 1517 842 1521 q 824 1486 842 1503 q 793 1469 807 1469 q 776 1474 783 1469 q 758 1488 769 1479 l 578 1624 l 399 1488 q 381 1474 389 1479 q 364 1469 372 1469 z "},"Ầ":{"ha":1158,"x_min":29,"x_max":1131,"o":"m 92 -19 q 42 -2 56 -19 q 39 43 29 15 l 501 1354 q 529 1398 513 1386 q 579 1410 546 1410 q 628 1398 613 1410 q 656 1354 644 1386 l 1119 43 q 1115 -2 1131 15 q 1064 -19 1100 -19 q 1020 -8 1033 -19 q 996 32 1007 4 l 872 389 l 283 389 l 158 32 q 135 -8 149 4 q 92 -19 122 -19 m 322 500 l 832 500 l 578 1226 l 322 500 m 364 1469 q 333 1486 350 1469 q 315 1517 315 1503 q 315 1526 315 1521 q 324 1539 315 1532 l 517 1735 q 539 1753 526 1744 q 578 1763 551 1763 q 616 1753 604 1763 q 638 1735 628 1744 l 833 1539 q 841 1526 840 1532 q 842 1517 842 1521 q 824 1486 842 1503 q 793 1469 807 1469 q 776 1474 783 1469 q 758 1488 769 1479 l 578 1624 l 399 1488 q 381 1474 389 1479 q 364 1469 372 1469 m 886 1669 q 874 1673 881 1669 q 860 1683 868 1676 l 663 1865 q 645 1884 649 1878 q 642 1900 642 1890 q 655 1931 642 1914 q 686 1960 668 1949 q 718 1972 704 1972 q 733 1968 726 1972 q 746 1957 739 1964 l 926 1746 q 936 1731 933 1736 q 939 1721 939 1726 q 921 1688 939 1707 q 886 1669 903 1669 z "},"Ẩ":{"ha":1158,"x_min":29,"x_max":1131,"o":"m 92 -19 q 42 -2 56 -19 q 39 43 29 15 l 501 1354 q 529 1398 513 1386 q 579 1410 546 1410 q 628 1398 613 1410 q 656 1354 644 1386 l 1119 43 q 1115 -2 1131 15 q 1064 -19 1100 -19 q 1020 -8 1033 -19 q 996 32 1007 4 l 872 389 l 283 389 l 158 32 q 135 -8 149 4 q 92 -19 122 -19 m 322 500 l 832 500 l 578 1226 l 322 500 m 364 1469 q 333 1486 350 1469 q 315 1517 315 1503 q 315 1526 315 1521 q 324 1539 315 1532 l 517 1735 q 539 1753 526 1744 q 578 1763 551 1763 q 616 1753 604 1763 q 638 1735 628 1744 l 833 1539 q 841 1526 840 1532 q 842 1517 842 1521 q 824 1486 842 1503 q 793 1469 807 1469 q 776 1474 783 1469 q 758 1488 769 1479 l 578 1624 l 399 1488 q 381 1474 389 1479 q 364 1469 372 1469 m 831 1989 q 940 1956 899 1989 q 982 1868 982 1924 q 966 1806 982 1833 q 911 1750 950 1779 q 886 1725 893 1736 q 882 1700 879 1714 l 883 1690 q 876 1664 888 1675 q 846 1649 864 1653 q 812 1649 828 1644 q 789 1667 796 1653 l 774 1704 q 774 1763 763 1736 q 817 1813 786 1790 q 844 1838 836 1826 q 851 1860 851 1849 q 840 1879 851 1871 q 808 1888 828 1888 q 767 1882 789 1888 q 733 1867 744 1876 q 674 1889 700 1846 q 682 1943 658 1921 q 751 1976 711 1964 q 831 1989 790 1989 z "},"Ẫ":{"ha":1158,"x_min":29,"x_max":1131,"o":"m 92 -19 q 42 -2 56 -19 q 39 43 29 15 l 501 1354 q 529 1398 513 1386 q 579 1410 546 1410 q 628 1398 613 1410 q 656 1354 644 1386 l 1119 43 q 1115 -2 1131 15 q 1064 -19 1100 -19 q 1020 -8 1033 -19 q 996 32 1007 4 l 872 389 l 283 389 l 158 32 q 135 -8 149 4 q 92 -19 122 -19 m 322 500 l 832 500 l 578 1226 l 322 500 m 364 1469 q 333 1486 350 1469 q 315 1517 315 1503 q 315 1526 315 1521 q 324 1539 315 1532 l 517 1735 q 539 1753 526 1744 q 578 1763 551 1763 q 616 1753 604 1763 q 638 1735 628 1744 l 833 1539 q 841 1526 840 1532 q 842 1517 842 1521 q 824 1486 842 1503 q 793 1469 807 1469 q 776 1474 783 1469 q 758 1488 769 1479 l 578 1624 l 399 1488 q 381 1474 389 1479 q 364 1469 372 1469 m 371 1778 q 324 1814 324 1778 q 360 1947 326 1903 q 460 1990 394 1990 q 536 1975 503 1990 q 597 1940 569 1960 q 649 1904 625 1919 q 696 1889 674 1889 q 726 1910 715 1889 q 738 1963 736 1931 q 785 1993 740 1993 q 824 1983 813 1993 q 835 1954 835 1974 q 800 1824 833 1868 q 697 1779 767 1779 q 621 1794 656 1779 q 558 1830 586 1810 q 507 1866 531 1850 q 461 1882 483 1882 q 433 1865 443 1882 q 421 1814 424 1849 q 407 1787 419 1796 q 371 1778 394 1778 z "},"Ạ":{"ha":1158,"x_min":29,"x_max":1131,"o":"m 92 -19 q 42 -2 56 -19 q 39 43 29 15 l 501 1354 q 529 1398 513 1386 q 579 1410 546 1410 q 628 1398 613 1410 q 656 1354 644 1386 l 1119 43 q 1115 -2 1131 15 q 1064 -19 1100 -19 q 1020 -8 1033 -19 q 996 32 1007 4 l 872 389 l 283 389 l 158 32 q 135 -8 149 4 q 92 -19 122 -19 m 322 500 l 832 500 l 578 1226 l 322 500 m 578 -326 q 519 -305 539 -326 q 500 -239 500 -283 q 519 -173 500 -194 q 578 -151 539 -151 q 635 -173 615 -151 q 654 -239 654 -194 q 635 -305 656 -283 q 578 -326 615 -326 z "},"Ả":{"ha":1158,"x_min":29,"x_max":1131,"o":"m 92 -19 q 42 -2 56 -19 q 39 43 29 15 l 501 1354 q 529 1398 513 1386 q 579 1410 546 1410 q 628 1398 613 1410 q 656 1354 644 1386 l 1119 43 q 1115 -2 1131 15 q 1064 -19 1100 -19 q 1020 -8 1033 -19 q 996 32 1007 4 l 872 389 l 283 389 l 158 32 q 135 -8 149 4 q 92 -19 122 -19 m 322 500 l 832 500 l 578 1226 l 322 500 m 593 1800 q 703 1767 661 1800 q 744 1679 744 1735 q 728 1617 744 1644 q 674 1561 713 1590 q 649 1536 656 1547 q 644 1511 642 1525 l 646 1501 q 638 1475 650 1486 q 608 1460 626 1464 q 574 1460 590 1456 q 551 1478 558 1464 l 536 1515 q 537 1574 525 1547 q 579 1624 549 1601 q 606 1649 599 1638 q 614 1671 614 1660 q 602 1690 614 1682 q 571 1699 590 1699 q 529 1693 551 1699 q 494 1678 507 1688 q 436 1700 461 1657 q 444 1754 419 1732 q 513 1788 474 1775 q 593 1800 553 1800 z "},"Ć":{"ha":1194,"x_min":128,"x_max":1147,"o":"m 697 -26 q 463 26 568 -26 q 283 173 358 78 q 168 399 208 268 q 128 688 128 529 q 147 888 128 793 q 201 1063 165 982 q 288 1207 236 1143 q 406 1317 340 1271 q 549 1386 471 1363 q 715 1410 628 1410 q 857 1393 786 1410 q 992 1337 928 1376 q 1104 1225 1056 1297 q 1111 1196 1117 1208 q 1089 1169 1106 1183 q 1055 1149 1069 1153 q 1028 1160 1040 1146 q 937 1232 986 1203 q 833 1276 888 1261 q 715 1292 778 1292 q 590 1273 650 1292 q 479 1219 531 1254 q 388 1131 428 1183 q 318 1012 347 1079 q 274 864 289 944 q 258 688 258 783 q 291 435 258 546 q 383 247 324 324 q 522 131 442 171 q 697 92 603 92 q 805 109 756 92 q 899 156 854 126 q 982 224 943 186 q 1056 304 1021 263 q 1084 317 1068 319 q 1119 299 1100 314 q 1144 271 1140 283 q 1136 243 1147 258 q 1005 93 1075 153 q 858 3 935 33 q 697 -26 781 -26 m 636 1469 q 603 1488 621 1469 q 585 1521 585 1507 q 586 1532 585 1526 q 596 1546 588 1538 l 794 1747 q 808 1758 801 1754 q 822 1763 814 1763 q 853 1750 835 1763 q 884 1721 871 1738 q 897 1689 897 1704 q 894 1672 897 1679 q 876 1654 890 1665 l 663 1483 q 648 1474 654 1478 q 636 1469 642 1469 z "},"Č":{"ha":1194,"x_min":128,"x_max":1147,"o":"m 697 -26 q 463 26 568 -26 q 283 173 358 78 q 168 399 208 268 q 128 688 128 529 q 147 888 128 793 q 201 1063 165 982 q 288 1207 236 1143 q 406 1317 340 1271 q 549 1386 471 1363 q 715 1410 628 1410 q 857 1393 786 1410 q 992 1337 928 1376 q 1104 1225 1056 1297 q 1111 1196 1117 1208 q 1089 1169 1106 1183 q 1055 1149 1069 1153 q 1028 1160 1040 1146 q 937 1232 986 1203 q 833 1276 888 1261 q 715 1292 778 1292 q 590 1273 650 1292 q 479 1219 531 1254 q 388 1131 428 1183 q 318 1012 347 1079 q 274 864 289 944 q 258 688 258 783 q 291 435 258 546 q 383 247 324 324 q 522 131 442 171 q 697 92 603 92 q 805 109 756 92 q 899 156 854 126 q 982 224 943 186 q 1056 304 1021 263 q 1084 317 1068 319 q 1119 299 1100 314 q 1144 271 1140 283 q 1136 243 1147 258 q 1005 93 1075 153 q 858 3 935 33 q 697 -26 781 -26 m 918 1763 q 949 1747 932 1763 q 967 1715 967 1731 q 966 1707 967 1713 q 958 1693 965 1701 l 764 1497 q 742 1479 754 1489 q 703 1469 731 1469 q 665 1479 676 1469 q 644 1497 653 1489 l 449 1693 q 440 1707 440 1701 q 440 1715 440 1713 q 458 1747 440 1731 q 489 1763 475 1763 q 506 1758 497 1763 q 524 1746 514 1753 l 703 1608 l 883 1746 q 901 1758 894 1753 q 918 1763 908 1763 z "},"Ç":{"ha":1194,"x_min":128,"x_max":1147,"o":"m 697 -26 q 463 26 568 -26 q 283 173 358 78 q 168 399 208 268 q 128 688 128 529 q 147 888 128 793 q 201 1063 165 982 q 288 1207 236 1143 q 406 1317 340 1271 q 549 1386 471 1363 q 715 1410 628 1410 q 857 1393 786 1410 q 992 1337 928 1376 q 1104 1225 1056 1297 q 1111 1196 1117 1208 q 1089 1169 1106 1183 q 1055 1149 1069 1153 q 1028 1160 1040 1146 q 937 1232 986 1203 q 833 1276 888 1261 q 715 1292 778 1292 q 590 1273 650 1292 q 479 1219 531 1254 q 388 1131 428 1183 q 318 1012 347 1079 q 274 864 289 944 q 258 688 258 783 q 291 435 258 546 q 383 247 324 324 q 522 131 442 171 q 697 92 603 92 q 805 109 756 92 q 899 156 854 126 q 982 224 943 186 q 1056 304 1021 263 q 1084 317 1068 319 q 1119 299 1100 314 q 1144 271 1140 283 q 1136 243 1147 258 q 1005 93 1075 153 q 858 3 935 33 q 697 -26 781 -26 m 661 -376 q 592 -369 638 -376 q 510 -337 547 -361 q 492 -312 494 -328 q 497 -281 490 -296 q 519 -256 507 -261 q 550 -258 532 -250 q 592 -272 565 -264 q 650 -281 619 -281 q 713 -270 694 -281 q 731 -232 731 -260 q 708 -194 731 -210 q 625 -187 686 -179 q 601 -186 610 -189 q 585 -174 592 -183 q 576 -154 576 -164 q 579 -135 575 -144 l 649 18 l 739 18 l 664 -146 l 622 -124 q 734 -108 685 -100 q 812 -149 783 -117 q 840 -232 840 -182 q 819 -310 840 -278 q 760 -359 799 -342 q 661 -376 721 -376 z "},"Ĉ":{"ha":1194,"x_min":128,"x_max":1147,"o":"m 697 -26 q 463 26 568 -26 q 283 173 358 78 q 168 399 208 268 q 128 688 128 529 q 147 888 128 793 q 201 1063 165 982 q 288 1207 236 1143 q 406 1317 340 1271 q 549 1386 471 1363 q 715 1410 628 1410 q 857 1393 786 1410 q 992 1337 928 1376 q 1104 1225 1056 1297 q 1111 1196 1117 1208 q 1089 1169 1106 1183 q 1055 1149 1069 1153 q 1028 1160 1040 1146 q 937 1232 986 1203 q 833 1276 888 1261 q 715 1292 778 1292 q 590 1273 650 1292 q 479 1219 531 1254 q 388 1131 428 1183 q 318 1012 347 1079 q 274 864 289 944 q 258 688 258 783 q 291 435 258 546 q 383 247 324 324 q 522 131 442 171 q 697 92 603 92 q 805 109 756 92 q 899 156 854 126 q 982 224 943 186 q 1056 304 1021 263 q 1084 317 1068 319 q 1119 299 1100 314 q 1144 271 1140 283 q 1136 243 1147 258 q 1005 93 1075 153 q 858 3 935 33 q 697 -26 781 -26 m 489 1469 q 458 1486 475 1469 q 440 1517 440 1503 q 440 1526 440 1521 q 449 1539 440 1532 l 642 1735 q 664 1753 651 1744 q 703 1763 676 1763 q 741 1753 729 1763 q 763 1735 753 1744 l 958 1539 q 966 1526 965 1532 q 967 1517 967 1521 q 949 1486 967 1503 q 918 1469 932 1469 q 901 1474 908 1469 q 883 1488 894 1479 l 703 1624 l 524 1488 q 506 1474 514 1479 q 489 1469 497 1469 z "},"Ċ":{"ha":1194,"x_min":128,"x_max":1147,"o":"m 697 -26 q 463 26 568 -26 q 283 173 358 78 q 168 399 208 268 q 128 688 128 529 q 147 888 128 793 q 201 1063 165 982 q 288 1207 236 1143 q 406 1317 340 1271 q 549 1386 471 1363 q 715 1410 628 1410 q 857 1393 786 1410 q 992 1337 928 1376 q 1104 1225 1056 1297 q 1111 1196 1117 1208 q 1089 1169 1106 1183 q 1055 1149 1069 1153 q 1028 1160 1040 1146 q 937 1232 986 1203 q 833 1276 888 1261 q 715 1292 778 1292 q 590 1273 650 1292 q 479 1219 531 1254 q 388 1131 428 1183 q 318 1012 347 1079 q 274 864 289 944 q 258 688 258 783 q 291 435 258 546 q 383 247 324 324 q 522 131 442 171 q 697 92 603 92 q 805 109 756 92 q 899 156 854 126 q 982 224 943 186 q 1056 304 1021 263 q 1084 317 1068 319 q 1119 299 1100 314 q 1144 271 1140 283 q 1136 243 1147 258 q 1005 93 1075 153 q 858 3 935 33 q 697 -26 781 -26 m 703 1517 q 644 1538 664 1517 q 625 1603 625 1560 q 644 1669 625 1647 q 703 1692 664 1692 q 760 1669 740 1692 q 779 1603 779 1647 q 760 1538 781 1560 q 703 1517 740 1517 z "},"Ď":{"ha":1340,"x_min":199,"x_max":1211,"o":"m 260 0 q 199 39 199 0 l 199 1347 q 214 1376 199 1367 q 260 1386 229 1386 l 540 1386 q 836 1338 710 1386 q 1046 1203 963 1289 q 1170 1005 1129 1117 q 1211 764 1211 893 q 1182 506 1211 624 q 1093 294 1153 388 q 943 134 1033 200 q 731 34 853 68 q 453 0 608 0 l 260 0 m 321 118 l 453 118 q 681 144 581 118 q 857 224 782 171 q 981 355 932 276 q 1055 535 1031 433 q 1079 764 1079 638 q 1044 967 1079 875 q 940 1126 1010 1058 q 771 1231 871 1193 q 540 1268 671 1268 l 321 1268 l 321 118 m 844 1763 q 876 1747 858 1763 q 893 1715 893 1731 q 892 1707 893 1713 q 885 1693 892 1701 l 690 1497 q 669 1479 681 1489 q 629 1469 657 1469 q 591 1479 603 1469 q 571 1497 579 1489 l 375 1693 q 367 1707 367 1701 q 367 1715 367 1713 q 384 1747 367 1731 q 415 1763 401 1763 q 432 1758 424 1763 q 450 1746 440 1753 l 629 1608 l 810 1746 q 828 1758 821 1753 q 844 1763 835 1763 z "},"Đ":{"ha":1307,"x_min":25,"x_max":1211,"o":"m 260 0 q 199 39 199 0 l 199 1347 q 214 1376 199 1367 q 260 1386 229 1386 l 540 1386 q 836 1338 710 1386 q 1046 1203 963 1289 q 1170 1005 1129 1117 q 1211 764 1211 893 q 1182 506 1211 624 q 1093 294 1153 388 q 943 134 1033 200 q 731 34 853 68 q 453 0 608 0 l 260 0 m 321 118 l 453 118 q 681 144 581 118 q 857 224 782 171 q 981 355 932 276 q 1055 535 1031 433 q 1079 764 1079 638 q 1044 967 1079 875 q 940 1126 1010 1058 q 771 1231 871 1193 q 540 1268 671 1268 l 321 1268 l 321 118 m 64 629 q 32 644 39 629 q 25 678 25 660 q 32 714 25 697 q 64 731 39 731 l 613 731 q 643 714 636 731 q 650 678 650 697 q 643 644 650 660 q 613 629 636 629 l 64 629 z "},"É":{"ha":1022,"x_min":199,"x_max":961,"o":"m 260 0 q 214 14 229 0 q 199 56 199 28 l 199 1347 q 214 1376 199 1367 q 260 1386 229 1386 l 922 1386 q 952 1374 943 1386 q 961 1331 961 1363 q 952 1288 961 1300 q 922 1275 943 1275 l 321 1275 l 321 789 l 826 789 q 856 777 847 789 q 864 733 864 765 q 856 690 864 703 q 826 678 847 678 l 321 678 l 321 111 l 922 111 q 952 99 943 111 q 961 56 961 88 q 952 13 961 25 q 922 0 943 0 l 260 0 m 529 1469 q 496 1488 514 1469 q 478 1521 478 1507 q 479 1532 478 1526 q 489 1546 481 1538 l 688 1747 q 701 1758 694 1754 q 715 1763 707 1763 q 746 1750 728 1763 q 777 1721 764 1738 q 790 1689 790 1704 q 787 1672 790 1679 q 769 1654 783 1665 l 556 1483 q 541 1474 547 1478 q 529 1469 535 1469 z "},"Ĕ":{"ha":1022,"x_min":199,"x_max":961,"o":"m 260 0 q 214 14 229 0 q 199 56 199 28 l 199 1347 q 214 1376 199 1367 q 260 1386 229 1386 l 922 1386 q 952 1374 943 1386 q 961 1331 961 1363 q 952 1288 961 1300 q 922 1275 943 1275 l 321 1275 l 321 789 l 826 789 q 856 777 847 789 q 864 733 864 765 q 856 690 864 703 q 826 678 847 678 l 321 678 l 321 111 l 922 111 q 952 99 943 111 q 961 56 961 88 q 952 13 961 25 q 922 0 943 0 l 260 0 m 596 1469 q 420 1532 488 1469 q 343 1721 353 1594 q 356 1749 342 1738 q 396 1761 369 1761 q 426 1751 418 1761 q 440 1721 435 1740 q 495 1625 458 1657 q 596 1593 532 1593 q 697 1625 660 1593 q 751 1721 735 1657 q 765 1751 757 1740 q 794 1761 772 1761 q 835 1749 821 1761 q 849 1721 850 1738 q 809 1585 843 1640 q 720 1499 775 1529 q 596 1469 665 1469 z "},"Ě":{"ha":1022,"x_min":199,"x_max":961,"o":"m 260 0 q 214 14 229 0 q 199 56 199 28 l 199 1347 q 214 1376 199 1367 q 260 1386 229 1386 l 922 1386 q 952 1374 943 1386 q 961 1331 961 1363 q 952 1288 961 1300 q 922 1275 943 1275 l 321 1275 l 321 789 l 826 789 q 856 777 847 789 q 864 733 864 765 q 856 690 864 703 q 826 678 847 678 l 321 678 l 321 111 l 922 111 q 952 99 943 111 q 961 56 961 88 q 952 13 961 25 q 922 0 943 0 l 260 0 m 811 1763 q 842 1747 825 1763 q 860 1715 860 1731 q 859 1707 860 1713 q 851 1693 858 1701 l 657 1497 q 635 1479 647 1489 q 596 1469 624 1469 q 558 1479 569 1469 q 538 1497 546 1489 l 342 1693 q 333 1707 333 1701 q 333 1715 333 1713 q 351 1747 333 1731 q 382 1763 368 1763 q 399 1758 390 1763 q 417 1746 407 1753 l 596 1608 l 776 1746 q 794 1758 788 1753 q 811 1763 801 1763 z "},"Ê":{"ha":1022,"x_min":199,"x_max":961,"o":"m 260 0 q 214 14 229 0 q 199 56 199 28 l 199 1347 q 214 1376 199 1367 q 260 1386 229 1386 l 922 1386 q 952 1374 943 1386 q 961 1331 961 1363 q 952 1288 961 1300 q 922 1275 943 1275 l 321 1275 l 321 789 l 826 789 q 856 777 847 789 q 864 733 864 765 q 856 690 864 703 q 826 678 847 678 l 321 678 l 321 111 l 922 111 q 952 99 943 111 q 961 56 961 88 q 952 13 961 25 q 922 0 943 0 l 260 0 m 382 1469 q 351 1486 368 1469 q 333 1517 333 1503 q 333 1526 333 1521 q 342 1539 333 1532 l 535 1735 q 557 1753 544 1744 q 596 1763 569 1763 q 634 1753 622 1763 q 656 1735 646 1744 l 851 1539 q 859 1526 858 1532 q 860 1517 860 1521 q 842 1486 860 1503 q 811 1469 825 1469 q 794 1474 801 1469 q 776 1488 788 1479 l 596 1624 l 417 1488 q 399 1474 407 1479 q 382 1469 390 1469 z "},"Ë":{"ha":1022,"x_min":199,"x_max":961,"o":"m 260 0 q 214 14 229 0 q 199 56 199 28 l 199 1347 q 214 1376 199 1367 q 260 1386 229 1386 l 922 1386 q 952 1374 943 1386 q 961 1331 961 1363 q 952 1288 961 1300 q 922 1275 943 1275 l 321 1275 l 321 789 l 826 789 q 856 777 847 789 q 864 733 864 765 q 856 690 864 703 q 826 678 847 678 l 321 678 l 321 111 l 922 111 q 952 99 943 111 q 961 56 961 88 q 952 13 961 25 q 922 0 943 0 l 260 0 m 425 1517 q 367 1538 386 1517 q 347 1604 347 1560 q 367 1670 347 1649 q 425 1692 386 1692 q 483 1670 464 1692 q 501 1604 501 1649 q 484 1538 504 1560 q 425 1517 464 1517 m 768 1517 q 710 1538 729 1517 q 690 1604 690 1560 q 710 1670 690 1649 q 768 1692 729 1692 q 825 1670 806 1692 q 844 1604 844 1649 q 826 1539 846 1561 q 768 1517 806 1517 z "},"Ė":{"ha":1022,"x_min":199,"x_max":961,"o":"m 260 0 q 214 14 229 0 q 199 56 199 28 l 199 1347 q 214 1376 199 1367 q 260 1386 229 1386 l 922 1386 q 952 1374 943 1386 q 961 1331 961 1363 q 952 1288 961 1300 q 922 1275 943 1275 l 321 1275 l 321 789 l 826 789 q 856 777 847 789 q 864 733 864 765 q 856 690 864 703 q 826 678 847 678 l 321 678 l 321 111 l 922 111 q 952 99 943 111 q 961 56 961 88 q 952 13 961 25 q 922 0 943 0 l 260 0 m 596 1517 q 538 1538 557 1517 q 518 1603 518 1560 q 538 1669 518 1647 q 596 1692 557 1692 q 653 1669 633 1692 q 672 1603 672 1647 q 653 1538 674 1560 q 596 1517 633 1517 z "},"È":{"ha":1022,"x_min":199,"x_max":961,"o":"m 260 0 q 214 14 229 0 q 199 56 199 28 l 199 1347 q 214 1376 199 1367 q 260 1386 229 1386 l 922 1386 q 952 1374 943 1386 q 961 1331 961 1363 q 952 1288 961 1300 q 922 1275 943 1275 l 321 1275 l 321 789 l 826 789 q 856 777 847 789 q 864 733 864 765 q 856 690 864 703 q 826 678 847 678 l 321 678 l 321 111 l 922 111 q 952 99 943 111 q 961 56 961 88 q 952 13 961 25 q 922 0 943 0 l 260 0 m 663 1469 q 651 1474 657 1469 q 636 1483 644 1478 l 424 1654 q 406 1672 410 1665 q 403 1689 403 1679 q 415 1721 403 1704 q 446 1750 428 1738 q 478 1763 464 1763 q 492 1758 486 1763 q 504 1747 499 1754 l 703 1546 q 714 1532 713 1538 q 715 1521 715 1526 q 697 1488 715 1507 q 663 1469 679 1469 z "},"Ē":{"ha":1022,"x_min":199,"x_max":961,"o":"m 260 0 q 214 14 229 0 q 199 56 199 28 l 199 1347 q 214 1376 199 1367 q 260 1386 229 1386 l 922 1386 q 952 1374 943 1386 q 961 1331 961 1363 q 952 1288 961 1300 q 922 1275 943 1275 l 321 1275 l 321 789 l 826 789 q 856 777 847 789 q 864 733 864 765 q 856 690 864 703 q 826 678 847 678 l 321 678 l 321 111 l 922 111 q 952 99 943 111 q 961 56 961 88 q 952 13 961 25 q 922 0 943 0 l 260 0 m 404 1556 q 374 1572 381 1556 q 367 1613 367 1588 q 374 1656 367 1639 q 404 1674 381 1674 l 788 1674 q 819 1656 813 1674 q 825 1613 825 1639 q 819 1572 825 1588 q 788 1556 813 1556 l 404 1556 z "},"Ę":{"ha":1022,"x_min":199,"x_max":989,"o":"m 260 0 q 214 14 229 0 q 199 56 199 28 l 199 1347 q 214 1376 199 1367 q 260 1386 229 1386 l 922 1386 q 952 1374 943 1386 q 961 1331 961 1363 q 952 1288 961 1300 q 922 1275 943 1275 l 321 1275 l 321 789 l 826 789 q 856 777 847 789 q 864 733 864 765 q 856 690 864 703 q 826 678 847 678 l 321 678 l 321 111 l 922 111 q 952 99 943 111 q 961 56 961 88 q 952 13 961 25 q 922 0 943 0 l 260 0 m 806 -360 q 712 -329 750 -360 q 674 -239 674 -299 q 686 -170 674 -203 q 723 -106 699 -137 q 783 -40 747 -74 q 865 32 818 -6 l 951 33 l 951 21 q 890 -34 919 -6 q 837 -91 861 -62 q 798 -147 813 -119 q 783 -200 783 -175 q 797 -242 783 -228 q 831 -256 810 -256 q 871 -244 853 -256 q 914 -211 889 -233 q 937 -203 924 -204 q 965 -214 950 -201 q 984 -244 979 -226 q 982 -274 989 -262 q 933 -321 964 -301 q 867 -350 901 -340 q 806 -360 833 -360 z "},"Ế":{"ha":1022,"x_min":199,"x_max":1067,"o":"m 260 0 q 214 14 229 0 q 199 56 199 28 l 199 1347 q 214 1376 199 1367 q 260 1386 229 1386 l 922 1386 q 952 1374 943 1386 q 961 1331 961 1363 q 952 1288 961 1300 q 922 1275 943 1275 l 321 1275 l 321 789 l 826 789 q 856 777 847 789 q 864 733 864 765 q 856 690 864 703 q 826 678 847 678 l 321 678 l 321 111 l 922 111 q 952 99 943 111 q 961 56 961 88 q 952 13 961 25 q 922 0 943 0 l 260 0 m 382 1469 q 351 1486 368 1469 q 333 1517 333 1503 q 333 1526 333 1521 q 342 1539 333 1532 l 535 1735 q 557 1753 544 1744 q 596 1763 569 1763 q 634 1753 622 1763 q 656 1735 646 1744 l 851 1539 q 859 1526 858 1532 q 860 1517 860 1521 q 842 1486 860 1503 q 811 1469 825 1469 q 794 1474 801 1469 q 776 1488 788 1479 l 596 1624 l 417 1488 q 399 1474 407 1479 q 382 1469 390 1469 m 817 1690 q 783 1709 801 1690 q 765 1742 765 1728 q 767 1752 765 1747 q 776 1767 768 1757 l 965 1954 q 978 1967 972 1963 q 993 1971 985 1971 q 1024 1958 1007 1971 q 1054 1928 1042 1946 q 1067 1897 1067 1911 q 1064 1881 1067 1888 q 1046 1863 1061 1875 l 843 1704 q 828 1694 835 1699 q 817 1690 822 1690 z "},"Ệ":{"ha":1022,"x_min":199,"x_max":961,"o":"m 260 0 q 214 14 229 0 q 199 56 199 28 l 199 1347 q 214 1376 199 1367 q 260 1386 229 1386 l 922 1386 q 952 1374 943 1386 q 961 1331 961 1363 q 952 1288 961 1300 q 922 1275 943 1275 l 321 1275 l 321 789 l 826 789 q 856 777 847 789 q 864 733 864 765 q 856 690 864 703 q 826 678 847 678 l 321 678 l 321 111 l 922 111 q 952 99 943 111 q 961 56 961 88 q 952 13 961 25 q 922 0 943 0 l 260 0 m 567 -326 q 508 -305 528 -326 q 489 -239 489 -283 q 508 -173 489 -194 q 567 -151 528 -151 q 624 -173 604 -151 q 643 -239 643 -194 q 624 -305 644 -283 q 567 -326 604 -326 m 382 1469 q 351 1486 368 1469 q 333 1517 333 1503 q 333 1526 333 1521 q 342 1539 333 1532 l 535 1735 q 557 1753 544 1744 q 596 1763 569 1763 q 634 1753 622 1763 q 656 1735 646 1744 l 851 1539 q 859 1526 858 1532 q 860 1517 860 1521 q 842 1486 860 1503 q 811 1469 825 1469 q 794 1474 801 1469 q 776 1488 788 1479 l 596 1624 l 417 1488 q 399 1474 407 1479 q 382 1469 390 1469 z "},"Ề":{"ha":1022,"x_min":199,"x_max":961,"o":"m 260 0 q 214 14 229 0 q 199 56 199 28 l 199 1347 q 214 1376 199 1367 q 260 1386 229 1386 l 922 1386 q 952 1374 943 1386 q 961 1331 961 1363 q 952 1288 961 1300 q 922 1275 943 1275 l 321 1275 l 321 789 l 826 789 q 856 777 847 789 q 864 733 864 765 q 856 690 864 703 q 826 678 847 678 l 321 678 l 321 111 l 922 111 q 952 99 943 111 q 961 56 961 88 q 952 13 961 25 q 922 0 943 0 l 260 0 m 382 1469 q 351 1486 368 1469 q 333 1517 333 1503 q 333 1526 333 1521 q 342 1539 333 1532 l 535 1735 q 557 1753 544 1744 q 596 1763 569 1763 q 634 1753 622 1763 q 656 1735 646 1744 l 851 1539 q 859 1526 858 1532 q 860 1517 860 1521 q 842 1486 860 1503 q 811 1469 825 1469 q 794 1474 801 1469 q 776 1488 788 1479 l 596 1624 l 417 1488 q 399 1474 407 1479 q 382 1469 390 1469 m 904 1669 q 892 1673 899 1669 q 878 1683 886 1676 l 681 1865 q 663 1884 667 1878 q 660 1900 660 1890 q 673 1931 660 1914 q 704 1960 686 1949 q 736 1972 722 1972 q 751 1968 744 1972 q 764 1957 757 1964 l 944 1746 q 954 1731 951 1736 q 957 1721 957 1726 q 939 1688 957 1707 q 904 1669 921 1669 z "},"Ể":{"ha":1022,"x_min":199,"x_max":1000,"o":"m 260 0 q 214 14 229 0 q 199 56 199 28 l 199 1347 q 214 1376 199 1367 q 260 1386 229 1386 l 922 1386 q 952 1374 943 1386 q 961 1331 961 1363 q 952 1288 961 1300 q 922 1275 943 1275 l 321 1275 l 321 789 l 826 789 q 856 777 847 789 q 864 733 864 765 q 856 690 864 703 q 826 678 847 678 l 321 678 l 321 111 l 922 111 q 952 99 943 111 q 961 56 961 88 q 952 13 961 25 q 922 0 943 0 l 260 0 m 382 1469 q 351 1486 368 1469 q 333 1517 333 1503 q 333 1526 333 1521 q 342 1539 333 1532 l 535 1735 q 557 1753 544 1744 q 596 1763 569 1763 q 634 1753 622 1763 q 656 1735 646 1744 l 851 1539 q 859 1526 858 1532 q 860 1517 860 1521 q 842 1486 860 1503 q 811 1469 825 1469 q 794 1474 801 1469 q 776 1488 788 1479 l 596 1624 l 417 1488 q 399 1474 407 1479 q 382 1469 390 1469 m 849 1989 q 958 1956 917 1989 q 1000 1868 1000 1924 q 984 1806 1000 1833 q 929 1750 968 1779 q 904 1725 911 1736 q 900 1700 897 1714 l 901 1690 q 894 1664 906 1675 q 864 1649 882 1653 q 830 1649 846 1644 q 807 1667 814 1653 l 792 1704 q 792 1763 781 1736 q 835 1813 804 1790 q 862 1838 854 1826 q 869 1860 869 1849 q 858 1879 869 1871 q 826 1888 846 1888 q 785 1882 807 1888 q 751 1867 763 1876 q 692 1889 718 1846 q 700 1943 676 1921 q 769 1976 729 1964 q 849 1989 808 1989 z "},"Ễ":{"ha":1022,"x_min":199,"x_max":961,"o":"m 260 0 q 214 14 229 0 q 199 56 199 28 l 199 1347 q 214 1376 199 1367 q 260 1386 229 1386 l 922 1386 q 952 1374 943 1386 q 961 1331 961 1363 q 952 1288 961 1300 q 922 1275 943 1275 l 321 1275 l 321 789 l 826 789 q 856 777 847 789 q 864 733 864 765 q 856 690 864 703 q 826 678 847 678 l 321 678 l 321 111 l 922 111 q 952 99 943 111 q 961 56 961 88 q 952 13 961 25 q 922 0 943 0 l 260 0 m 382 1469 q 351 1486 368 1469 q 333 1517 333 1503 q 333 1526 333 1521 q 342 1539 333 1532 l 535 1735 q 557 1753 544 1744 q 596 1763 569 1763 q 634 1753 622 1763 q 656 1735 646 1744 l 851 1539 q 859 1526 858 1532 q 860 1517 860 1521 q 842 1486 860 1503 q 811 1469 825 1469 q 794 1474 801 1469 q 776 1488 788 1479 l 596 1624 l 417 1488 q 399 1474 407 1479 q 382 1469 390 1469 m 389 1778 q 342 1814 342 1778 q 378 1947 344 1903 q 478 1990 413 1990 q 554 1975 521 1990 q 615 1940 588 1960 q 667 1904 643 1919 q 714 1889 692 1889 q 744 1910 733 1889 q 756 1963 754 1931 q 803 1993 758 1993 q 842 1983 831 1993 q 853 1954 853 1974 q 818 1824 851 1868 q 715 1779 785 1779 q 639 1794 674 1779 q 576 1830 604 1810 q 525 1866 549 1850 q 479 1882 501 1882 q 451 1865 461 1882 q 439 1814 442 1849 q 425 1787 438 1796 q 389 1778 413 1778 z "},"Ẹ":{"ha":1022,"x_min":199,"x_max":961,"o":"m 260 0 q 214 14 229 0 q 199 56 199 28 l 199 1347 q 214 1376 199 1367 q 260 1386 229 1386 l 922 1386 q 952 1374 943 1386 q 961 1331 961 1363 q 952 1288 961 1300 q 922 1275 943 1275 l 321 1275 l 321 789 l 826 789 q 856 777 847 789 q 864 733 864 765 q 856 690 864 703 q 826 678 847 678 l 321 678 l 321 111 l 922 111 q 952 99 943 111 q 961 56 961 88 q 952 13 961 25 q 922 0 943 0 l 260 0 m 567 -326 q 508 -305 528 -326 q 489 -239 489 -283 q 508 -173 489 -194 q 567 -151 528 -151 q 624 -173 604 -151 q 643 -239 643 -194 q 624 -305 644 -283 q 567 -326 604 -326 z "},"Ẻ":{"ha":1022,"x_min":199,"x_max":961,"o":"m 260 0 q 214 14 229 0 q 199 56 199 28 l 199 1347 q 214 1376 199 1367 q 260 1386 229 1386 l 922 1386 q 952 1374 943 1386 q 961 1331 961 1363 q 952 1288 961 1300 q 922 1275 943 1275 l 321 1275 l 321 789 l 826 789 q 856 777 847 789 q 864 733 864 765 q 856 690 864 703 q 826 678 847 678 l 321 678 l 321 111 l 922 111 q 952 99 943 111 q 961 56 961 88 q 952 13 961 25 q 922 0 943 0 l 260 0 m 611 1800 q 721 1767 679 1800 q 763 1679 763 1735 q 747 1617 763 1644 q 692 1561 731 1590 q 667 1536 674 1547 q 663 1511 660 1525 l 664 1501 q 656 1475 668 1486 q 626 1460 644 1464 q 592 1460 608 1456 q 569 1478 576 1464 l 554 1515 q 555 1574 543 1547 q 597 1624 567 1601 q 624 1649 617 1638 q 632 1671 632 1660 q 620 1690 632 1682 q 589 1699 608 1699 q 547 1693 569 1699 q 513 1678 525 1688 q 454 1700 479 1657 q 463 1754 438 1732 q 531 1788 492 1775 q 611 1800 571 1800 z "},"Ẽ":{"ha":1022,"x_min":199,"x_max":961,"o":"m 260 0 q 214 14 229 0 q 199 56 199 28 l 199 1347 q 214 1376 199 1367 q 260 1386 229 1386 l 922 1386 q 952 1374 943 1386 q 961 1331 961 1363 q 952 1288 961 1300 q 922 1275 943 1275 l 321 1275 l 321 789 l 826 789 q 856 777 847 789 q 864 733 864 765 q 856 690 864 703 q 826 678 847 678 l 321 678 l 321 111 l 922 111 q 952 99 943 111 q 961 56 961 88 q 952 13 961 25 q 922 0 943 0 l 260 0 m 385 1510 q 338 1546 338 1510 q 373 1678 339 1635 q 474 1722 407 1722 q 549 1706 515 1722 q 611 1671 583 1690 q 663 1635 639 1651 q 710 1619 686 1619 q 738 1641 728 1619 q 751 1694 749 1663 q 799 1725 753 1725 q 837 1715 825 1725 q 849 1686 849 1706 q 813 1556 847 1600 q 711 1511 779 1511 q 635 1526 669 1511 q 572 1562 600 1542 q 519 1598 543 1582 q 475 1614 496 1614 q 447 1597 456 1614 q 435 1546 438 1581 q 421 1519 433 1528 q 385 1510 408 1510 z "},"Ğ":{"ha":1349,"x_min":128,"x_max":1210,"o":"m 683 -26 q 458 27 560 -25 q 282 174 356 79 q 168 400 208 269 q 128 688 128 531 q 147 888 128 793 q 201 1063 165 982 q 288 1207 236 1143 q 406 1317 340 1271 q 549 1386 471 1363 q 715 1410 628 1410 q 857 1394 788 1410 q 989 1338 926 1378 q 1101 1225 1051 1299 q 1108 1196 1114 1208 q 1086 1169 1103 1183 q 1053 1149 1067 1153 q 1025 1160 1039 1146 q 936 1232 983 1203 q 834 1276 889 1261 q 715 1292 779 1292 q 590 1273 650 1292 q 479 1219 531 1254 q 388 1131 428 1183 q 318 1012 347 1079 q 274 864 289 944 q 258 688 258 783 q 291 436 258 547 q 381 248 324 325 q 517 131 439 171 q 683 92 594 92 q 821 112 758 92 q 931 172 883 132 q 1013 276 979 213 q 1065 427 1047 340 q 1085 626 1083 514 l 728 626 q 698 639 707 626 q 689 682 689 651 q 698 726 689 714 q 728 738 707 738 l 1171 738 q 1201 726 1192 738 q 1210 683 1210 714 q 1169 357 1210 492 q 1057 138 1129 222 q 889 13 985 53 q 683 -26 793 -26 m 694 1469 q 519 1532 586 1469 q 442 1721 451 1594 q 454 1749 440 1738 q 494 1761 468 1761 q 525 1751 517 1761 q 539 1721 533 1740 q 594 1625 557 1657 q 694 1593 631 1593 q 796 1625 758 1593 q 850 1721 833 1657 q 863 1751 856 1740 q 893 1761 871 1761 q 934 1749 919 1761 q 947 1721 949 1738 q 908 1585 942 1640 q 819 1499 874 1529 q 694 1469 764 1469 z "},"Ĝ":{"ha":1349,"x_min":128,"x_max":1210,"o":"m 683 -26 q 458 27 560 -25 q 282 174 356 79 q 168 400 208 269 q 128 688 128 531 q 147 888 128 793 q 201 1063 165 982 q 288 1207 236 1143 q 406 1317 340 1271 q 549 1386 471 1363 q 715 1410 628 1410 q 857 1394 788 1410 q 989 1338 926 1378 q 1101 1225 1051 1299 q 1108 1196 1114 1208 q 1086 1169 1103 1183 q 1053 1149 1067 1153 q 1025 1160 1039 1146 q 936 1232 983 1203 q 834 1276 889 1261 q 715 1292 779 1292 q 590 1273 650 1292 q 479 1219 531 1254 q 388 1131 428 1183 q 318 1012 347 1079 q 274 864 289 944 q 258 688 258 783 q 291 436 258 547 q 381 248 324 325 q 517 131 439 171 q 683 92 594 92 q 821 112 758 92 q 931 172 883 132 q 1013 276 979 213 q 1065 427 1047 340 q 1085 626 1083 514 l 728 626 q 698 639 707 626 q 689 682 689 651 q 698 726 689 714 q 728 738 707 738 l 1171 738 q 1201 726 1192 738 q 1210 683 1210 714 q 1169 357 1210 492 q 1057 138 1129 222 q 889 13 985 53 q 683 -26 793 -26 m 481 1469 q 449 1486 467 1469 q 432 1517 432 1503 q 432 1526 432 1521 q 440 1539 432 1532 l 633 1735 q 656 1753 643 1744 q 694 1763 668 1763 q 733 1753 721 1763 q 754 1735 744 1744 l 950 1539 q 958 1526 957 1532 q 958 1517 958 1521 q 941 1486 958 1503 q 910 1469 924 1469 q 893 1474 900 1469 q 875 1488 886 1479 l 694 1624 l 515 1488 q 497 1474 506 1479 q 481 1469 489 1469 z "},"Ģ":{"ha":1349,"x_min":128,"x_max":1210,"o":"m 683 -26 q 458 27 560 -25 q 282 174 356 79 q 168 400 208 269 q 128 688 128 531 q 147 888 128 793 q 201 1063 165 982 q 288 1207 236 1143 q 406 1317 340 1271 q 549 1386 471 1363 q 715 1410 628 1410 q 857 1394 788 1410 q 989 1338 926 1378 q 1101 1225 1051 1299 q 1108 1196 1114 1208 q 1086 1169 1103 1183 q 1053 1149 1067 1153 q 1025 1160 1039 1146 q 936 1232 983 1203 q 834 1276 889 1261 q 715 1292 779 1292 q 590 1273 650 1292 q 479 1219 531 1254 q 388 1131 428 1183 q 318 1012 347 1079 q 274 864 289 944 q 258 688 258 783 q 291 436 258 547 q 381 248 324 325 q 517 131 439 171 q 683 92 594 92 q 821 112 758 92 q 931 172 883 132 q 1013 276 979 213 q 1065 427 1047 340 q 1085 626 1083 514 l 728 626 q 698 639 707 626 q 689 682 689 651 q 698 726 689 714 q 728 738 707 738 l 1171 738 q 1201 726 1192 738 q 1210 683 1210 714 q 1169 357 1210 492 q 1057 138 1129 222 q 889 13 985 53 q 683 -26 793 -26 m 596 -411 q 575 -392 579 -404 q 579 -361 571 -381 q 604 -285 596 -318 q 615 -220 613 -253 q 617 -146 617 -187 q 630 -112 617 -122 q 669 -103 643 -103 q 719 -118 701 -103 q 736 -160 736 -133 q 726 -235 736 -194 q 699 -315 717 -275 q 660 -389 682 -356 q 632 -415 646 -411 q 596 -411 618 -419 z "},"Ġ":{"ha":1349,"x_min":128,"x_max":1210,"o":"m 683 -26 q 458 27 560 -25 q 282 174 356 79 q 168 400 208 269 q 128 688 128 531 q 147 888 128 793 q 201 1063 165 982 q 288 1207 236 1143 q 406 1317 340 1271 q 549 1386 471 1363 q 715 1410 628 1410 q 857 1394 788 1410 q 989 1338 926 1378 q 1101 1225 1051 1299 q 1108 1196 1114 1208 q 1086 1169 1103 1183 q 1053 1149 1067 1153 q 1025 1160 1039 1146 q 936 1232 983 1203 q 834 1276 889 1261 q 715 1292 779 1292 q 590 1273 650 1292 q 479 1219 531 1254 q 388 1131 428 1183 q 318 1012 347 1079 q 274 864 289 944 q 258 688 258 783 q 291 436 258 547 q 381 248 324 325 q 517 131 439 171 q 683 92 594 92 q 821 112 758 92 q 931 172 883 132 q 1013 276 979 213 q 1065 427 1047 340 q 1085 626 1083 514 l 728 626 q 698 639 707 626 q 689 682 689 651 q 698 726 689 714 q 728 738 707 738 l 1171 738 q 1201 726 1192 738 q 1210 683 1210 714 q 1169 357 1210 492 q 1057 138 1129 222 q 889 13 985 53 q 683 -26 793 -26 m 694 1517 q 636 1538 656 1517 q 617 1603 617 1560 q 636 1669 617 1647 q 694 1692 656 1692 q 751 1669 732 1692 q 771 1603 771 1647 q 752 1538 772 1560 q 694 1517 732 1517 z "},"Ħ":{"ha":1368,"x_min":57,"x_max":1314,"o":"m 260 -19 q 199 19 199 -19 l 199 1372 q 214 1401 199 1392 q 260 1410 229 1410 q 321 1372 321 1410 l 321 782 l 1047 782 l 1047 1372 q 1063 1401 1047 1392 q 1108 1410 1078 1410 q 1169 1372 1169 1410 l 1169 19 q 1154 -10 1169 0 q 1108 -19 1139 -19 q 1047 19 1047 -19 l 1047 671 l 321 671 l 321 19 q 306 -10 321 0 q 260 -19 290 -19 m 94 1017 q 63 1031 69 1017 q 57 1068 57 1044 q 63 1109 57 1094 q 94 1124 69 1124 l 1275 1124 q 1307 1109 1300 1124 q 1314 1068 1314 1094 q 1307 1031 1314 1044 q 1275 1017 1300 1017 l 94 1017 z "},"Ĥ":{"ha":1368,"x_min":199,"x_max":1169,"o":"m 260 -19 q 199 19 199 -19 l 199 1372 q 214 1401 199 1392 q 260 1410 229 1410 q 321 1372 321 1410 l 321 782 l 1047 782 l 1047 1372 q 1063 1401 1047 1392 q 1108 1410 1078 1410 q 1169 1372 1169 1410 l 1169 19 q 1154 -10 1169 0 q 1108 -19 1139 -19 q 1047 19 1047 -19 l 1047 671 l 321 671 l 321 19 q 306 -10 321 0 q 260 -19 290 -19 m 471 1469 q 440 1486 457 1469 q 422 1517 422 1503 q 422 1526 422 1521 q 431 1539 422 1532 l 624 1735 q 646 1753 633 1744 q 685 1763 658 1763 q 723 1753 711 1763 q 744 1735 735 1744 l 940 1539 q 948 1526 947 1532 q 949 1517 949 1521 q 931 1486 949 1503 q 900 1469 914 1469 q 883 1474 890 1469 q 865 1488 876 1479 l 685 1624 l 506 1488 q 488 1474 496 1479 q 471 1469 479 1469 z "},"Í":{"ha":521,"x_min":142,"x_max":454,"o":"m 261 -19 q 215 -10 231 -19 q 200 19 200 0 l 200 1372 q 215 1401 200 1392 q 261 1410 231 1410 q 306 1401 290 1410 q 321 1372 321 1392 l 321 19 q 306 -10 321 0 q 261 -19 290 -19 m 193 1469 q 160 1488 178 1469 q 142 1521 142 1507 q 143 1532 142 1526 q 153 1546 144 1538 l 351 1747 q 365 1758 358 1754 q 379 1763 371 1763 q 410 1750 392 1763 q 441 1721 428 1738 q 454 1689 454 1704 q 451 1672 454 1679 q 433 1654 447 1665 l 219 1483 q 205 1474 211 1478 q 193 1469 199 1469 z "},"Ĭ":{"ha":521,"x_min":6,"x_max":514,"o":"m 261 -19 q 215 -10 231 -19 q 200 19 200 0 l 200 1372 q 215 1401 200 1392 q 261 1410 231 1410 q 306 1401 290 1410 q 321 1372 321 1392 l 321 19 q 306 -10 321 0 q 261 -19 290 -19 m 260 1469 q 84 1532 151 1469 q 7 1721 17 1594 q 19 1749 6 1738 q 60 1761 33 1761 q 90 1751 82 1761 q 104 1721 99 1740 q 159 1625 122 1657 q 260 1593 196 1593 q 361 1625 324 1593 q 415 1721 399 1657 q 428 1751 421 1740 q 458 1761 436 1761 q 499 1749 485 1761 q 513 1721 514 1738 q 473 1585 507 1640 q 384 1499 439 1529 q 260 1469 329 1469 z "},"Ǐ":{"ha":521,"x_min":-3,"x_max":524,"o":"m 261 -19 q 215 -10 231 -19 q 200 19 200 0 l 200 1372 q 215 1401 200 1392 q 261 1410 231 1410 q 306 1401 290 1410 q 321 1372 321 1392 l 321 19 q 306 -10 321 0 q 261 -19 290 -19 m 475 1763 q 506 1747 489 1763 q 524 1715 524 1731 q 523 1707 524 1713 q 515 1693 522 1701 l 321 1497 q 299 1479 311 1489 q 260 1469 288 1469 q 222 1479 233 1469 q 201 1497 210 1489 l 6 1693 q -3 1707 -3 1701 q -3 1715 -3 1713 q 15 1747 -3 1731 q 46 1763 32 1763 q 63 1758 54 1763 q 81 1746 71 1753 l 260 1608 l 440 1746 q 458 1758 451 1753 q 475 1763 465 1763 z "},"Î":{"ha":521,"x_min":-3,"x_max":524,"o":"m 261 -19 q 215 -10 231 -19 q 200 19 200 0 l 200 1372 q 215 1401 200 1392 q 261 1410 231 1410 q 306 1401 290 1410 q 321 1372 321 1392 l 321 19 q 306 -10 321 0 q 261 -19 290 -19 m 46 1469 q 15 1486 32 1469 q -3 1517 -3 1503 q -3 1526 -3 1521 q 6 1539 -3 1532 l 199 1735 q 221 1753 208 1744 q 260 1763 233 1763 q 298 1753 286 1763 q 319 1735 310 1744 l 515 1539 q 523 1526 522 1532 q 524 1517 524 1521 q 506 1486 524 1503 q 475 1469 489 1469 q 458 1474 465 1469 q 440 1488 451 1479 l 260 1624 l 81 1488 q 63 1474 71 1479 q 46 1469 54 1469 z "},"Ï":{"ha":521,"x_min":13,"x_max":510,"o":"m 261 -19 q 215 -10 231 -19 q 200 19 200 0 l 200 1372 q 215 1401 200 1392 q 261 1410 231 1410 q 306 1401 290 1410 q 321 1372 321 1392 l 321 19 q 306 -10 321 0 q 261 -19 290 -19 m 89 1517 q 31 1538 50 1517 q 11 1604 11 1560 q 31 1670 11 1649 q 89 1692 50 1692 q 147 1670 128 1692 q 165 1604 165 1649 q 148 1538 168 1560 q 89 1517 128 1517 m 432 1517 q 374 1538 393 1517 q 354 1604 354 1560 q 374 1670 354 1649 q 432 1692 393 1692 q 489 1670 469 1692 q 508 1604 508 1649 q 490 1539 510 1561 q 432 1517 469 1517 z "},"İ":{"ha":521,"x_min":182,"x_max":338,"o":"m 261 -19 q 215 -10 231 -19 q 200 19 200 0 l 200 1372 q 215 1401 200 1392 q 261 1410 231 1410 q 306 1401 290 1410 q 321 1372 321 1392 l 321 19 q 306 -10 321 0 q 261 -19 290 -19 m 260 1517 q 201 1538 221 1517 q 182 1603 182 1560 q 201 1669 182 1647 q 260 1692 221 1692 q 317 1669 297 1692 q 336 1603 336 1647 q 317 1538 338 1560 q 260 1517 297 1517 z "},"Ì":{"ha":521,"x_min":67,"x_max":381,"o":"m 261 -19 q 215 -10 231 -19 q 200 19 200 0 l 200 1372 q 215 1401 200 1392 q 261 1410 231 1410 q 306 1401 290 1410 q 321 1372 321 1392 l 321 19 q 306 -10 321 0 q 261 -19 290 -19 m 326 1469 q 315 1474 321 1469 q 300 1483 308 1478 l 88 1654 q 70 1672 74 1665 q 67 1689 67 1679 q 79 1721 67 1704 q 110 1750 92 1738 q 142 1763 128 1763 q 156 1758 150 1763 q 168 1747 163 1754 l 367 1546 q 378 1532 376 1538 q 379 1521 379 1526 q 361 1488 379 1507 q 326 1469 343 1469 z "},"Ī":{"ha":521,"x_min":31,"x_max":490,"o":"m 261 -19 q 215 -10 231 -19 q 200 19 200 0 l 200 1372 q 215 1401 200 1392 q 261 1410 231 1410 q 306 1401 290 1410 q 321 1372 321 1392 l 321 19 q 306 -10 321 0 q 261 -19 290 -19 m 68 1556 q 38 1572 44 1556 q 31 1613 31 1588 q 38 1656 31 1639 q 68 1674 44 1674 l 451 1674 q 483 1656 476 1674 q 489 1613 489 1639 q 483 1572 489 1588 q 451 1556 476 1556 l 68 1556 z "},"Į":{"ha":521,"x_min":35,"x_max":350,"o":"m 261 -19 q 215 -10 231 -19 q 200 19 200 0 l 200 1372 q 215 1401 200 1392 q 261 1410 231 1410 q 306 1401 290 1410 q 321 1372 321 1392 l 321 19 q 306 -10 321 0 q 261 -19 290 -19 m 167 -371 q 73 -340 111 -371 q 35 -250 35 -310 q 47 -181 35 -214 q 84 -117 60 -149 q 144 -51 108 -85 q 226 21 179 -17 l 313 22 l 313 10 q 251 -45 281 -17 q 198 -102 222 -74 q 159 -158 174 -131 q 144 -211 144 -186 q 158 -253 144 -239 q 192 -267 171 -267 q 232 -256 214 -267 q 275 -222 250 -244 q 298 -214 285 -215 q 326 -225 311 -212 q 345 -256 340 -237 q 343 -285 350 -274 q 294 -332 325 -312 q 228 -361 263 -351 q 167 -371 194 -371 z "},"Ĩ":{"ha":521,"x_min":1,"x_max":513,"o":"m 261 -19 q 215 -10 231 -19 q 200 19 200 0 l 200 1372 q 215 1401 200 1392 q 261 1410 231 1410 q 306 1401 290 1410 q 321 1372 321 1392 l 321 19 q 306 -10 321 0 q 261 -19 290 -19 m 49 1510 q 1 1546 1 1510 q 37 1678 3 1635 q 138 1722 71 1722 q 213 1706 179 1722 q 275 1671 247 1690 q 326 1635 303 1651 q 374 1619 350 1619 q 402 1641 392 1619 q 415 1694 413 1663 q 463 1725 417 1725 q 501 1715 489 1725 q 513 1686 513 1706 q 477 1556 511 1600 q 375 1511 443 1511 q 299 1526 333 1511 q 235 1562 264 1542 q 183 1598 207 1582 q 139 1614 160 1614 q 110 1597 119 1614 q 99 1546 101 1581 q 85 1519 97 1528 q 49 1510 72 1510 z "},"Ị":{"ha":521,"x_min":182,"x_max":338,"o":"m 261 -19 q 215 -10 231 -19 q 200 19 200 0 l 200 1372 q 215 1401 200 1392 q 261 1410 231 1410 q 306 1401 290 1410 q 321 1372 321 1392 l 321 19 q 306 -10 321 0 q 261 -19 290 -19 m 260 -326 q 201 -305 221 -326 q 182 -239 182 -283 q 201 -173 182 -194 q 260 -151 221 -151 q 317 -173 297 -151 q 336 -239 336 -194 q 317 -305 338 -283 q 260 -326 297 -326 z "},"Ỉ":{"ha":521,"x_min":103,"x_max":426,"o":"m 261 -19 q 215 -10 231 -19 q 200 19 200 0 l 200 1372 q 215 1401 200 1392 q 261 1410 231 1410 q 306 1401 290 1410 q 321 1372 321 1392 l 321 19 q 306 -10 321 0 q 261 -19 290 -19 m 275 1800 q 385 1767 343 1800 q 426 1679 426 1735 q 410 1617 426 1644 q 356 1561 394 1590 q 331 1536 338 1547 q 326 1511 324 1525 l 328 1501 q 320 1475 332 1486 q 290 1460 308 1464 q 256 1460 272 1456 q 233 1478 240 1464 l 218 1515 q 219 1574 207 1547 q 261 1624 231 1601 q 288 1649 281 1638 q 296 1671 296 1660 q 284 1690 296 1682 q 253 1699 272 1699 q 211 1693 233 1699 q 176 1678 189 1688 q 118 1700 143 1657 q 126 1754 101 1732 q 195 1788 156 1775 q 275 1800 235 1800 z "},"Ĵ":{"ha":1001,"x_min":57,"x_max":1035,"o":"m 450 -26 q 281 6 357 -26 q 149 100 204 38 q 64 254 94 163 q 69 288 57 276 q 101 306 81 299 q 139 312 122 314 q 163 289 156 310 q 227 178 192 222 q 316 113 263 135 q 450 92 369 92 q 538 104 497 92 q 610 142 578 117 q 664 208 642 168 q 698 301 686 247 q 710 422 710 354 l 710 1372 q 725 1401 710 1392 q 771 1410 740 1410 q 817 1401 801 1410 q 832 1372 832 1392 l 832 422 q 815 266 832 336 q 765 141 797 196 q 685 49 732 86 q 579 -8 638 11 q 450 -26 521 -26 m 557 1469 q 526 1486 543 1469 q 508 1517 508 1503 q 508 1526 508 1521 q 517 1539 508 1532 l 710 1735 q 732 1753 719 1744 q 771 1763 744 1763 q 809 1753 797 1763 q 831 1735 821 1744 l 1026 1539 q 1034 1526 1033 1532 q 1035 1517 1035 1521 q 1017 1486 1035 1503 q 986 1469 1000 1469 q 969 1474 976 1469 q 951 1488 963 1479 l 771 1624 l 592 1488 q 574 1474 582 1479 q 557 1469 565 1469 z "},"Ķ":{"ha":1060,"x_min":199,"x_max":1039,"o":"m 260 -19 q 214 -10 229 -19 q 199 21 199 0 l 199 1372 q 260 1410 199 1410 q 321 1372 321 1410 l 321 796 l 932 1397 q 965 1410 949 1415 q 999 1386 981 1406 q 1019 1349 1018 1364 q 1007 1321 1019 1335 l 411 731 q 621 472 521 590 q 819 255 721 353 q 1017 75 917 157 q 1035 42 1032 64 q 1013 -6 1039 21 q 975 -23 994 -22 q 935 -7 956 -24 q 769 142 851 61 q 608 313 686 224 q 457 492 529 401 q 321 672 385 583 l 321 21 q 306 -10 321 0 q 260 -19 292 -19 m 508 -411 q 488 -392 492 -404 q 492 -361 483 -381 q 517 -285 508 -318 q 527 -220 525 -253 q 529 -146 529 -187 q 542 -112 529 -122 q 582 -103 556 -103 q 631 -118 614 -103 q 649 -160 649 -133 q 639 -235 649 -194 q 612 -315 629 -275 q 572 -389 594 -356 q 544 -415 558 -411 q 508 -411 531 -419 z "},"Ĺ":{"ha":964,"x_min":142,"x_max":925,"o":"m 260 0 q 199 56 199 0 l 199 1372 q 214 1401 199 1392 q 260 1410 229 1410 q 306 1401 290 1410 q 321 1372 321 1392 l 321 111 l 888 111 q 917 99 908 111 q 925 56 925 88 q 917 13 925 25 q 888 0 908 0 l 260 0 m 193 1469 q 160 1488 178 1469 q 142 1521 142 1507 q 143 1532 142 1526 q 153 1546 144 1538 l 351 1747 q 365 1758 358 1754 q 379 1763 371 1763 q 410 1750 392 1763 q 441 1721 428 1738 q 454 1689 454 1704 q 451 1672 454 1679 q 433 1654 447 1665 l 219 1483 q 205 1474 211 1478 q 193 1469 199 1469 z "},"Ľ":{"ha":964,"x_min":199,"x_max":925,"o":"m 260 0 q 199 56 199 0 l 199 1372 q 214 1401 199 1392 q 260 1410 229 1410 q 306 1401 290 1410 q 321 1372 321 1392 l 321 111 l 888 111 q 917 99 908 111 q 925 56 925 88 q 917 13 925 25 q 888 0 908 0 l 260 0 m 490 1074 q 458 1092 467 1082 q 456 1119 450 1101 q 473 1197 465 1150 q 486 1294 481 1244 q 493 1378 492 1343 q 506 1403 493 1393 q 553 1413 519 1413 q 603 1403 588 1413 q 618 1378 618 1393 q 606 1287 617 1340 q 578 1180 594 1233 q 544 1088 563 1126 q 530 1071 539 1078 q 490 1074 521 1064 z "},"Ļ":{"ha":964,"x_min":199,"x_max":925,"o":"m 260 0 q 199 56 199 0 l 199 1372 q 214 1401 199 1392 q 260 1410 229 1410 q 306 1401 290 1410 q 321 1372 321 1392 l 321 111 l 888 111 q 917 99 908 111 q 925 56 925 88 q 917 13 925 25 q 888 0 908 0 l 260 0 m 499 -411 q 478 -392 482 -404 q 482 -361 474 -381 q 507 -285 499 -318 q 517 -220 515 -253 q 519 -146 519 -187 q 533 -112 519 -122 q 572 -103 546 -103 q 622 -118 604 -103 q 639 -160 639 -133 q 629 -235 639 -194 q 602 -315 619 -275 q 563 -389 585 -356 q 535 -415 549 -411 q 499 -411 521 -419 z "},"Ŀ":{"ha":964,"x_min":199,"x_max":925,"o":"m 260 0 q 199 56 199 0 l 199 1372 q 214 1401 199 1392 q 260 1410 229 1410 q 306 1401 290 1410 q 321 1372 321 1392 l 321 111 l 888 111 q 917 99 908 111 q 925 56 925 88 q 917 13 925 25 q 888 0 908 0 l 260 0 m 717 625 q 658 647 678 625 q 639 713 639 668 q 658 778 639 757 q 717 800 678 800 q 774 778 754 800 q 793 713 793 757 q 774 647 794 668 q 717 625 754 625 z "},"Ł":{"ha":964,"x_min":32,"x_max":925,"o":"m 260 0 q 199 56 199 0 l 199 1372 q 214 1401 199 1392 q 260 1410 229 1410 q 306 1401 290 1410 q 321 1372 321 1392 l 321 111 l 888 111 q 917 99 908 111 q 925 56 925 88 q 917 13 925 25 q 888 0 908 0 l 260 0 m 104 568 q 69 563 85 558 q 40 590 54 568 q 32 626 32 607 q 50 654 32 644 l 521 910 q 553 917 540 921 q 579 896 565 913 q 578 831 610 847 l 104 568 z "},"Ń":{"ha":1368,"x_min":199,"x_max":1169,"o":"m 260 -19 q 199 19 199 -19 l 199 1372 q 214 1401 199 1392 q 260 1410 229 1410 q 301 1401 285 1410 q 329 1372 317 1392 l 1047 242 l 1047 1372 q 1063 1401 1047 1392 q 1108 1410 1078 1410 q 1169 1372 1169 1410 l 1169 19 q 1154 -10 1169 0 q 1110 -19 1139 -19 q 1075 -12 1088 -19 q 1047 19 1063 -6 l 321 1164 l 321 19 q 306 -10 321 0 q 260 -19 290 -19 m 618 1469 q 585 1488 603 1469 q 567 1521 567 1507 q 568 1532 567 1526 q 578 1546 569 1538 l 776 1747 q 790 1758 783 1754 q 804 1763 796 1763 q 835 1750 817 1763 q 866 1721 853 1738 q 879 1689 879 1704 q 876 1672 879 1679 q 858 1654 872 1665 l 644 1483 q 630 1474 636 1478 q 618 1469 624 1469 z "},"Ň":{"ha":1368,"x_min":199,"x_max":1169,"o":"m 260 -19 q 199 19 199 -19 l 199 1372 q 214 1401 199 1392 q 260 1410 229 1410 q 301 1401 285 1410 q 329 1372 317 1392 l 1047 242 l 1047 1372 q 1063 1401 1047 1392 q 1108 1410 1078 1410 q 1169 1372 1169 1410 l 1169 19 q 1154 -10 1169 0 q 1110 -19 1139 -19 q 1075 -12 1088 -19 q 1047 19 1063 -6 l 321 1164 l 321 19 q 306 -10 321 0 q 260 -19 290 -19 m 900 1763 q 931 1747 914 1763 q 949 1715 949 1731 q 948 1707 949 1713 q 940 1693 947 1701 l 746 1497 q 724 1479 736 1489 q 685 1469 713 1469 q 647 1479 658 1469 q 626 1497 635 1489 l 431 1693 q 422 1707 422 1701 q 422 1715 422 1713 q 440 1747 422 1731 q 471 1763 457 1763 q 488 1758 479 1763 q 506 1746 496 1753 l 685 1608 l 865 1746 q 883 1758 876 1753 q 900 1763 890 1763 z "},"Ņ":{"ha":1368,"x_min":199,"x_max":1169,"o":"m 260 -19 q 199 19 199 -19 l 199 1372 q 214 1401 199 1392 q 260 1410 229 1410 q 301 1401 285 1410 q 329 1372 317 1392 l 1047 242 l 1047 1372 q 1063 1401 1047 1392 q 1108 1410 1078 1410 q 1169 1372 1169 1410 l 1169 19 q 1154 -10 1169 0 q 1110 -19 1139 -19 q 1075 -12 1088 -19 q 1047 19 1063 -6 l 321 1164 l 321 19 q 306 -10 321 0 q 260 -19 290 -19 m 606 -411 q 585 -392 589 -404 q 589 -361 581 -381 q 614 -285 606 -318 q 624 -220 622 -253 q 626 -146 626 -187 q 640 -112 626 -122 q 679 -103 653 -103 q 728 -118 711 -103 q 746 -160 746 -133 q 736 -235 746 -194 q 709 -315 726 -275 q 669 -389 692 -356 q 642 -415 656 -411 q 606 -411 628 -419 z "},"Ñ":{"ha":1368,"x_min":199,"x_max":1169,"o":"m 260 -19 q 199 19 199 -19 l 199 1372 q 214 1401 199 1392 q 260 1410 229 1410 q 301 1401 285 1410 q 329 1372 317 1392 l 1047 242 l 1047 1372 q 1063 1401 1047 1392 q 1108 1410 1078 1410 q 1169 1372 1169 1410 l 1169 19 q 1154 -10 1169 0 q 1110 -19 1139 -19 q 1075 -12 1088 -19 q 1047 19 1063 -6 l 321 1164 l 321 19 q 306 -10 321 0 q 260 -19 290 -19 m 474 1510 q 426 1546 426 1510 q 462 1678 428 1635 q 563 1722 496 1722 q 638 1706 604 1722 q 700 1671 672 1690 q 751 1635 728 1651 q 799 1619 775 1619 q 827 1641 817 1619 q 840 1694 838 1663 q 888 1725 842 1725 q 926 1715 914 1725 q 938 1686 938 1706 q 902 1556 936 1600 q 800 1511 868 1511 q 724 1526 758 1511 q 660 1562 689 1542 q 608 1598 632 1582 q 564 1614 585 1614 q 535 1597 544 1614 q 524 1546 526 1581 q 510 1519 522 1528 q 474 1510 497 1510 z "},"Ó":{"ha":1426,"x_min":128,"x_max":1297,"o":"m 715 -26 q 473 26 581 -26 q 288 175 365 79 q 169 403 211 271 q 128 693 128 535 q 147 892 128 799 q 201 1066 165 986 q 288 1209 236 1146 q 404 1317 339 1272 q 548 1386 469 1363 q 715 1410 626 1410 q 956 1358 849 1410 q 1140 1210 1063 1306 q 1257 982 1217 1114 q 1297 693 1297 850 q 1279 493 1297 588 q 1226 319 1261 399 q 1140 175 1190 239 q 1024 67 1089 111 q 881 -2 958 22 q 715 -26 804 -26 m 715 92 q 841 110 782 92 q 951 163 900 128 q 1042 251 1001 199 q 1110 369 1082 303 q 1153 517 1138 436 q 1168 693 1168 599 q 1135 944 1168 833 q 1041 1133 1101 1056 q 898 1251 981 1210 q 715 1292 815 1292 q 589 1274 649 1292 q 478 1220 529 1256 q 386 1133 426 1185 q 317 1014 346 1081 q 274 867 289 947 q 258 693 258 786 q 292 440 258 551 q 386 251 325 329 q 531 133 447 174 q 715 92 614 92 m 647 1469 q 614 1488 632 1469 q 596 1521 596 1507 q 597 1532 596 1526 q 607 1546 599 1538 l 806 1747 q 819 1758 813 1754 q 833 1763 825 1763 q 864 1750 846 1763 q 895 1721 882 1738 q 908 1689 908 1704 q 905 1672 908 1679 q 888 1654 901 1665 l 674 1483 q 659 1474 665 1478 q 647 1469 653 1469 z "},"Ŏ":{"ha":1426,"x_min":128,"x_max":1297,"o":"m 715 -26 q 473 26 581 -26 q 288 175 365 79 q 169 403 211 271 q 128 693 128 535 q 147 892 128 799 q 201 1066 165 986 q 288 1209 236 1146 q 404 1317 339 1272 q 548 1386 469 1363 q 715 1410 626 1410 q 956 1358 849 1410 q 1140 1210 1063 1306 q 1257 982 1217 1114 q 1297 693 1297 850 q 1279 493 1297 588 q 1226 319 1261 399 q 1140 175 1190 239 q 1024 67 1089 111 q 881 -2 958 22 q 715 -26 804 -26 m 715 92 q 841 110 782 92 q 951 163 900 128 q 1042 251 1001 199 q 1110 369 1082 303 q 1153 517 1138 436 q 1168 693 1168 599 q 1135 944 1168 833 q 1041 1133 1101 1056 q 898 1251 981 1210 q 715 1292 815 1292 q 589 1274 649 1292 q 478 1220 529 1256 q 386 1133 426 1185 q 317 1014 346 1081 q 274 867 289 947 q 258 693 258 786 q 292 440 258 551 q 386 251 325 329 q 531 133 447 174 q 715 92 614 92 m 714 1469 q 538 1532 606 1469 q 461 1721 471 1594 q 474 1749 460 1738 q 514 1761 488 1761 q 544 1751 536 1761 q 558 1721 553 1740 q 613 1625 576 1657 q 714 1593 650 1593 q 815 1625 778 1593 q 869 1721 853 1657 q 883 1751 875 1740 q 913 1761 890 1761 q 953 1749 939 1761 q 967 1721 968 1738 q 927 1585 961 1640 q 838 1499 893 1529 q 714 1469 783 1469 z "},"Ǒ":{"ha":1426,"x_min":128,"x_max":1297,"o":"m 715 -26 q 473 26 581 -26 q 288 175 365 79 q 169 403 211 271 q 128 693 128 535 q 147 892 128 799 q 201 1066 165 986 q 288 1209 236 1146 q 404 1317 339 1272 q 548 1386 469 1363 q 715 1410 626 1410 q 956 1358 849 1410 q 1140 1210 1063 1306 q 1257 982 1217 1114 q 1297 693 1297 850 q 1279 493 1297 588 q 1226 319 1261 399 q 1140 175 1190 239 q 1024 67 1089 111 q 881 -2 958 22 q 715 -26 804 -26 m 715 92 q 841 110 782 92 q 951 163 900 128 q 1042 251 1001 199 q 1110 369 1082 303 q 1153 517 1138 436 q 1168 693 1168 599 q 1135 944 1168 833 q 1041 1133 1101 1056 q 898 1251 981 1210 q 715 1292 815 1292 q 589 1274 649 1292 q 478 1220 529 1256 q 386 1133 426 1185 q 317 1014 346 1081 q 274 867 289 947 q 258 693 258 786 q 292 440 258 551 q 386 251 325 329 q 531 133 447 174 q 715 92 614 92 m 929 1763 q 960 1747 943 1763 q 978 1715 978 1731 q 977 1707 978 1713 q 969 1693 976 1701 l 775 1497 q 753 1479 765 1489 q 714 1469 742 1469 q 676 1479 688 1469 q 656 1497 664 1489 l 460 1693 q 451 1707 451 1701 q 451 1715 451 1713 q 469 1747 451 1731 q 500 1763 486 1763 q 517 1758 508 1763 q 535 1746 525 1753 l 714 1608 l 894 1746 q 913 1758 906 1753 q 929 1763 919 1763 z "},"Ô":{"ha":1426,"x_min":128,"x_max":1297,"o":"m 715 -26 q 473 26 581 -26 q 288 175 365 79 q 169 403 211 271 q 128 693 128 535 q 147 892 128 799 q 201 1066 165 986 q 288 1209 236 1146 q 404 1317 339 1272 q 548 1386 469 1363 q 715 1410 626 1410 q 956 1358 849 1410 q 1140 1210 1063 1306 q 1257 982 1217 1114 q 1297 693 1297 850 q 1279 493 1297 588 q 1226 319 1261 399 q 1140 175 1190 239 q 1024 67 1089 111 q 881 -2 958 22 q 715 -26 804 -26 m 715 92 q 841 110 782 92 q 951 163 900 128 q 1042 251 1001 199 q 1110 369 1082 303 q 1153 517 1138 436 q 1168 693 1168 599 q 1135 944 1168 833 q 1041 1133 1101 1056 q 898 1251 981 1210 q 715 1292 815 1292 q 589 1274 649 1292 q 478 1220 529 1256 q 386 1133 426 1185 q 317 1014 346 1081 q 274 867 289 947 q 258 693 258 786 q 292 440 258 551 q 386 251 325 329 q 531 133 447 174 q 715 92 614 92 m 500 1469 q 469 1486 486 1469 q 451 1517 451 1503 q 451 1526 451 1521 q 460 1539 451 1532 l 653 1735 q 675 1753 663 1744 q 714 1763 688 1763 q 752 1753 740 1763 q 774 1735 764 1744 l 969 1539 q 977 1526 976 1532 q 978 1517 978 1521 q 960 1486 978 1503 q 929 1469 943 1469 q 913 1474 919 1469 q 894 1488 906 1479 l 714 1624 l 535 1488 q 517 1474 525 1479 q 500 1469 508 1469 z "},"Ö":{"ha":1426,"x_min":128,"x_max":1297,"o":"m 715 -26 q 473 26 581 -26 q 288 175 365 79 q 169 403 211 271 q 128 693 128 535 q 147 892 128 799 q 201 1066 165 986 q 288 1209 236 1146 q 404 1317 339 1272 q 548 1386 469 1363 q 715 1410 626 1410 q 956 1358 849 1410 q 1140 1210 1063 1306 q 1257 982 1217 1114 q 1297 693 1297 850 q 1279 493 1297 588 q 1226 319 1261 399 q 1140 175 1190 239 q 1024 67 1089 111 q 881 -2 958 22 q 715 -26 804 -26 m 715 92 q 841 110 782 92 q 951 163 900 128 q 1042 251 1001 199 q 1110 369 1082 303 q 1153 517 1138 436 q 1168 693 1168 599 q 1135 944 1168 833 q 1041 1133 1101 1056 q 898 1251 981 1210 q 715 1292 815 1292 q 589 1274 649 1292 q 478 1220 529 1256 q 386 1133 426 1185 q 317 1014 346 1081 q 274 867 289 947 q 258 693 258 786 q 292 440 258 551 q 386 251 325 329 q 531 133 447 174 q 715 92 614 92 m 543 1517 q 485 1538 504 1517 q 465 1604 465 1560 q 485 1670 465 1649 q 543 1692 504 1692 q 601 1670 582 1692 q 619 1604 619 1649 q 602 1538 622 1560 q 543 1517 582 1517 m 886 1517 q 828 1538 847 1517 q 808 1604 808 1560 q 828 1670 808 1649 q 886 1692 847 1692 q 943 1670 924 1692 q 963 1604 963 1649 q 944 1539 964 1561 q 886 1517 924 1517 z "},"Ò":{"ha":1426,"x_min":128,"x_max":1297,"o":"m 715 -26 q 473 26 581 -26 q 288 175 365 79 q 169 403 211 271 q 128 693 128 535 q 147 892 128 799 q 201 1066 165 986 q 288 1209 236 1146 q 404 1317 339 1272 q 548 1386 469 1363 q 715 1410 626 1410 q 956 1358 849 1410 q 1140 1210 1063 1306 q 1257 982 1217 1114 q 1297 693 1297 850 q 1279 493 1297 588 q 1226 319 1261 399 q 1140 175 1190 239 q 1024 67 1089 111 q 881 -2 958 22 q 715 -26 804 -26 m 715 92 q 841 110 782 92 q 951 163 900 128 q 1042 251 1001 199 q 1110 369 1082 303 q 1153 517 1138 436 q 1168 693 1168 599 q 1135 944 1168 833 q 1041 1133 1101 1056 q 898 1251 981 1210 q 715 1292 815 1292 q 589 1274 649 1292 q 478 1220 529 1256 q 386 1133 426 1185 q 317 1014 346 1081 q 274 867 289 947 q 258 693 258 786 q 292 440 258 551 q 386 251 325 329 q 531 133 447 174 q 715 92 614 92 m 781 1469 q 769 1474 775 1469 q 754 1483 763 1478 l 542 1654 q 524 1672 528 1665 q 521 1689 521 1679 q 533 1721 521 1704 q 564 1750 546 1738 q 596 1763 582 1763 q 610 1758 604 1763 q 622 1747 617 1754 l 821 1546 q 832 1532 831 1538 q 833 1521 833 1526 q 815 1488 833 1507 q 781 1469 797 1469 z "},"Ő":{"ha":1426,"x_min":128,"x_max":1297,"o":"m 715 -26 q 473 26 581 -26 q 288 175 365 79 q 169 403 211 271 q 128 693 128 535 q 147 892 128 799 q 201 1066 165 986 q 288 1209 236 1146 q 404 1317 339 1272 q 548 1386 469 1363 q 715 1410 626 1410 q 956 1358 849 1410 q 1140 1210 1063 1306 q 1257 982 1217 1114 q 1297 693 1297 850 q 1279 493 1297 588 q 1226 319 1261 399 q 1140 175 1190 239 q 1024 67 1089 111 q 881 -2 958 22 q 715 -26 804 -26 m 715 92 q 841 110 782 92 q 951 163 900 128 q 1042 251 1001 199 q 1110 369 1082 303 q 1153 517 1138 436 q 1168 693 1168 599 q 1135 944 1168 833 q 1041 1133 1101 1056 q 898 1251 981 1210 q 715 1292 815 1292 q 589 1274 649 1292 q 478 1220 529 1256 q 386 1133 426 1185 q 317 1014 346 1081 q 274 867 289 947 q 258 693 258 786 q 292 440 258 551 q 386 251 325 329 q 531 133 447 174 q 715 92 614 92 m 575 1469 q 542 1488 560 1469 q 524 1521 524 1507 q 525 1531 524 1526 q 536 1546 526 1536 l 714 1747 q 728 1758 721 1754 q 744 1763 736 1763 q 776 1751 760 1763 q 803 1722 792 1739 q 814 1692 814 1706 q 810 1674 814 1682 q 793 1656 807 1667 l 601 1483 q 587 1474 593 1478 q 575 1469 581 1469 m 842 1469 q 808 1488 826 1469 q 790 1521 790 1507 q 792 1532 790 1526 q 803 1546 793 1538 l 986 1747 q 1001 1758 993 1754 q 1018 1763 1008 1763 q 1048 1751 1032 1763 q 1076 1722 1064 1739 q 1088 1692 1088 1706 q 1083 1674 1088 1682 q 1067 1656 1079 1667 l 869 1483 q 854 1474 861 1478 q 842 1469 847 1469 z "},"Ō":{"ha":1426,"x_min":128,"x_max":1297,"o":"m 715 -26 q 473 26 581 -26 q 288 175 365 79 q 169 403 211 271 q 128 693 128 535 q 147 892 128 799 q 201 1066 165 986 q 288 1209 236 1146 q 404 1317 339 1272 q 548 1386 469 1363 q 715 1410 626 1410 q 956 1358 849 1410 q 1140 1210 1063 1306 q 1257 982 1217 1114 q 1297 693 1297 850 q 1279 493 1297 588 q 1226 319 1261 399 q 1140 175 1190 239 q 1024 67 1089 111 q 881 -2 958 22 q 715 -26 804 -26 m 715 92 q 841 110 782 92 q 951 163 900 128 q 1042 251 1001 199 q 1110 369 1082 303 q 1153 517 1138 436 q 1168 693 1168 599 q 1135 944 1168 833 q 1041 1133 1101 1056 q 898 1251 981 1210 q 715 1292 815 1292 q 589 1274 649 1292 q 478 1220 529 1256 q 386 1133 426 1185 q 317 1014 346 1081 q 274 867 289 947 q 258 693 258 786 q 292 440 258 551 q 386 251 325 329 q 531 133 447 174 q 715 92 614 92 m 522 1556 q 492 1572 499 1556 q 485 1613 485 1588 q 492 1656 485 1639 q 522 1674 499 1674 l 906 1674 q 937 1656 931 1674 q 943 1613 943 1639 q 937 1572 943 1588 q 906 1556 931 1556 l 522 1556 z "},"Ø":{"ha":1426,"x_min":128,"x_max":1297,"o":"m 715 -26 q 473 26 581 -26 q 288 175 365 79 q 169 403 211 271 q 128 693 128 535 q 147 892 128 799 q 201 1066 165 986 q 288 1209 236 1146 q 404 1317 339 1272 q 548 1386 469 1363 q 715 1410 626 1410 q 956 1358 849 1410 q 1140 1210 1063 1306 q 1257 982 1217 1114 q 1297 693 1297 850 q 1279 493 1297 588 q 1226 319 1261 399 q 1140 175 1190 239 q 1024 67 1089 111 q 881 -2 958 22 q 715 -26 804 -26 m 715 92 q 841 110 782 92 q 951 163 900 128 q 1042 251 1001 199 q 1110 369 1082 303 q 1153 517 1138 436 q 1168 693 1168 599 q 1135 944 1168 833 q 1041 1133 1101 1056 q 898 1251 981 1210 q 715 1292 815 1292 q 589 1274 649 1292 q 478 1220 529 1256 q 386 1133 426 1185 q 317 1014 346 1081 q 274 867 289 947 q 258 693 258 786 q 292 440 258 551 q 386 251 325 329 q 531 133 447 174 q 715 92 614 92 m 332 -93 q 303 -117 322 -108 q 256 -108 285 -125 q 229 -40 206 -82 l 1100 1456 q 1131 1477 1111 1472 q 1176 1469 1150 1482 q 1204 1440 1197 1460 q 1200 1400 1211 1421 l 332 -93 z "},"Õ":{"ha":1426,"x_min":128,"x_max":1297,"o":"m 715 -26 q 473 26 581 -26 q 288 175 365 79 q 169 403 211 271 q 128 693 128 535 q 147 892 128 799 q 201 1066 165 986 q 288 1209 236 1146 q 404 1317 339 1272 q 548 1386 469 1363 q 715 1410 626 1410 q 956 1358 849 1410 q 1140 1210 1063 1306 q 1257 982 1217 1114 q 1297 693 1297 850 q 1279 493 1297 588 q 1226 319 1261 399 q 1140 175 1190 239 q 1024 67 1089 111 q 881 -2 958 22 q 715 -26 804 -26 m 715 92 q 841 110 782 92 q 951 163 900 128 q 1042 251 1001 199 q 1110 369 1082 303 q 1153 517 1138 436 q 1168 693 1168 599 q 1135 944 1168 833 q 1041 1133 1101 1056 q 898 1251 981 1210 q 715 1292 815 1292 q 589 1274 649 1292 q 478 1220 529 1256 q 386 1133 426 1185 q 317 1014 346 1081 q 274 867 289 947 q 258 693 258 786 q 292 440 258 551 q 386 251 325 329 q 531 133 447 174 q 715 92 614 92 m 503 1510 q 456 1546 456 1510 q 491 1678 457 1635 q 592 1722 525 1722 q 667 1706 633 1722 q 729 1671 701 1690 q 781 1635 757 1651 q 828 1619 804 1619 q 856 1641 846 1619 q 869 1694 867 1663 q 917 1725 871 1725 q 955 1715 943 1725 q 967 1686 967 1706 q 931 1556 965 1600 q 829 1511 897 1511 q 753 1526 788 1511 q 690 1562 718 1542 q 638 1598 661 1582 q 593 1614 614 1614 q 565 1597 574 1614 q 553 1546 556 1581 q 539 1519 551 1528 q 503 1510 526 1510 z "},"Ố":{"ha":1426,"x_min":128,"x_max":1297,"o":"m 715 -26 q 473 26 581 -26 q 288 175 365 79 q 169 403 211 271 q 128 693 128 535 q 147 892 128 799 q 201 1066 165 986 q 288 1209 236 1146 q 404 1317 339 1272 q 548 1386 469 1363 q 715 1410 626 1410 q 956 1358 849 1410 q 1140 1210 1063 1306 q 1257 982 1217 1114 q 1297 693 1297 850 q 1279 493 1297 588 q 1226 319 1261 399 q 1140 175 1190 239 q 1024 67 1089 111 q 881 -2 958 22 q 715 -26 804 -26 m 715 92 q 841 110 782 92 q 951 163 900 128 q 1042 251 1001 199 q 1110 369 1082 303 q 1153 517 1138 436 q 1168 693 1168 599 q 1135 944 1168 833 q 1041 1133 1101 1056 q 898 1251 981 1210 q 715 1292 815 1292 q 589 1274 649 1292 q 478 1220 529 1256 q 386 1133 426 1185 q 317 1014 346 1081 q 274 867 289 947 q 258 693 258 786 q 292 440 258 551 q 386 251 325 329 q 531 133 447 174 q 715 92 614 92 m 500 1469 q 469 1486 486 1469 q 451 1517 451 1503 q 451 1526 451 1521 q 460 1539 451 1532 l 653 1735 q 675 1753 663 1744 q 714 1763 688 1763 q 752 1753 740 1763 q 774 1735 764 1744 l 969 1539 q 977 1526 976 1532 q 978 1517 978 1521 q 960 1486 978 1503 q 929 1469 943 1469 q 913 1474 919 1469 q 894 1488 906 1479 l 714 1624 l 535 1488 q 517 1474 525 1479 q 500 1469 508 1469 m 935 1690 q 901 1709 919 1690 q 883 1742 883 1728 q 885 1752 883 1747 q 894 1767 886 1757 l 1083 1954 q 1097 1967 1090 1963 q 1111 1971 1103 1971 q 1142 1958 1125 1971 q 1172 1928 1160 1946 q 1185 1897 1185 1911 q 1182 1881 1185 1888 q 1164 1863 1179 1875 l 961 1704 q 947 1694 953 1699 q 935 1690 940 1690 z "},"Ộ":{"ha":1426,"x_min":128,"x_max":1297,"o":"m 715 -26 q 473 26 581 -26 q 288 175 365 79 q 169 403 211 271 q 128 693 128 535 q 147 892 128 799 q 201 1066 165 986 q 288 1209 236 1146 q 404 1317 339 1272 q 548 1386 469 1363 q 715 1410 626 1410 q 956 1358 849 1410 q 1140 1210 1063 1306 q 1257 982 1217 1114 q 1297 693 1297 850 q 1279 493 1297 588 q 1226 319 1261 399 q 1140 175 1190 239 q 1024 67 1089 111 q 881 -2 958 22 q 715 -26 804 -26 m 715 92 q 841 110 782 92 q 951 163 900 128 q 1042 251 1001 199 q 1110 369 1082 303 q 1153 517 1138 436 q 1168 693 1168 599 q 1135 944 1168 833 q 1041 1133 1101 1056 q 898 1251 981 1210 q 715 1292 815 1292 q 589 1274 649 1292 q 478 1220 529 1256 q 386 1133 426 1185 q 317 1014 346 1081 q 274 867 289 947 q 258 693 258 786 q 292 440 258 551 q 386 251 325 329 q 531 133 447 174 q 715 92 614 92 m 714 -326 q 656 -305 675 -326 q 636 -239 636 -283 q 656 -173 636 -194 q 714 -151 675 -151 q 771 -173 751 -151 q 790 -239 790 -194 q 772 -305 792 -283 q 714 -326 751 -326 m 500 1469 q 469 1486 486 1469 q 451 1517 451 1503 q 451 1526 451 1521 q 460 1539 451 1532 l 653 1735 q 675 1753 663 1744 q 714 1763 688 1763 q 752 1753 740 1763 q 774 1735 764 1744 l 969 1539 q 977 1526 976 1532 q 978 1517 978 1521 q 960 1486 978 1503 q 929 1469 943 1469 q 913 1474 919 1469 q 894 1488 906 1479 l 714 1624 l 535 1488 q 517 1474 525 1479 q 500 1469 508 1469 z "},"Ồ":{"ha":1426,"x_min":128,"x_max":1297,"o":"m 715 -26 q 473 26 581 -26 q 288 175 365 79 q 169 403 211 271 q 128 693 128 535 q 147 892 128 799 q 201 1066 165 986 q 288 1209 236 1146 q 404 1317 339 1272 q 548 1386 469 1363 q 715 1410 626 1410 q 956 1358 849 1410 q 1140 1210 1063 1306 q 1257 982 1217 1114 q 1297 693 1297 850 q 1279 493 1297 588 q 1226 319 1261 399 q 1140 175 1190 239 q 1024 67 1089 111 q 881 -2 958 22 q 715 -26 804 -26 m 715 92 q 841 110 782 92 q 951 163 900 128 q 1042 251 1001 199 q 1110 369 1082 303 q 1153 517 1138 436 q 1168 693 1168 599 q 1135 944 1168 833 q 1041 1133 1101 1056 q 898 1251 981 1210 q 715 1292 815 1292 q 589 1274 649 1292 q 478 1220 529 1256 q 386 1133 426 1185 q 317 1014 346 1081 q 274 867 289 947 q 258 693 258 786 q 292 440 258 551 q 386 251 325 329 q 531 133 447 174 q 715 92 614 92 m 500 1469 q 469 1486 486 1469 q 451 1517 451 1503 q 451 1526 451 1521 q 460 1539 451 1532 l 653 1735 q 675 1753 663 1744 q 714 1763 688 1763 q 752 1753 740 1763 q 774 1735 764 1744 l 969 1539 q 977 1526 976 1532 q 978 1517 978 1521 q 960 1486 978 1503 q 929 1469 943 1469 q 913 1474 919 1469 q 894 1488 906 1479 l 714 1624 l 535 1488 q 517 1474 525 1479 q 500 1469 508 1469 m 1022 1669 q 1010 1673 1017 1669 q 996 1683 1004 1676 l 799 1865 q 781 1884 785 1878 q 778 1900 778 1890 q 791 1931 778 1914 q 822 1960 804 1949 q 854 1972 840 1972 q 869 1968 863 1972 q 882 1957 875 1964 l 1063 1746 q 1072 1731 1069 1736 q 1075 1721 1075 1726 q 1057 1688 1075 1707 q 1022 1669 1039 1669 z "},"Ổ":{"ha":1426,"x_min":128,"x_max":1297,"o":"m 715 -26 q 473 26 581 -26 q 288 175 365 79 q 169 403 211 271 q 128 693 128 535 q 147 892 128 799 q 201 1066 165 986 q 288 1209 236 1146 q 404 1317 339 1272 q 548 1386 469 1363 q 715 1410 626 1410 q 956 1358 849 1410 q 1140 1210 1063 1306 q 1257 982 1217 1114 q 1297 693 1297 850 q 1279 493 1297 588 q 1226 319 1261 399 q 1140 175 1190 239 q 1024 67 1089 111 q 881 -2 958 22 q 715 -26 804 -26 m 715 92 q 841 110 782 92 q 951 163 900 128 q 1042 251 1001 199 q 1110 369 1082 303 q 1153 517 1138 436 q 1168 693 1168 599 q 1135 944 1168 833 q 1041 1133 1101 1056 q 898 1251 981 1210 q 715 1292 815 1292 q 589 1274 649 1292 q 478 1220 529 1256 q 386 1133 426 1185 q 317 1014 346 1081 q 274 867 289 947 q 258 693 258 786 q 292 440 258 551 q 386 251 325 329 q 531 133 447 174 q 715 92 614 92 m 500 1469 q 469 1486 486 1469 q 451 1517 451 1503 q 451 1526 451 1521 q 460 1539 451 1532 l 653 1735 q 675 1753 663 1744 q 714 1763 688 1763 q 752 1753 740 1763 q 774 1735 764 1744 l 969 1539 q 977 1526 976 1532 q 978 1517 978 1521 q 960 1486 978 1503 q 929 1469 943 1469 q 913 1474 919 1469 q 894 1488 906 1479 l 714 1624 l 535 1488 q 517 1474 525 1479 q 500 1469 508 1469 m 967 1989 q 1076 1956 1035 1989 q 1118 1868 1118 1924 q 1102 1806 1118 1833 q 1047 1750 1086 1779 q 1022 1725 1029 1736 q 1018 1700 1015 1714 l 1019 1690 q 1012 1664 1024 1675 q 982 1649 1000 1653 q 948 1649 964 1644 q 925 1667 932 1653 l 910 1704 q 910 1763 899 1736 q 953 1813 922 1790 q 980 1838 972 1826 q 988 1860 988 1849 q 976 1879 988 1871 q 944 1888 964 1888 q 903 1882 925 1888 q 869 1867 881 1876 q 810 1889 836 1846 q 818 1943 794 1921 q 887 1976 847 1964 q 967 1989 926 1989 z "},"Ỗ":{"ha":1426,"x_min":128,"x_max":1297,"o":"m 715 -26 q 473 26 581 -26 q 288 175 365 79 q 169 403 211 271 q 128 693 128 535 q 147 892 128 799 q 201 1066 165 986 q 288 1209 236 1146 q 404 1317 339 1272 q 548 1386 469 1363 q 715 1410 626 1410 q 956 1358 849 1410 q 1140 1210 1063 1306 q 1257 982 1217 1114 q 1297 693 1297 850 q 1279 493 1297 588 q 1226 319 1261 399 q 1140 175 1190 239 q 1024 67 1089 111 q 881 -2 958 22 q 715 -26 804 -26 m 715 92 q 841 110 782 92 q 951 163 900 128 q 1042 251 1001 199 q 1110 369 1082 303 q 1153 517 1138 436 q 1168 693 1168 599 q 1135 944 1168 833 q 1041 1133 1101 1056 q 898 1251 981 1210 q 715 1292 815 1292 q 589 1274 649 1292 q 478 1220 529 1256 q 386 1133 426 1185 q 317 1014 346 1081 q 274 867 289 947 q 258 693 258 786 q 292 440 258 551 q 386 251 325 329 q 531 133 447 174 q 715 92 614 92 m 500 1469 q 469 1486 486 1469 q 451 1517 451 1503 q 451 1526 451 1521 q 460 1539 451 1532 l 653 1735 q 675 1753 663 1744 q 714 1763 688 1763 q 752 1753 740 1763 q 774 1735 764 1744 l 969 1539 q 977 1526 976 1532 q 978 1517 978 1521 q 960 1486 978 1503 q 929 1469 943 1469 q 913 1474 919 1469 q 894 1488 906 1479 l 714 1624 l 535 1488 q 517 1474 525 1479 q 500 1469 508 1469 m 507 1778 q 460 1814 460 1778 q 497 1947 463 1903 q 596 1990 531 1990 q 672 1975 639 1990 q 733 1940 706 1960 q 785 1904 761 1919 q 832 1889 810 1889 q 862 1910 851 1889 q 874 1963 872 1931 q 921 1993 876 1993 q 960 1983 949 1993 q 971 1954 971 1974 q 936 1824 969 1868 q 833 1779 903 1779 q 757 1794 792 1779 q 694 1830 722 1810 q 643 1866 667 1850 q 597 1882 619 1882 q 569 1865 579 1882 q 557 1814 560 1849 q 543 1787 556 1796 q 507 1778 531 1778 z "},"Ọ":{"ha":1426,"x_min":128,"x_max":1297,"o":"m 715 -26 q 473 26 581 -26 q 288 175 365 79 q 169 403 211 271 q 128 693 128 535 q 147 892 128 799 q 201 1066 165 986 q 288 1209 236 1146 q 404 1317 339 1272 q 548 1386 469 1363 q 715 1410 626 1410 q 956 1358 849 1410 q 1140 1210 1063 1306 q 1257 982 1217 1114 q 1297 693 1297 850 q 1279 493 1297 588 q 1226 319 1261 399 q 1140 175 1190 239 q 1024 67 1089 111 q 881 -2 958 22 q 715 -26 804 -26 m 715 92 q 841 110 782 92 q 951 163 900 128 q 1042 251 1001 199 q 1110 369 1082 303 q 1153 517 1138 436 q 1168 693 1168 599 q 1135 944 1168 833 q 1041 1133 1101 1056 q 898 1251 981 1210 q 715 1292 815 1292 q 589 1274 649 1292 q 478 1220 529 1256 q 386 1133 426 1185 q 317 1014 346 1081 q 274 867 289 947 q 258 693 258 786 q 292 440 258 551 q 386 251 325 329 q 531 133 447 174 q 715 92 614 92 m 714 -326 q 656 -305 675 -326 q 636 -239 636 -283 q 656 -173 636 -194 q 714 -151 675 -151 q 771 -173 751 -151 q 790 -239 790 -194 q 772 -305 792 -283 q 714 -326 751 -326 z "},"Ỏ":{"ha":1426,"x_min":128,"x_max":1297,"o":"m 715 -26 q 473 26 581 -26 q 288 175 365 79 q 169 403 211 271 q 128 693 128 535 q 147 892 128 799 q 201 1066 165 986 q 288 1209 236 1146 q 404 1317 339 1272 q 548 1386 469 1363 q 715 1410 626 1410 q 956 1358 849 1410 q 1140 1210 1063 1306 q 1257 982 1217 1114 q 1297 693 1297 850 q 1279 493 1297 588 q 1226 319 1261 399 q 1140 175 1190 239 q 1024 67 1089 111 q 881 -2 958 22 q 715 -26 804 -26 m 715 92 q 841 110 782 92 q 951 163 900 128 q 1042 251 1001 199 q 1110 369 1082 303 q 1153 517 1138 436 q 1168 693 1168 599 q 1135 944 1168 833 q 1041 1133 1101 1056 q 898 1251 981 1210 q 715 1292 815 1292 q 589 1274 649 1292 q 478 1220 529 1256 q 386 1133 426 1185 q 317 1014 346 1081 q 274 867 289 947 q 258 693 258 786 q 292 440 258 551 q 386 251 325 329 q 531 133 447 174 q 715 92 614 92 m 729 1800 q 839 1767 797 1800 q 881 1679 881 1735 q 865 1617 881 1644 q 810 1561 849 1590 q 785 1536 792 1547 q 781 1511 778 1525 l 782 1501 q 774 1475 786 1486 q 744 1460 763 1464 q 710 1460 726 1456 q 688 1478 694 1464 l 672 1515 q 673 1574 661 1547 q 715 1624 685 1601 q 742 1649 735 1638 q 750 1671 750 1660 q 738 1690 750 1682 q 707 1699 726 1699 q 665 1693 688 1699 q 631 1678 643 1688 q 572 1700 597 1657 q 581 1754 556 1732 q 649 1788 610 1775 q 729 1800 689 1800 z "},"Ơ":{"ha":1426,"x_min":128,"x_max":1297,"o":"m 715 -26 q 473 26 581 -26 q 288 175 365 79 q 169 403 211 271 q 128 693 128 535 q 147 892 128 799 q 201 1066 165 986 q 288 1209 236 1146 q 404 1317 339 1272 q 548 1386 469 1363 q 715 1410 626 1410 q 822 1399 771 1410 q 917 1368 872 1389 q 1060 1391 1008 1372 q 1130 1440 1111 1410 q 1142 1513 1149 1471 q 1114 1604 1136 1554 q 1113 1647 1103 1628 q 1145 1675 1124 1665 q 1189 1680 1167 1685 q 1224 1651 1211 1675 q 1261 1540 1253 1596 q 1252 1434 1269 1483 q 1185 1349 1235 1385 q 1049 1299 1136 1313 q 1232 1050 1167 1207 q 1297 693 1297 893 q 1279 493 1297 588 q 1226 319 1261 399 q 1140 175 1190 239 q 1024 67 1089 111 q 881 -2 958 22 q 715 -26 804 -26 m 715 92 q 841 110 782 92 q 951 163 900 128 q 1042 251 1001 199 q 1110 369 1082 303 q 1153 517 1138 436 q 1168 693 1168 599 q 1135 944 1168 833 q 1041 1133 1101 1056 q 898 1251 981 1210 q 715 1292 815 1292 q 589 1274 649 1292 q 478 1220 529 1256 q 386 1133 426 1185 q 317 1014 346 1081 q 274 867 289 947 q 258 693 258 786 q 292 440 258 551 q 386 251 325 329 q 531 133 447 174 q 715 92 614 92 z "},"Ớ":{"ha":1426,"x_min":128,"x_max":1297,"o":"m 715 -26 q 473 26 581 -26 q 288 175 365 79 q 169 403 211 271 q 128 693 128 535 q 147 892 128 799 q 201 1066 165 986 q 288 1209 236 1146 q 404 1317 339 1272 q 548 1386 469 1363 q 715 1410 626 1410 q 822 1399 771 1410 q 917 1368 872 1389 q 1060 1391 1008 1372 q 1130 1440 1111 1410 q 1142 1513 1149 1471 q 1114 1604 1136 1554 q 1113 1647 1103 1628 q 1145 1675 1124 1665 q 1189 1680 1167 1685 q 1224 1651 1211 1675 q 1261 1540 1253 1596 q 1252 1434 1269 1483 q 1185 1349 1235 1385 q 1049 1299 1136 1313 q 1232 1050 1167 1207 q 1297 693 1297 893 q 1279 493 1297 588 q 1226 319 1261 399 q 1140 175 1190 239 q 1024 67 1089 111 q 881 -2 958 22 q 715 -26 804 -26 m 715 92 q 841 110 782 92 q 951 163 900 128 q 1042 251 1001 199 q 1110 369 1082 303 q 1153 517 1138 436 q 1168 693 1168 599 q 1135 944 1168 833 q 1041 1133 1101 1056 q 898 1251 981 1210 q 715 1292 815 1292 q 589 1274 649 1292 q 478 1220 529 1256 q 386 1133 426 1185 q 317 1014 346 1081 q 274 867 289 947 q 258 693 258 786 q 292 440 258 551 q 386 251 325 329 q 531 133 447 174 q 715 92 614 92 m 647 1469 q 614 1488 632 1469 q 596 1521 596 1507 q 597 1532 596 1526 q 607 1546 599 1538 l 806 1747 q 819 1758 813 1754 q 833 1763 825 1763 q 864 1750 846 1763 q 895 1721 882 1738 q 908 1689 908 1704 q 905 1672 908 1679 q 888 1654 901 1665 l 674 1483 q 659 1474 665 1478 q 647 1469 653 1469 z "},"Ợ":{"ha":1426,"x_min":128,"x_max":1297,"o":"m 715 -26 q 473 26 581 -26 q 288 175 365 79 q 169 403 211 271 q 128 693 128 535 q 147 892 128 799 q 201 1066 165 986 q 288 1209 236 1146 q 404 1317 339 1272 q 548 1386 469 1363 q 715 1410 626 1410 q 822 1399 771 1410 q 917 1368 872 1389 q 1060 1391 1008 1372 q 1130 1440 1111 1410 q 1142 1513 1149 1471 q 1114 1604 1136 1554 q 1113 1647 1103 1628 q 1145 1675 1124 1665 q 1189 1680 1167 1685 q 1224 1651 1211 1675 q 1261 1540 1253 1596 q 1252 1434 1269 1483 q 1185 1349 1235 1385 q 1049 1299 1136 1313 q 1232 1050 1167 1207 q 1297 693 1297 893 q 1279 493 1297 588 q 1226 319 1261 399 q 1140 175 1190 239 q 1024 67 1089 111 q 881 -2 958 22 q 715 -26 804 -26 m 715 92 q 841 110 782 92 q 951 163 900 128 q 1042 251 1001 199 q 1110 369 1082 303 q 1153 517 1138 436 q 1168 693 1168 599 q 1135 944 1168 833 q 1041 1133 1101 1056 q 898 1251 981 1210 q 715 1292 815 1292 q 589 1274 649 1292 q 478 1220 529 1256 q 386 1133 426 1185 q 317 1014 346 1081 q 274 867 289 947 q 258 693 258 786 q 292 440 258 551 q 386 251 325 329 q 531 133 447 174 q 715 92 614 92 m 714 -326 q 656 -305 675 -326 q 636 -239 636 -283 q 656 -173 636 -194 q 714 -151 675 -151 q 771 -173 751 -151 q 790 -239 790 -194 q 772 -305 792 -283 q 714 -326 751 -326 z "},"Ờ":{"ha":1426,"x_min":128,"x_max":1297,"o":"m 715 -26 q 473 26 581 -26 q 288 175 365 79 q 169 403 211 271 q 128 693 128 535 q 147 892 128 799 q 201 1066 165 986 q 288 1209 236 1146 q 404 1317 339 1272 q 548 1386 469 1363 q 715 1410 626 1410 q 822 1399 771 1410 q 917 1368 872 1389 q 1060 1391 1008 1372 q 1130 1440 1111 1410 q 1142 1513 1149 1471 q 1114 1604 1136 1554 q 1113 1647 1103 1628 q 1145 1675 1124 1665 q 1189 1680 1167 1685 q 1224 1651 1211 1675 q 1261 1540 1253 1596 q 1252 1434 1269 1483 q 1185 1349 1235 1385 q 1049 1299 1136 1313 q 1232 1050 1167 1207 q 1297 693 1297 893 q 1279 493 1297 588 q 1226 319 1261 399 q 1140 175 1190 239 q 1024 67 1089 111 q 881 -2 958 22 q 715 -26 804 -26 m 715 92 q 841 110 782 92 q 951 163 900 128 q 1042 251 1001 199 q 1110 369 1082 303 q 1153 517 1138 436 q 1168 693 1168 599 q 1135 944 1168 833 q 1041 1133 1101 1056 q 898 1251 981 1210 q 715 1292 815 1292 q 589 1274 649 1292 q 478 1220 529 1256 q 386 1133 426 1185 q 317 1014 346 1081 q 274 867 289 947 q 258 693 258 786 q 292 440 258 551 q 386 251 325 329 q 531 133 447 174 q 715 92 614 92 m 781 1469 q 769 1474 775 1469 q 754 1483 763 1478 l 542 1654 q 524 1672 528 1665 q 521 1689 521 1679 q 533 1721 521 1704 q 564 1750 546 1738 q 596 1763 582 1763 q 610 1758 604 1763 q 622 1747 617 1754 l 821 1546 q 832 1532 831 1538 q 833 1521 833 1526 q 815 1488 833 1507 q 781 1469 797 1469 z "},"Ở":{"ha":1426,"x_min":128,"x_max":1297,"o":"m 715 -26 q 473 26 581 -26 q 288 175 365 79 q 169 403 211 271 q 128 693 128 535 q 147 892 128 799 q 201 1066 165 986 q 288 1209 236 1146 q 404 1317 339 1272 q 548 1386 469 1363 q 715 1410 626 1410 q 822 1399 771 1410 q 917 1368 872 1389 q 1060 1391 1008 1372 q 1130 1440 1111 1410 q 1142 1513 1149 1471 q 1114 1604 1136 1554 q 1113 1647 1103 1628 q 1145 1675 1124 1665 q 1189 1680 1167 1685 q 1224 1651 1211 1675 q 1261 1540 1253 1596 q 1252 1434 1269 1483 q 1185 1349 1235 1385 q 1049 1299 1136 1313 q 1232 1050 1167 1207 q 1297 693 1297 893 q 1279 493 1297 588 q 1226 319 1261 399 q 1140 175 1190 239 q 1024 67 1089 111 q 881 -2 958 22 q 715 -26 804 -26 m 715 92 q 841 110 782 92 q 951 163 900 128 q 1042 251 1001 199 q 1110 369 1082 303 q 1153 517 1138 436 q 1168 693 1168 599 q 1135 944 1168 833 q 1041 1133 1101 1056 q 898 1251 981 1210 q 715 1292 815 1292 q 589 1274 649 1292 q 478 1220 529 1256 q 386 1133 426 1185 q 317 1014 346 1081 q 274 867 289 947 q 258 693 258 786 q 292 440 258 551 q 386 251 325 329 q 531 133 447 174 q 715 92 614 92 m 729 1800 q 839 1767 797 1800 q 881 1679 881 1735 q 865 1617 881 1644 q 810 1561 849 1590 q 785 1536 792 1547 q 781 1511 778 1525 l 782 1501 q 774 1475 786 1486 q 744 1460 763 1464 q 710 1460 726 1456 q 688 1478 694 1464 l 672 1515 q 673 1574 661 1547 q 715 1624 685 1601 q 742 1649 735 1638 q 750 1671 750 1660 q 738 1690 750 1682 q 707 1699 726 1699 q 665 1693 688 1699 q 631 1678 643 1688 q 572 1700 597 1657 q 581 1754 556 1732 q 649 1788 610 1775 q 729 1800 689 1800 z "},"Ỡ":{"ha":1426,"x_min":128,"x_max":1297,"o":"m 715 -26 q 473 26 581 -26 q 288 175 365 79 q 169 403 211 271 q 128 693 128 535 q 147 892 128 799 q 201 1066 165 986 q 288 1209 236 1146 q 404 1317 339 1272 q 548 1386 469 1363 q 715 1410 626 1410 q 822 1399 771 1410 q 917 1368 872 1389 q 1060 1391 1008 1372 q 1130 1440 1111 1410 q 1142 1513 1149 1471 q 1114 1604 1136 1554 q 1113 1647 1103 1628 q 1145 1675 1124 1665 q 1189 1680 1167 1685 q 1224 1651 1211 1675 q 1261 1540 1253 1596 q 1252 1434 1269 1483 q 1185 1349 1235 1385 q 1049 1299 1136 1313 q 1232 1050 1167 1207 q 1297 693 1297 893 q 1279 493 1297 588 q 1226 319 1261 399 q 1140 175 1190 239 q 1024 67 1089 111 q 881 -2 958 22 q 715 -26 804 -26 m 715 92 q 841 110 782 92 q 951 163 900 128 q 1042 251 1001 199 q 1110 369 1082 303 q 1153 517 1138 436 q 1168 693 1168 599 q 1135 944 1168 833 q 1041 1133 1101 1056 q 898 1251 981 1210 q 715 1292 815 1292 q 589 1274 649 1292 q 478 1220 529 1256 q 386 1133 426 1185 q 317 1014 346 1081 q 274 867 289 947 q 258 693 258 786 q 292 440 258 551 q 386 251 325 329 q 531 133 447 174 q 715 92 614 92 m 503 1510 q 456 1546 456 1510 q 491 1678 457 1635 q 592 1722 525 1722 q 667 1706 633 1722 q 729 1671 701 1690 q 781 1635 757 1651 q 828 1619 804 1619 q 856 1641 846 1619 q 869 1694 867 1663 q 917 1725 871 1725 q 955 1715 943 1725 q 967 1686 967 1706 q 931 1556 965 1600 q 829 1511 897 1511 q 753 1526 788 1511 q 690 1562 718 1542 q 638 1598 661 1582 q 593 1614 614 1614 q 565 1597 574 1614 q 553 1546 556 1581 q 539 1519 551 1528 q 503 1510 526 1510 z "},"Ŕ":{"ha":1069,"x_min":199,"x_max":1035,"o":"m 260 -19 q 214 -10 229 -19 q 199 19 199 0 l 199 1347 q 215 1376 199 1367 q 261 1386 231 1386 l 515 1386 q 776 1353 674 1386 q 928 1248 879 1321 q 978 1054 978 1175 q 961 938 978 993 q 913 838 944 883 q 836 757 882 793 q 733 694 790 721 q 606 651 675 668 q 457 628 536 635 q 626 435 538 531 q 811 249 715 339 q 1011 75 907 158 q 1031 42 1026 64 q 1008 -6 1035 21 q 971 -23 990 -22 q 931 -7 951 -24 q 712 188 818 85 q 508 397 606 290 q 321 610 410 504 l 321 19 q 306 -10 321 0 q 260 -19 290 -19 m 321 725 q 453 733 392 726 q 569 752 515 739 q 668 784 624 765 q 747 829 713 803 q 806 890 782 856 q 841 965 829 924 q 853 1054 853 1006 q 818 1183 853 1135 q 713 1253 783 1232 q 532 1275 642 1275 l 321 1275 l 321 725 m 469 1469 q 436 1488 454 1469 q 418 1521 418 1507 q 419 1532 418 1526 q 429 1546 421 1538 l 628 1747 q 641 1758 635 1754 q 656 1763 647 1763 q 686 1750 668 1763 q 717 1721 704 1738 q 731 1689 731 1704 q 727 1672 731 1679 q 710 1654 724 1665 l 496 1483 q 481 1474 488 1478 q 469 1469 475 1469 z "},"Ř":{"ha":1069,"x_min":199,"x_max":1035,"o":"m 260 -19 q 214 -10 229 -19 q 199 19 199 0 l 199 1347 q 215 1376 199 1367 q 261 1386 231 1386 l 515 1386 q 776 1353 674 1386 q 928 1248 879 1321 q 978 1054 978 1175 q 961 938 978 993 q 913 838 944 883 q 836 757 882 793 q 733 694 790 721 q 606 651 675 668 q 457 628 536 635 q 626 435 538 531 q 811 249 715 339 q 1011 75 907 158 q 1031 42 1026 64 q 1008 -6 1035 21 q 971 -23 990 -22 q 931 -7 951 -24 q 712 188 818 85 q 508 397 606 290 q 321 610 410 504 l 321 19 q 306 -10 321 0 q 260 -19 290 -19 m 321 725 q 453 733 392 726 q 569 752 515 739 q 668 784 624 765 q 747 829 713 803 q 806 890 782 856 q 841 965 829 924 q 853 1054 853 1006 q 818 1183 853 1135 q 713 1253 783 1232 q 532 1275 642 1275 l 321 1275 l 321 725 m 751 1763 q 783 1747 765 1763 q 800 1715 800 1731 q 799 1707 800 1713 q 792 1693 799 1701 l 597 1497 q 576 1479 588 1489 q 536 1469 564 1469 q 498 1479 510 1469 q 478 1497 486 1489 l 282 1693 q 274 1707 274 1701 q 274 1715 274 1713 q 291 1747 274 1731 q 322 1763 308 1763 q 339 1758 331 1763 q 357 1746 347 1753 l 536 1608 l 717 1746 q 735 1758 728 1753 q 751 1763 742 1763 z "},"Ŗ":{"ha":1069,"x_min":199,"x_max":1035,"o":"m 260 -19 q 214 -10 229 -19 q 199 19 199 0 l 199 1347 q 215 1376 199 1367 q 261 1386 231 1386 l 515 1386 q 776 1353 674 1386 q 928 1248 879 1321 q 978 1054 978 1175 q 961 938 978 993 q 913 838 944 883 q 836 757 882 793 q 733 694 790 721 q 606 651 675 668 q 457 628 536 635 q 626 435 538 531 q 811 249 715 339 q 1011 75 907 158 q 1031 42 1026 64 q 1008 -6 1035 21 q 971 -23 990 -22 q 931 -7 951 -24 q 712 188 818 85 q 508 397 606 290 q 321 610 410 504 l 321 19 q 306 -10 321 0 q 260 -19 290 -19 m 321 725 q 453 733 392 726 q 569 752 515 739 q 668 784 624 765 q 747 829 713 803 q 806 890 782 856 q 841 965 829 924 q 853 1054 853 1006 q 818 1183 853 1135 q 713 1253 783 1232 q 532 1275 642 1275 l 321 1275 l 321 725 m 514 -411 q 493 -392 497 -404 q 497 -361 489 -381 q 522 -285 514 -318 q 533 -220 531 -253 q 535 -146 535 -187 q 548 -112 535 -122 q 588 -103 561 -103 q 637 -118 619 -103 q 654 -160 654 -133 q 644 -235 654 -194 q 617 -315 635 -275 q 578 -389 600 -356 q 550 -415 564 -411 q 514 -411 536 -419 z "},"Ś":{"ha":1061,"x_min":108,"x_max":953,"o":"m 511 -26 q 407 -16 461 -26 q 300 16 353 -6 q 200 71 247 38 q 119 151 153 104 q 109 178 108 165 q 129 211 110 192 q 163 233 150 232 q 203 211 176 235 q 283 152 238 179 q 384 108 328 125 q 511 92 440 92 q 647 108 588 92 q 745 160 706 125 q 805 246 785 194 q 825 365 825 297 q 804 467 825 425 q 745 541 783 510 q 656 597 707 572 q 540 643 604 621 q 431 687 486 663 q 326 744 376 711 q 238 822 276 776 q 176 926 199 867 q 154 1067 154 986 q 183 1212 154 1149 q 266 1319 213 1275 q 392 1387 319 1364 q 549 1410 464 1410 q 691 1389 626 1410 q 810 1331 756 1368 q 913 1249 864 1294 q 925 1219 928 1233 q 907 1189 922 1204 q 874 1164 890 1171 q 843 1169 858 1157 q 758 1233 801 1206 q 664 1276 715 1261 q 549 1292 613 1292 q 437 1277 486 1292 q 353 1234 388 1263 q 301 1163 319 1206 q 283 1067 283 1121 q 305 951 283 999 q 366 871 326 904 q 458 813 406 838 q 572 767 511 789 q 705 715 638 744 q 828 640 772 685 q 919 528 885 594 q 953 367 953 461 q 922 198 953 271 q 834 76 892 125 q 694 0 776 26 q 511 -26 613 -26 m 485 1469 q 451 1488 469 1469 q 433 1521 433 1507 q 435 1532 433 1526 q 444 1546 436 1538 l 643 1747 q 656 1758 650 1754 q 671 1763 663 1763 q 701 1750 683 1763 q 733 1721 719 1738 q 746 1689 746 1704 q 742 1672 746 1679 q 725 1654 739 1665 l 511 1483 q 497 1474 503 1478 q 485 1469 490 1469 z "},"Š":{"ha":1061,"x_min":108,"x_max":953,"o":"m 511 -26 q 407 -16 461 -26 q 300 16 353 -6 q 200 71 247 38 q 119 151 153 104 q 109 178 108 165 q 129 211 110 192 q 163 233 150 232 q 203 211 176 235 q 283 152 238 179 q 384 108 328 125 q 511 92 440 92 q 647 108 588 92 q 745 160 706 125 q 805 246 785 194 q 825 365 825 297 q 804 467 825 425 q 745 541 783 510 q 656 597 707 572 q 540 643 604 621 q 431 687 486 663 q 326 744 376 711 q 238 822 276 776 q 176 926 199 867 q 154 1067 154 986 q 183 1212 154 1149 q 266 1319 213 1275 q 392 1387 319 1364 q 549 1410 464 1410 q 691 1389 626 1410 q 810 1331 756 1368 q 913 1249 864 1294 q 925 1219 928 1233 q 907 1189 922 1204 q 874 1164 890 1171 q 843 1169 858 1157 q 758 1233 801 1206 q 664 1276 715 1261 q 549 1292 613 1292 q 437 1277 486 1292 q 353 1234 388 1263 q 301 1163 319 1206 q 283 1067 283 1121 q 305 951 283 999 q 366 871 326 904 q 458 813 406 838 q 572 767 511 789 q 705 715 638 744 q 828 640 772 685 q 919 528 885 594 q 953 367 953 461 q 922 198 953 271 q 834 76 892 125 q 694 0 776 26 q 511 -26 613 -26 m 767 1763 q 798 1747 781 1763 q 815 1715 815 1731 q 815 1707 815 1713 q 807 1693 814 1701 l 613 1497 q 591 1479 603 1489 q 551 1469 579 1469 q 513 1479 525 1469 q 493 1497 501 1489 l 297 1693 q 289 1707 289 1701 q 289 1715 289 1713 q 306 1747 289 1731 q 338 1763 324 1763 q 354 1758 346 1763 q 372 1746 363 1753 l 551 1608 l 732 1746 q 750 1758 743 1753 q 767 1763 757 1763 z "},"Ş":{"ha":1061,"x_min":108,"x_max":953,"o":"m 511 -26 q 407 -16 461 -26 q 300 16 353 -6 q 200 71 247 38 q 119 151 153 104 q 109 178 108 165 q 129 211 110 192 q 163 233 150 232 q 203 211 176 235 q 283 152 238 179 q 384 108 328 125 q 511 92 440 92 q 647 108 588 92 q 745 160 706 125 q 805 246 785 194 q 825 365 825 297 q 804 467 825 425 q 745 541 783 510 q 656 597 707 572 q 540 643 604 621 q 431 687 486 663 q 326 744 376 711 q 238 822 276 776 q 176 926 199 867 q 154 1067 154 986 q 183 1212 154 1149 q 266 1319 213 1275 q 392 1387 319 1364 q 549 1410 464 1410 q 691 1389 626 1410 q 810 1331 756 1368 q 913 1249 864 1294 q 925 1219 928 1233 q 907 1189 922 1204 q 874 1164 890 1171 q 843 1169 858 1157 q 758 1233 801 1206 q 664 1276 715 1261 q 549 1292 613 1292 q 437 1277 486 1292 q 353 1234 388 1263 q 301 1163 319 1206 q 283 1067 283 1121 q 305 951 283 999 q 366 871 326 904 q 458 813 406 838 q 572 767 511 789 q 705 715 638 744 q 828 640 772 685 q 919 528 885 594 q 953 367 953 461 q 922 198 953 271 q 834 76 892 125 q 694 0 776 26 q 511 -26 613 -26 m 507 -376 q 438 -369 483 -376 q 356 -337 393 -361 q 338 -312 340 -328 q 343 -281 336 -296 q 365 -256 353 -261 q 396 -258 378 -250 q 438 -272 411 -264 q 496 -281 465 -281 q 558 -270 540 -281 q 576 -232 576 -260 q 554 -194 576 -210 q 471 -187 532 -179 q 447 -186 456 -189 q 431 -174 438 -183 q 422 -154 422 -164 q 425 -135 421 -144 l 494 18 l 585 18 l 510 -146 l 468 -124 q 580 -108 531 -100 q 658 -149 629 -117 q 686 -232 686 -182 q 665 -310 686 -278 q 606 -359 644 -342 q 507 -376 567 -376 z "},"Ŝ":{"ha":1061,"x_min":108,"x_max":953,"o":"m 511 -26 q 407 -16 461 -26 q 300 16 353 -6 q 200 71 247 38 q 119 151 153 104 q 109 178 108 165 q 129 211 110 192 q 163 233 150 232 q 203 211 176 235 q 283 152 238 179 q 384 108 328 125 q 511 92 440 92 q 647 108 588 92 q 745 160 706 125 q 805 246 785 194 q 825 365 825 297 q 804 467 825 425 q 745 541 783 510 q 656 597 707 572 q 540 643 604 621 q 431 687 486 663 q 326 744 376 711 q 238 822 276 776 q 176 926 199 867 q 154 1067 154 986 q 183 1212 154 1149 q 266 1319 213 1275 q 392 1387 319 1364 q 549 1410 464 1410 q 691 1389 626 1410 q 810 1331 756 1368 q 913 1249 864 1294 q 925 1219 928 1233 q 907 1189 922 1204 q 874 1164 890 1171 q 843 1169 858 1157 q 758 1233 801 1206 q 664 1276 715 1261 q 549 1292 613 1292 q 437 1277 486 1292 q 353 1234 388 1263 q 301 1163 319 1206 q 283 1067 283 1121 q 305 951 283 999 q 366 871 326 904 q 458 813 406 838 q 572 767 511 789 q 705 715 638 744 q 828 640 772 685 q 919 528 885 594 q 953 367 953 461 q 922 198 953 271 q 834 76 892 125 q 694 0 776 26 q 511 -26 613 -26 m 338 1469 q 306 1486 324 1469 q 289 1517 289 1503 q 289 1526 289 1521 q 297 1539 289 1532 l 490 1735 q 513 1753 500 1744 q 551 1763 525 1763 q 590 1753 578 1763 q 611 1735 601 1744 l 807 1539 q 815 1526 814 1532 q 815 1517 815 1521 q 798 1486 815 1503 q 767 1469 781 1469 q 750 1474 757 1469 q 732 1488 743 1479 l 551 1624 l 372 1488 q 354 1474 363 1479 q 338 1469 346 1469 z "},"Ș":{"ha":1061,"x_min":108,"x_max":953,"o":"m 511 -26 q 407 -16 461 -26 q 300 16 353 -6 q 200 71 247 38 q 119 151 153 104 q 109 178 108 165 q 129 211 110 192 q 163 233 150 232 q 203 211 176 235 q 283 152 238 179 q 384 108 328 125 q 511 92 440 92 q 647 108 588 92 q 745 160 706 125 q 805 246 785 194 q 825 365 825 297 q 804 467 825 425 q 745 541 783 510 q 656 597 707 572 q 540 643 604 621 q 431 687 486 663 q 326 744 376 711 q 238 822 276 776 q 176 926 199 867 q 154 1067 154 986 q 183 1212 154 1149 q 266 1319 213 1275 q 392 1387 319 1364 q 549 1410 464 1410 q 691 1389 626 1410 q 810 1331 756 1368 q 913 1249 864 1294 q 925 1219 928 1233 q 907 1189 922 1204 q 874 1164 890 1171 q 843 1169 858 1157 q 758 1233 801 1206 q 664 1276 715 1261 q 549 1292 613 1292 q 437 1277 486 1292 q 353 1234 388 1263 q 301 1163 319 1206 q 283 1067 283 1121 q 305 951 283 999 q 366 871 326 904 q 458 813 406 838 q 572 767 511 789 q 705 715 638 744 q 828 640 772 685 q 919 528 885 594 q 953 367 953 461 q 922 198 953 271 q 834 76 892 125 q 694 0 776 26 q 511 -26 613 -26 m 446 -411 q 425 -392 429 -404 q 429 -361 421 -381 q 454 -285 446 -318 q 465 -220 463 -253 q 467 -146 467 -187 q 480 -112 467 -122 q 519 -103 493 -103 q 569 -118 551 -103 q 586 -160 586 -133 q 576 -235 586 -194 q 549 -315 567 -275 q 510 -389 532 -356 q 482 -415 496 -411 q 446 -411 468 -419 z "},"Ŧ":{"ha":1064,"x_min":26,"x_max":1038,"o":"m 532 -21 q 471 18 471 -21 l 471 1275 l 65 1275 q 35 1288 44 1275 q 26 1331 26 1300 q 35 1374 26 1363 q 65 1386 44 1386 l 1000 1386 q 1029 1374 1021 1386 q 1038 1331 1038 1363 q 1029 1288 1038 1300 q 1000 1275 1021 1275 l 593 1275 l 593 18 q 578 -11 593 -1 q 532 -21 563 -21 m 258 642 q 226 657 233 642 q 219 690 219 672 q 226 726 219 710 q 258 743 233 743 l 807 743 q 838 726 831 743 q 844 690 844 710 q 838 657 844 672 q 807 642 831 642 l 258 642 z "},"Ť":{"ha":1064,"x_min":26,"x_max":1038,"o":"m 532 -21 q 471 18 471 -21 l 471 1275 l 65 1275 q 35 1288 44 1275 q 26 1331 26 1300 q 35 1374 26 1363 q 65 1386 44 1386 l 1000 1386 q 1029 1374 1021 1386 q 1038 1331 1038 1363 q 1029 1288 1038 1300 q 1000 1275 1021 1275 l 593 1275 l 593 18 q 578 -11 593 -1 q 532 -21 563 -21 m 747 1763 q 778 1747 761 1763 q 796 1715 796 1731 q 795 1707 796 1713 q 788 1693 794 1701 l 593 1497 q 572 1479 583 1489 q 532 1469 560 1469 q 494 1479 506 1469 q 474 1497 482 1489 l 278 1693 q 269 1707 269 1701 q 269 1715 269 1713 q 287 1747 269 1731 q 318 1763 304 1763 q 335 1758 326 1763 q 353 1746 343 1753 l 532 1608 l 713 1746 q 731 1758 724 1753 q 747 1763 738 1763 z "},"Ţ":{"ha":1064,"x_min":26,"x_max":1038,"o":"m 532 -21 q 471 18 471 -21 l 471 1275 l 65 1275 q 35 1288 44 1275 q 26 1331 26 1300 q 35 1374 26 1363 q 65 1386 44 1386 l 1000 1386 q 1029 1374 1021 1386 q 1038 1331 1038 1363 q 1029 1288 1038 1300 q 1000 1275 1021 1275 l 593 1275 l 593 18 q 578 -11 593 -1 q 532 -21 563 -21 m 511 -376 q 442 -369 488 -376 q 360 -337 397 -361 q 342 -312 344 -328 q 347 -281 340 -296 q 369 -256 357 -261 q 400 -258 382 -250 q 442 -272 415 -264 q 500 -281 469 -281 q 563 -270 544 -281 q 581 -232 581 -260 q 558 -194 581 -210 q 475 -187 536 -179 q 451 -186 460 -189 q 435 -174 442 -183 q 426 -154 426 -164 q 429 -135 425 -144 l 499 18 l 589 18 l 514 -146 l 472 -124 q 584 -108 535 -100 q 662 -149 633 -117 q 690 -232 690 -182 q 669 -310 690 -278 q 610 -359 649 -342 q 511 -376 571 -376 z "},"Ț":{"ha":1064,"x_min":26,"x_max":1038,"o":"m 532 -21 q 471 18 471 -21 l 471 1275 l 65 1275 q 35 1288 44 1275 q 26 1331 26 1300 q 35 1374 26 1363 q 65 1386 44 1386 l 1000 1386 q 1029 1374 1021 1386 q 1038 1331 1038 1363 q 1029 1288 1038 1300 q 1000 1275 1021 1275 l 593 1275 l 593 18 q 578 -11 593 -1 q 532 -21 563 -21 m 450 -411 q 429 -392 433 -404 q 433 -361 425 -381 q 458 -285 450 -318 q 469 -220 467 -253 q 471 -146 471 -187 q 484 -112 471 -122 q 524 -103 497 -103 q 573 -118 556 -103 q 590 -160 590 -133 q 581 -235 590 -194 q 553 -315 571 -275 q 514 -389 536 -356 q 486 -415 500 -411 q 450 -411 472 -419 z "},"Ú":{"ha":1331,"x_min":196,"x_max":1135,"o":"m 668 -26 q 469 4 557 -26 q 321 94 382 35 q 228 239 260 154 q 196 432 196 324 l 196 1372 q 211 1401 196 1392 q 257 1410 226 1410 q 303 1401 288 1410 q 318 1372 318 1392 l 318 432 q 359 249 318 325 q 478 132 400 172 q 668 92 557 92 q 856 132 779 92 q 972 249 932 172 q 1013 432 1013 325 l 1013 1372 q 1028 1401 1013 1392 q 1074 1410 1043 1410 q 1135 1372 1135 1410 l 1135 432 q 1079 185 1135 288 q 919 28 1024 82 q 668 -26 815 -26 m 599 1469 q 565 1488 583 1469 q 547 1521 547 1507 q 549 1532 547 1526 q 558 1546 550 1538 l 757 1747 q 770 1758 764 1754 q 785 1763 776 1763 q 815 1750 797 1763 q 847 1721 833 1738 q 860 1689 860 1704 q 856 1672 860 1679 q 839 1654 853 1665 l 625 1483 q 610 1474 617 1478 q 599 1469 604 1469 z "},"Ŭ":{"ha":1331,"x_min":196,"x_max":1135,"o":"m 668 -26 q 469 4 557 -26 q 321 94 382 35 q 228 239 260 154 q 196 432 196 324 l 196 1372 q 211 1401 196 1392 q 257 1410 226 1410 q 303 1401 288 1410 q 318 1372 318 1392 l 318 432 q 359 249 318 325 q 478 132 400 172 q 668 92 557 92 q 856 132 779 92 q 972 249 932 172 q 1013 432 1013 325 l 1013 1372 q 1028 1401 1013 1392 q 1074 1410 1043 1410 q 1135 1372 1135 1410 l 1135 432 q 1079 185 1135 288 q 919 28 1024 82 q 668 -26 815 -26 m 665 1469 q 490 1532 557 1469 q 413 1721 422 1594 q 425 1749 411 1738 q 465 1761 439 1761 q 496 1751 488 1761 q 510 1721 504 1740 q 565 1625 528 1657 q 665 1593 601 1593 q 767 1625 729 1593 q 821 1721 804 1657 q 834 1751 826 1740 q 864 1761 842 1761 q 905 1749 890 1761 q 918 1721 919 1738 q 878 1585 913 1640 q 790 1499 844 1529 q 665 1469 735 1469 z "},"Ǔ":{"ha":1331,"x_min":196,"x_max":1135,"o":"m 668 -26 q 469 4 557 -26 q 321 94 382 35 q 228 239 260 154 q 196 432 196 324 l 196 1372 q 211 1401 196 1392 q 257 1410 226 1410 q 303 1401 288 1410 q 318 1372 318 1392 l 318 432 q 359 249 318 325 q 478 132 400 172 q 668 92 557 92 q 856 132 779 92 q 972 249 932 172 q 1013 432 1013 325 l 1013 1372 q 1028 1401 1013 1392 q 1074 1410 1043 1410 q 1135 1372 1135 1410 l 1135 432 q 1079 185 1135 288 q 919 28 1024 82 q 668 -26 815 -26 m 881 1763 q 912 1747 894 1763 q 929 1715 929 1731 q 928 1707 929 1713 q 921 1693 928 1701 l 726 1497 q 705 1479 717 1489 q 665 1469 693 1469 q 627 1479 639 1469 q 607 1497 615 1489 l 411 1693 q 403 1707 403 1701 q 403 1715 403 1713 q 420 1747 403 1731 q 451 1763 438 1763 q 468 1758 460 1763 q 486 1746 476 1753 l 665 1608 l 846 1746 q 864 1758 857 1753 q 881 1763 871 1763 z "},"Û":{"ha":1331,"x_min":196,"x_max":1135,"o":"m 668 -26 q 469 4 557 -26 q 321 94 382 35 q 228 239 260 154 q 196 432 196 324 l 196 1372 q 211 1401 196 1392 q 257 1410 226 1410 q 303 1401 288 1410 q 318 1372 318 1392 l 318 432 q 359 249 318 325 q 478 132 400 172 q 668 92 557 92 q 856 132 779 92 q 972 249 932 172 q 1013 432 1013 325 l 1013 1372 q 1028 1401 1013 1392 q 1074 1410 1043 1410 q 1135 1372 1135 1410 l 1135 432 q 1079 185 1135 288 q 919 28 1024 82 q 668 -26 815 -26 m 451 1469 q 420 1486 438 1469 q 403 1517 403 1503 q 403 1526 403 1521 q 411 1539 403 1532 l 604 1735 q 626 1753 614 1744 q 665 1763 639 1763 q 703 1753 692 1763 q 725 1735 715 1744 l 921 1539 q 928 1526 928 1532 q 929 1517 929 1521 q 912 1486 929 1503 q 881 1469 894 1469 q 864 1474 871 1469 q 846 1488 857 1479 l 665 1624 l 486 1488 q 468 1474 476 1479 q 451 1469 460 1469 z "},"Ü":{"ha":1331,"x_min":196,"x_max":1135,"o":"m 668 -26 q 469 4 557 -26 q 321 94 382 35 q 228 239 260 154 q 196 432 196 324 l 196 1372 q 211 1401 196 1392 q 257 1410 226 1410 q 303 1401 288 1410 q 318 1372 318 1392 l 318 432 q 359 249 318 325 q 478 132 400 172 q 668 92 557 92 q 856 132 779 92 q 972 249 932 172 q 1013 432 1013 325 l 1013 1372 q 1028 1401 1013 1392 q 1074 1410 1043 1410 q 1135 1372 1135 1410 l 1135 432 q 1079 185 1135 288 q 919 28 1024 82 q 668 -26 815 -26 m 494 1517 q 436 1538 456 1517 q 417 1604 417 1560 q 436 1670 417 1649 q 494 1692 456 1692 q 552 1670 533 1692 q 571 1604 571 1649 q 553 1538 574 1560 q 494 1517 533 1517 m 838 1517 q 779 1538 799 1517 q 760 1604 760 1560 q 779 1670 760 1649 q 838 1692 799 1692 q 894 1670 875 1692 q 914 1604 914 1649 q 895 1539 915 1561 q 838 1517 875 1517 z "},"Ù":{"ha":1331,"x_min":196,"x_max":1135,"o":"m 668 -26 q 469 4 557 -26 q 321 94 382 35 q 228 239 260 154 q 196 432 196 324 l 196 1372 q 211 1401 196 1392 q 257 1410 226 1410 q 303 1401 288 1410 q 318 1372 318 1392 l 318 432 q 359 249 318 325 q 478 132 400 172 q 668 92 557 92 q 856 132 779 92 q 972 249 932 172 q 1013 432 1013 325 l 1013 1372 q 1028 1401 1013 1392 q 1074 1410 1043 1410 q 1135 1372 1135 1410 l 1135 432 q 1079 185 1135 288 q 919 28 1024 82 q 668 -26 815 -26 m 732 1469 q 720 1474 726 1469 q 706 1483 714 1478 l 493 1654 q 476 1672 479 1665 q 472 1689 472 1679 q 485 1721 472 1704 q 515 1750 497 1738 q 547 1763 533 1763 q 562 1758 556 1763 q 574 1747 568 1754 l 772 1546 q 783 1532 782 1538 q 785 1521 785 1526 q 767 1488 785 1507 q 732 1469 749 1469 z "},"Ű":{"ha":1331,"x_min":196,"x_max":1135,"o":"m 668 -26 q 469 4 557 -26 q 321 94 382 35 q 228 239 260 154 q 196 432 196 324 l 196 1372 q 211 1401 196 1392 q 257 1410 226 1410 q 303 1401 288 1410 q 318 1372 318 1392 l 318 432 q 359 249 318 325 q 478 132 400 172 q 668 92 557 92 q 856 132 779 92 q 972 249 932 172 q 1013 432 1013 325 l 1013 1372 q 1028 1401 1013 1392 q 1074 1410 1043 1410 q 1135 1372 1135 1410 l 1135 432 q 1079 185 1135 288 q 919 28 1024 82 q 668 -26 815 -26 m 526 1469 q 493 1488 511 1469 q 475 1521 475 1507 q 476 1531 475 1526 q 488 1546 478 1536 l 665 1747 q 680 1758 672 1754 q 696 1763 688 1763 q 727 1751 711 1763 q 754 1722 743 1739 q 765 1692 765 1706 q 762 1674 765 1682 q 744 1656 758 1667 l 553 1483 q 538 1474 544 1478 q 526 1469 532 1469 m 793 1469 q 760 1488 778 1469 q 742 1521 742 1507 q 743 1532 742 1526 q 754 1546 744 1538 l 938 1747 q 952 1758 944 1754 q 969 1763 960 1763 q 999 1751 983 1763 q 1027 1722 1015 1739 q 1039 1692 1039 1706 q 1035 1674 1039 1682 q 1018 1656 1031 1667 l 821 1483 q 806 1474 813 1478 q 793 1469 799 1469 z "},"Ū":{"ha":1331,"x_min":196,"x_max":1135,"o":"m 668 -26 q 469 4 557 -26 q 321 94 382 35 q 228 239 260 154 q 196 432 196 324 l 196 1372 q 211 1401 196 1392 q 257 1410 226 1410 q 303 1401 288 1410 q 318 1372 318 1392 l 318 432 q 359 249 318 325 q 478 132 400 172 q 668 92 557 92 q 856 132 779 92 q 972 249 932 172 q 1013 432 1013 325 l 1013 1372 q 1028 1401 1013 1392 q 1074 1410 1043 1410 q 1135 1372 1135 1410 l 1135 432 q 1079 185 1135 288 q 919 28 1024 82 q 668 -26 815 -26 m 474 1556 q 443 1572 450 1556 q 436 1613 436 1588 q 443 1656 436 1639 q 474 1674 450 1674 l 857 1674 q 888 1656 882 1674 q 894 1613 894 1639 q 888 1572 894 1588 q 857 1556 882 1556 l 474 1556 z "},"Ų":{"ha":1331,"x_min":196,"x_max":1135,"o":"m 668 -26 q 469 4 557 -26 q 321 94 382 35 q 228 239 260 154 q 196 432 196 324 l 196 1372 q 211 1401 196 1392 q 257 1410 226 1410 q 303 1401 288 1410 q 318 1372 318 1392 l 318 432 q 359 249 318 325 q 478 132 400 172 q 668 92 557 92 q 856 132 779 92 q 972 249 932 172 q 1013 432 1013 325 l 1013 1372 q 1028 1401 1013 1392 q 1074 1410 1043 1410 q 1135 1372 1135 1410 l 1135 432 q 1079 185 1135 288 q 919 28 1024 82 q 668 -26 815 -26 m 779 -344 q 685 -314 724 -344 q 647 -224 647 -283 q 660 -155 647 -187 q 697 -90 672 -122 q 756 -24 721 -58 q 839 47 792 10 l 925 49 l 925 36 q 864 -19 893 10 q 810 -76 835 -47 q 772 -132 786 -104 q 757 -185 757 -160 q 770 -226 757 -212 q 804 -240 783 -240 q 844 -229 826 -240 q 888 -196 863 -218 q 910 -187 897 -189 q 939 -199 924 -186 q 958 -229 953 -211 q 956 -258 963 -247 q 906 -306 938 -286 q 841 -335 875 -325 q 779 -344 807 -344 z "},"Ů":{"ha":1331,"x_min":196,"x_max":1135,"o":"m 668 -26 q 469 4 557 -26 q 321 94 382 35 q 228 239 260 154 q 196 432 196 324 l 196 1372 q 211 1401 196 1392 q 257 1410 226 1410 q 303 1401 288 1410 q 318 1372 318 1392 l 318 432 q 359 249 318 325 q 478 132 400 172 q 668 92 557 92 q 856 132 779 92 q 972 249 932 172 q 1013 432 1013 325 l 1013 1372 q 1028 1401 1013 1392 q 1074 1410 1043 1410 q 1135 1372 1135 1410 l 1135 432 q 1079 185 1135 288 q 919 28 1024 82 q 668 -26 815 -26 m 665 1458 q 567 1481 610 1458 q 499 1541 524 1503 q 474 1629 474 1579 q 499 1716 474 1678 q 567 1776 524 1754 q 665 1797 610 1797 q 766 1776 722 1797 q 835 1716 810 1754 q 860 1629 860 1678 q 835 1541 860 1579 q 766 1481 810 1503 q 665 1458 722 1458 m 665 1543 q 735 1568 708 1543 q 761 1629 761 1593 q 735 1688 761 1664 q 665 1713 708 1713 q 598 1688 624 1713 q 572 1629 572 1664 q 598 1568 572 1593 q 665 1543 624 1543 z "},"Ũ":{"ha":1331,"x_min":196,"x_max":1135,"o":"m 668 -26 q 469 4 557 -26 q 321 94 382 35 q 228 239 260 154 q 196 432 196 324 l 196 1372 q 211 1401 196 1392 q 257 1410 226 1410 q 303 1401 288 1410 q 318 1372 318 1392 l 318 432 q 359 249 318 325 q 478 132 400 172 q 668 92 557 92 q 856 132 779 92 q 972 249 932 172 q 1013 432 1013 325 l 1013 1372 q 1028 1401 1013 1392 q 1074 1410 1043 1410 q 1135 1372 1135 1410 l 1135 432 q 1079 185 1135 288 q 919 28 1024 82 q 668 -26 815 -26 m 454 1510 q 407 1546 407 1510 q 442 1678 408 1635 q 543 1722 476 1722 q 619 1706 585 1722 q 681 1671 653 1690 q 732 1635 708 1651 q 779 1619 756 1619 q 808 1641 797 1619 q 821 1694 818 1663 q 868 1725 822 1725 q 906 1715 894 1725 q 918 1686 918 1706 q 883 1556 917 1600 q 781 1511 849 1511 q 704 1526 739 1511 q 641 1562 669 1542 q 589 1598 613 1582 q 544 1614 565 1614 q 516 1597 525 1614 q 504 1546 507 1581 q 490 1519 503 1528 q 454 1510 478 1510 z "},"Ǘ":{"ha":1331,"x_min":196,"x_max":1135,"o":"m 668 -26 q 469 4 557 -26 q 321 94 382 35 q 228 239 260 154 q 196 432 196 324 l 196 1372 q 211 1401 196 1392 q 257 1410 226 1410 q 303 1401 288 1410 q 318 1372 318 1392 l 318 432 q 359 249 318 325 q 478 132 400 172 q 668 92 557 92 q 856 132 779 92 q 972 249 932 172 q 1013 432 1013 325 l 1013 1372 q 1028 1401 1013 1392 q 1074 1410 1043 1410 q 1135 1372 1135 1410 l 1135 432 q 1079 185 1135 288 q 919 28 1024 82 q 668 -26 815 -26 m 494 1517 q 436 1538 456 1517 q 417 1604 417 1560 q 436 1670 417 1649 q 494 1692 456 1692 q 552 1670 533 1692 q 571 1604 571 1649 q 553 1538 574 1560 q 494 1517 533 1517 m 838 1517 q 779 1538 799 1517 q 760 1604 760 1560 q 779 1670 760 1649 q 838 1692 799 1692 q 894 1670 875 1692 q 914 1604 914 1649 q 895 1539 915 1561 q 838 1517 875 1517 m 599 1731 q 565 1749 583 1731 q 547 1782 547 1768 q 549 1793 547 1788 q 558 1807 550 1799 l 757 2008 q 770 2019 764 2015 q 785 2024 776 2024 q 815 2011 797 2024 q 847 1982 833 1999 q 860 1950 860 1965 q 856 1933 860 1940 q 839 1915 853 1926 l 625 1744 q 610 1735 617 1739 q 599 1731 604 1731 z "},"Ǚ":{"ha":1331,"x_min":196,"x_max":1135,"o":"m 668 -26 q 469 4 557 -26 q 321 94 382 35 q 228 239 260 154 q 196 432 196 324 l 196 1372 q 211 1401 196 1392 q 257 1410 226 1410 q 303 1401 288 1410 q 318 1372 318 1392 l 318 432 q 359 249 318 325 q 478 132 400 172 q 668 92 557 92 q 856 132 779 92 q 972 249 932 172 q 1013 432 1013 325 l 1013 1372 q 1028 1401 1013 1392 q 1074 1410 1043 1410 q 1135 1372 1135 1410 l 1135 432 q 1079 185 1135 288 q 919 28 1024 82 q 668 -26 815 -26 m 494 1517 q 436 1538 456 1517 q 417 1604 417 1560 q 436 1670 417 1649 q 494 1692 456 1692 q 552 1670 533 1692 q 571 1604 571 1649 q 553 1538 574 1560 q 494 1517 533 1517 m 838 1517 q 779 1538 799 1517 q 760 1604 760 1560 q 779 1670 760 1649 q 838 1692 799 1692 q 894 1670 875 1692 q 914 1604 914 1649 q 895 1539 915 1561 q 838 1517 875 1517 m 881 2024 q 912 2008 894 2024 q 929 1976 929 1992 q 928 1968 929 1974 q 921 1954 928 1963 l 726 1758 q 705 1740 717 1750 q 665 1731 693 1731 q 627 1740 639 1731 q 607 1758 615 1750 l 411 1954 q 403 1968 403 1963 q 403 1976 403 1974 q 420 2008 403 1992 q 451 2024 438 2024 q 468 2019 460 2024 q 486 2007 476 2014 l 665 1869 l 846 2007 q 864 2019 857 2014 q 881 2024 871 2024 z "},"Ǜ":{"ha":1331,"x_min":196,"x_max":1135,"o":"m 668 -26 q 469 4 557 -26 q 321 94 382 35 q 228 239 260 154 q 196 432 196 324 l 196 1372 q 211 1401 196 1392 q 257 1410 226 1410 q 303 1401 288 1410 q 318 1372 318 1392 l 318 432 q 359 249 318 325 q 478 132 400 172 q 668 92 557 92 q 856 132 779 92 q 972 249 932 172 q 1013 432 1013 325 l 1013 1372 q 1028 1401 1013 1392 q 1074 1410 1043 1410 q 1135 1372 1135 1410 l 1135 432 q 1079 185 1135 288 q 919 28 1024 82 q 668 -26 815 -26 m 494 1517 q 436 1538 456 1517 q 417 1604 417 1560 q 436 1670 417 1649 q 494 1692 456 1692 q 552 1670 533 1692 q 571 1604 571 1649 q 553 1538 574 1560 q 494 1517 533 1517 m 838 1517 q 779 1538 799 1517 q 760 1604 760 1560 q 779 1670 760 1649 q 838 1692 799 1692 q 894 1670 875 1692 q 914 1604 914 1649 q 895 1539 915 1561 q 838 1517 875 1517 m 732 1731 q 720 1735 726 1731 q 706 1744 714 1739 l 493 1915 q 476 1933 479 1926 q 472 1950 472 1940 q 485 1982 472 1965 q 515 2011 497 1999 q 547 2024 533 2024 q 562 2019 556 2024 q 574 2008 568 2015 l 772 1807 q 783 1793 782 1799 q 785 1782 785 1788 q 767 1749 785 1768 q 732 1731 749 1731 z "},"Ǖ":{"ha":1331,"x_min":196,"x_max":1135,"o":"m 668 -26 q 469 4 557 -26 q 321 94 382 35 q 228 239 260 154 q 196 432 196 324 l 196 1372 q 211 1401 196 1392 q 257 1410 226 1410 q 303 1401 288 1410 q 318 1372 318 1392 l 318 432 q 359 249 318 325 q 478 132 400 172 q 668 92 557 92 q 856 132 779 92 q 972 249 932 172 q 1013 432 1013 325 l 1013 1372 q 1028 1401 1013 1392 q 1074 1410 1043 1410 q 1135 1372 1135 1410 l 1135 432 q 1079 185 1135 288 q 919 28 1024 82 q 668 -26 815 -26 m 494 1517 q 436 1538 456 1517 q 417 1604 417 1560 q 436 1670 417 1649 q 494 1692 456 1692 q 552 1670 533 1692 q 571 1604 571 1649 q 553 1538 574 1560 q 494 1517 533 1517 m 838 1517 q 779 1538 799 1517 q 760 1604 760 1560 q 779 1670 760 1649 q 838 1692 799 1692 q 894 1670 875 1692 q 914 1604 914 1649 q 895 1539 915 1561 q 838 1517 875 1517 m 474 1817 q 443 1833 450 1817 q 436 1874 436 1849 q 443 1917 436 1900 q 474 1935 450 1935 l 857 1935 q 888 1917 882 1935 q 894 1874 894 1900 q 888 1833 894 1849 q 857 1817 882 1817 l 474 1817 z "},"Ụ":{"ha":1331,"x_min":196,"x_max":1135,"o":"m 668 -26 q 469 4 557 -26 q 321 94 382 35 q 228 239 260 154 q 196 432 196 324 l 196 1372 q 211 1401 196 1392 q 257 1410 226 1410 q 303 1401 288 1410 q 318 1372 318 1392 l 318 432 q 359 249 318 325 q 478 132 400 172 q 668 92 557 92 q 856 132 779 92 q 972 249 932 172 q 1013 432 1013 325 l 1013 1372 q 1028 1401 1013 1392 q 1074 1410 1043 1410 q 1135 1372 1135 1410 l 1135 432 q 1079 185 1135 288 q 919 28 1024 82 q 668 -26 815 -26 m 665 -326 q 607 -305 626 -326 q 588 -239 588 -283 q 607 -173 588 -194 q 665 -151 626 -151 q 722 -173 703 -151 q 742 -239 742 -194 q 723 -305 743 -283 q 665 -326 703 -326 z "},"Ủ":{"ha":1331,"x_min":196,"x_max":1135,"o":"m 668 -26 q 469 4 557 -26 q 321 94 382 35 q 228 239 260 154 q 196 432 196 324 l 196 1372 q 211 1401 196 1392 q 257 1410 226 1410 q 303 1401 288 1410 q 318 1372 318 1392 l 318 432 q 359 249 318 325 q 478 132 400 172 q 668 92 557 92 q 856 132 779 92 q 972 249 932 172 q 1013 432 1013 325 l 1013 1372 q 1028 1401 1013 1392 q 1074 1410 1043 1410 q 1135 1372 1135 1410 l 1135 432 q 1079 185 1135 288 q 919 28 1024 82 q 668 -26 815 -26 m 681 1800 q 790 1767 749 1800 q 832 1679 832 1735 q 816 1617 832 1644 q 761 1561 800 1590 q 736 1536 743 1547 q 732 1511 729 1525 l 733 1501 q 726 1475 738 1486 q 696 1460 714 1464 q 662 1460 678 1456 q 639 1478 646 1464 l 624 1515 q 624 1574 613 1547 q 667 1624 636 1601 q 694 1649 686 1638 q 701 1671 701 1660 q 690 1690 701 1682 q 658 1699 678 1699 q 617 1693 639 1699 q 582 1678 594 1688 q 524 1700 549 1657 q 532 1754 507 1732 q 601 1788 561 1775 q 681 1800 640 1800 z "},"Ư":{"ha":1331,"x_min":196,"x_max":1394,"o":"m 1358 1649 q 1392 1533 1389 1590 q 1365 1427 1394 1475 q 1269 1349 1336 1379 q 1092 1319 1203 1319 l 1092 1406 q 1230 1435 1188 1408 q 1274 1504 1272 1461 q 1249 1601 1275 1547 q 1248 1644 1238 1625 q 1280 1673 1258 1664 q 1324 1677 1301 1682 q 1358 1649 1347 1672 m 668 -26 q 469 4 557 -26 q 321 94 382 35 q 228 239 260 154 q 196 432 196 324 l 196 1372 q 211 1401 196 1392 q 257 1410 226 1410 q 303 1401 288 1410 q 318 1372 318 1392 l 318 432 q 359 249 318 325 q 478 132 400 172 q 668 92 557 92 q 856 132 779 92 q 972 249 932 172 q 1013 432 1013 325 l 1013 1372 q 1028 1401 1013 1392 q 1074 1410 1043 1410 q 1135 1372 1135 1410 l 1135 432 q 1079 185 1135 288 q 919 28 1024 82 q 668 -26 815 -26 z "},"Ứ":{"ha":1331,"x_min":196,"x_max":1394,"o":"m 1358 1649 q 1392 1533 1389 1590 q 1365 1427 1394 1475 q 1269 1349 1336 1379 q 1092 1319 1203 1319 l 1092 1406 q 1230 1435 1188 1408 q 1274 1504 1272 1461 q 1249 1601 1275 1547 q 1248 1644 1238 1625 q 1280 1673 1258 1664 q 1324 1677 1301 1682 q 1358 1649 1347 1672 m 668 -26 q 469 4 557 -26 q 321 94 382 35 q 228 239 260 154 q 196 432 196 324 l 196 1372 q 211 1401 196 1392 q 257 1410 226 1410 q 303 1401 288 1410 q 318 1372 318 1392 l 318 432 q 359 249 318 325 q 478 132 400 172 q 668 92 557 92 q 856 132 779 92 q 972 249 932 172 q 1013 432 1013 325 l 1013 1372 q 1028 1401 1013 1392 q 1074 1410 1043 1410 q 1135 1372 1135 1410 l 1135 432 q 1079 185 1135 288 q 919 28 1024 82 q 668 -26 815 -26 m 599 1469 q 565 1488 583 1469 q 547 1521 547 1507 q 549 1532 547 1526 q 558 1546 550 1538 l 757 1747 q 770 1758 764 1754 q 785 1763 776 1763 q 815 1750 797 1763 q 847 1721 833 1738 q 860 1689 860 1704 q 856 1672 860 1679 q 839 1654 853 1665 l 625 1483 q 610 1474 617 1478 q 599 1469 604 1469 z "},"Ự":{"ha":1331,"x_min":196,"x_max":1394,"o":"m 1358 1649 q 1392 1533 1389 1590 q 1365 1427 1394 1475 q 1269 1349 1336 1379 q 1092 1319 1203 1319 l 1092 1406 q 1230 1435 1188 1408 q 1274 1504 1272 1461 q 1249 1601 1275 1547 q 1248 1644 1238 1625 q 1280 1673 1258 1664 q 1324 1677 1301 1682 q 1358 1649 1347 1672 m 668 -26 q 469 4 557 -26 q 321 94 382 35 q 228 239 260 154 q 196 432 196 324 l 196 1372 q 211 1401 196 1392 q 257 1410 226 1410 q 303 1401 288 1410 q 318 1372 318 1392 l 318 432 q 359 249 318 325 q 478 132 400 172 q 668 92 557 92 q 856 132 779 92 q 972 249 932 172 q 1013 432 1013 325 l 1013 1372 q 1028 1401 1013 1392 q 1074 1410 1043 1410 q 1135 1372 1135 1410 l 1135 432 q 1079 185 1135 288 q 919 28 1024 82 q 668 -26 815 -26 m 665 -326 q 607 -305 626 -326 q 588 -239 588 -283 q 607 -173 588 -194 q 665 -151 626 -151 q 722 -173 703 -151 q 742 -239 742 -194 q 723 -305 743 -283 q 665 -326 703 -326 z "},"Ừ":{"ha":1331,"x_min":196,"x_max":1394,"o":"m 1358 1649 q 1392 1533 1389 1590 q 1365 1427 1394 1475 q 1269 1349 1336 1379 q 1092 1319 1203 1319 l 1092 1406 q 1230 1435 1188 1408 q 1274 1504 1272 1461 q 1249 1601 1275 1547 q 1248 1644 1238 1625 q 1280 1673 1258 1664 q 1324 1677 1301 1682 q 1358 1649 1347 1672 m 668 -26 q 469 4 557 -26 q 321 94 382 35 q 228 239 260 154 q 196 432 196 324 l 196 1372 q 211 1401 196 1392 q 257 1410 226 1410 q 303 1401 288 1410 q 318 1372 318 1392 l 318 432 q 359 249 318 325 q 478 132 400 172 q 668 92 557 92 q 856 132 779 92 q 972 249 932 172 q 1013 432 1013 325 l 1013 1372 q 1028 1401 1013 1392 q 1074 1410 1043 1410 q 1135 1372 1135 1410 l 1135 432 q 1079 185 1135 288 q 919 28 1024 82 q 668 -26 815 -26 m 732 1469 q 720 1474 726 1469 q 706 1483 714 1478 l 493 1654 q 476 1672 479 1665 q 472 1689 472 1679 q 485 1721 472 1704 q 515 1750 497 1738 q 547 1763 533 1763 q 562 1758 556 1763 q 574 1747 568 1754 l 772 1546 q 783 1532 782 1538 q 785 1521 785 1526 q 767 1488 785 1507 q 732 1469 749 1469 z "},"Ử":{"ha":1331,"x_min":196,"x_max":1394,"o":"m 1358 1649 q 1392 1533 1389 1590 q 1365 1427 1394 1475 q 1269 1349 1336 1379 q 1092 1319 1203 1319 l 1092 1406 q 1230 1435 1188 1408 q 1274 1504 1272 1461 q 1249 1601 1275 1547 q 1248 1644 1238 1625 q 1280 1673 1258 1664 q 1324 1677 1301 1682 q 1358 1649 1347 1672 m 668 -26 q 469 4 557 -26 q 321 94 382 35 q 228 239 260 154 q 196 432 196 324 l 196 1372 q 211 1401 196 1392 q 257 1410 226 1410 q 303 1401 288 1410 q 318 1372 318 1392 l 318 432 q 359 249 318 325 q 478 132 400 172 q 668 92 557 92 q 856 132 779 92 q 972 249 932 172 q 1013 432 1013 325 l 1013 1372 q 1028 1401 1013 1392 q 1074 1410 1043 1410 q 1135 1372 1135 1410 l 1135 432 q 1079 185 1135 288 q 919 28 1024 82 q 668 -26 815 -26 m 681 1800 q 790 1767 749 1800 q 832 1679 832 1735 q 816 1617 832 1644 q 761 1561 800 1590 q 736 1536 743 1547 q 732 1511 729 1525 l 733 1501 q 726 1475 738 1486 q 696 1460 714 1464 q 662 1460 678 1456 q 639 1478 646 1464 l 624 1515 q 624 1574 613 1547 q 667 1624 636 1601 q 694 1649 686 1638 q 701 1671 701 1660 q 690 1690 701 1682 q 658 1699 678 1699 q 617 1693 639 1699 q 582 1678 594 1688 q 524 1700 549 1657 q 532 1754 507 1732 q 601 1788 561 1775 q 681 1800 640 1800 z "},"Ữ":{"ha":1331,"x_min":196,"x_max":1394,"o":"m 1358 1649 q 1392 1533 1389 1590 q 1365 1427 1394 1475 q 1269 1349 1336 1379 q 1092 1319 1203 1319 l 1092 1406 q 1230 1435 1188 1408 q 1274 1504 1272 1461 q 1249 1601 1275 1547 q 1248 1644 1238 1625 q 1280 1673 1258 1664 q 1324 1677 1301 1682 q 1358 1649 1347 1672 m 668 -26 q 469 4 557 -26 q 321 94 382 35 q 228 239 260 154 q 196 432 196 324 l 196 1372 q 211 1401 196 1392 q 257 1410 226 1410 q 303 1401 288 1410 q 318 1372 318 1392 l 318 432 q 359 249 318 325 q 478 132 400 172 q 668 92 557 92 q 856 132 779 92 q 972 249 932 172 q 1013 432 1013 325 l 1013 1372 q 1028 1401 1013 1392 q 1074 1410 1043 1410 q 1135 1372 1135 1410 l 1135 432 q 1079 185 1135 288 q 919 28 1024 82 q 668 -26 815 -26 m 454 1510 q 407 1546 407 1510 q 442 1678 408 1635 q 543 1722 476 1722 q 619 1706 585 1722 q 681 1671 653 1690 q 732 1635 708 1651 q 779 1619 756 1619 q 808 1641 797 1619 q 821 1694 818 1663 q 868 1725 822 1725 q 906 1715 894 1725 q 918 1686 918 1706 q 883 1556 917 1600 q 781 1511 849 1511 q 704 1526 739 1511 q 641 1562 669 1542 q 589 1598 613 1582 q 544 1614 565 1614 q 516 1597 525 1614 q 504 1546 507 1581 q 490 1519 503 1528 q 454 1510 478 1510 z "},"Ẃ":{"ha":1838,"x_min":21,"x_max":1817,"o":"m 469 -19 q 420 -7 438 -19 q 393 36 403 6 l 26 1347 q 30 1381 21 1367 q 69 1404 39 1394 q 116 1410 97 1414 q 140 1383 135 1407 l 472 174 l 846 1360 q 871 1399 854 1388 q 917 1410 888 1410 q 965 1399 949 1410 q 990 1360 982 1388 l 1363 175 l 1697 1383 q 1723 1410 1704 1407 q 1768 1404 1742 1414 q 1808 1381 1799 1394 q 1811 1347 1817 1367 l 1440 36 q 1413 -7 1431 6 q 1363 -19 1396 -19 q 1313 -7 1329 -19 q 1286 36 1297 6 l 917 1215 l 547 36 q 520 -7 538 6 q 469 -19 503 -19 m 851 1469 q 818 1488 836 1469 q 800 1521 800 1507 q 801 1532 800 1526 q 811 1546 803 1538 l 1010 1747 q 1023 1758 1017 1754 q 1038 1763 1029 1763 q 1068 1750 1050 1763 q 1099 1721 1086 1738 q 1113 1689 1113 1704 q 1109 1672 1113 1679 q 1092 1654 1106 1665 l 878 1483 q 863 1474 869 1478 q 851 1469 857 1469 z "},"Ŵ":{"ha":1838,"x_min":21,"x_max":1817,"o":"m 469 -19 q 420 -7 438 -19 q 393 36 403 6 l 26 1347 q 30 1381 21 1367 q 69 1404 39 1394 q 116 1410 97 1414 q 140 1383 135 1407 l 472 174 l 846 1360 q 871 1399 854 1388 q 917 1410 888 1410 q 965 1399 949 1410 q 990 1360 982 1388 l 1363 175 l 1697 1383 q 1723 1410 1704 1407 q 1768 1404 1742 1414 q 1808 1381 1799 1394 q 1811 1347 1817 1367 l 1440 36 q 1413 -7 1431 6 q 1363 -19 1396 -19 q 1313 -7 1329 -19 q 1286 36 1297 6 l 917 1215 l 547 36 q 520 -7 538 6 q 469 -19 503 -19 m 704 1469 q 673 1486 690 1469 q 656 1517 656 1503 q 656 1526 656 1521 q 664 1539 656 1532 l 857 1735 q 879 1753 867 1744 q 918 1763 892 1763 q 956 1753 944 1763 q 978 1735 968 1744 l 1174 1539 q 1181 1526 1181 1532 q 1182 1517 1182 1521 q 1165 1486 1182 1503 q 1133 1469 1147 1469 q 1117 1474 1124 1469 q 1099 1488 1110 1479 l 918 1624 l 739 1488 q 721 1474 729 1479 q 704 1469 713 1469 z "},"Ẅ":{"ha":1838,"x_min":21,"x_max":1817,"o":"m 469 -19 q 420 -7 438 -19 q 393 36 403 6 l 26 1347 q 30 1381 21 1367 q 69 1404 39 1394 q 116 1410 97 1414 q 140 1383 135 1407 l 472 174 l 846 1360 q 871 1399 854 1388 q 917 1410 888 1410 q 965 1399 949 1410 q 990 1360 982 1388 l 1363 175 l 1697 1383 q 1723 1410 1704 1407 q 1768 1404 1742 1414 q 1808 1381 1799 1394 q 1811 1347 1817 1367 l 1440 36 q 1413 -7 1431 6 q 1363 -19 1396 -19 q 1313 -7 1329 -19 q 1286 36 1297 6 l 917 1215 l 547 36 q 520 -7 538 6 q 469 -19 503 -19 m 747 1517 q 689 1538 708 1517 q 669 1604 669 1560 q 689 1670 669 1649 q 747 1692 708 1692 q 805 1670 786 1692 q 824 1604 824 1649 q 806 1538 826 1560 q 747 1517 786 1517 m 1090 1517 q 1032 1538 1051 1517 q 1013 1604 1013 1560 q 1032 1670 1013 1649 q 1090 1692 1051 1692 q 1147 1670 1128 1692 q 1167 1604 1167 1649 q 1148 1539 1168 1561 q 1090 1517 1128 1517 z "},"Ẁ":{"ha":1838,"x_min":21,"x_max":1817,"o":"m 469 -19 q 420 -7 438 -19 q 393 36 403 6 l 26 1347 q 30 1381 21 1367 q 69 1404 39 1394 q 116 1410 97 1414 q 140 1383 135 1407 l 472 174 l 846 1360 q 871 1399 854 1388 q 917 1410 888 1410 q 965 1399 949 1410 q 990 1360 982 1388 l 1363 175 l 1697 1383 q 1723 1410 1704 1407 q 1768 1404 1742 1414 q 1808 1381 1799 1394 q 1811 1347 1817 1367 l 1440 36 q 1413 -7 1431 6 q 1363 -19 1396 -19 q 1313 -7 1329 -19 q 1286 36 1297 6 l 917 1215 l 547 36 q 520 -7 538 6 q 469 -19 503 -19 m 985 1469 q 973 1474 979 1469 q 958 1483 967 1478 l 746 1654 q 728 1672 732 1665 q 725 1689 725 1679 q 738 1721 725 1704 q 768 1750 750 1738 q 800 1763 786 1763 q 815 1758 808 1763 q 826 1747 821 1754 l 1025 1546 q 1036 1532 1035 1538 q 1038 1521 1038 1526 q 1019 1488 1038 1507 q 985 1469 1001 1469 z "},"Ý":{"ha":958,"x_min":4,"x_max":954,"o":"m 478 -19 q 417 19 417 -19 l 417 589 l 14 1335 q 13 1368 4 1353 q 49 1397 21 1383 q 92 1412 75 1411 q 122 1389 110 1413 l 478 721 l 838 1389 q 868 1412 851 1413 q 911 1397 885 1411 q 947 1368 939 1383 q 946 1335 954 1353 l 539 588 l 539 19 q 478 -19 539 -19 m 413 1469 q 379 1488 397 1469 q 361 1521 361 1507 q 363 1532 361 1526 q 372 1546 364 1538 l 571 1747 q 584 1758 578 1754 q 599 1763 590 1763 q 629 1750 611 1763 q 660 1721 647 1738 q 674 1689 674 1704 q 670 1672 674 1679 q 653 1654 667 1665 l 439 1483 q 424 1474 431 1478 q 413 1469 418 1469 z "},"Ŷ":{"ha":958,"x_min":4,"x_max":954,"o":"m 478 -19 q 417 19 417 -19 l 417 589 l 14 1335 q 13 1368 4 1353 q 49 1397 21 1383 q 92 1412 75 1411 q 122 1389 110 1413 l 478 721 l 838 1389 q 868 1412 851 1413 q 911 1397 885 1411 q 947 1368 939 1383 q 946 1335 954 1353 l 539 588 l 539 19 q 478 -19 539 -19 m 265 1469 q 234 1486 251 1469 q 217 1517 217 1503 q 217 1526 217 1521 q 225 1539 217 1532 l 418 1735 q 440 1753 428 1744 q 479 1763 453 1763 q 517 1753 506 1763 q 539 1735 529 1744 l 735 1539 q 742 1526 742 1532 q 743 1517 743 1521 q 726 1486 743 1503 q 694 1469 708 1469 q 678 1474 685 1469 q 660 1488 671 1479 l 479 1624 l 300 1488 q 282 1474 290 1479 q 265 1469 274 1469 z "},"Ÿ":{"ha":958,"x_min":4,"x_max":954,"o":"m 478 -19 q 417 19 417 -19 l 417 589 l 14 1335 q 13 1368 4 1353 q 49 1397 21 1383 q 92 1412 75 1411 q 122 1389 110 1413 l 478 721 l 838 1389 q 868 1412 851 1413 q 911 1397 885 1411 q 947 1368 939 1383 q 946 1335 954 1353 l 539 588 l 539 19 q 478 -19 539 -19 m 308 1517 q 250 1538 269 1517 q 231 1604 231 1560 q 250 1670 231 1649 q 308 1692 269 1692 q 366 1670 347 1692 q 385 1604 385 1649 q 367 1538 388 1560 q 308 1517 347 1517 m 651 1517 q 593 1538 613 1517 q 574 1604 574 1560 q 593 1670 574 1649 q 651 1692 613 1692 q 708 1670 689 1692 q 728 1604 728 1649 q 709 1539 729 1561 q 651 1517 689 1517 z "},"Ỳ":{"ha":958,"x_min":4,"x_max":954,"o":"m 478 -19 q 417 19 417 -19 l 417 589 l 14 1335 q 13 1368 4 1353 q 49 1397 21 1383 q 92 1412 75 1411 q 122 1389 110 1413 l 478 721 l 838 1389 q 868 1412 851 1413 q 911 1397 885 1411 q 947 1368 939 1383 q 946 1335 954 1353 l 539 588 l 539 19 q 478 -19 539 -19 m 546 1469 q 534 1474 540 1469 q 519 1483 528 1478 l 307 1654 q 290 1672 293 1665 q 286 1689 286 1679 q 299 1721 286 1704 q 329 1750 311 1738 q 361 1763 347 1763 q 376 1758 369 1763 q 388 1747 382 1754 l 586 1546 q 597 1532 596 1538 q 599 1521 599 1526 q 581 1488 599 1507 q 546 1469 563 1469 z "},"Ỵ":{"ha":958,"x_min":4,"x_max":954,"o":"m 478 -19 q 417 19 417 -19 l 417 589 l 14 1335 q 13 1368 4 1353 q 49 1397 21 1383 q 92 1412 75 1411 q 122 1389 110 1413 l 478 721 l 838 1389 q 868 1412 851 1413 q 911 1397 885 1411 q 947 1368 939 1383 q 946 1335 954 1353 l 539 588 l 539 19 q 478 -19 539 -19 m 471 -326 q 413 -305 432 -326 q 393 -239 393 -283 q 413 -173 393 -194 q 471 -151 432 -151 q 528 -173 508 -151 q 547 -239 547 -194 q 528 -305 549 -283 q 471 -326 508 -326 z "},"Ỷ":{"ha":958,"x_min":4,"x_max":954,"o":"m 478 -19 q 417 19 417 -19 l 417 589 l 14 1335 q 13 1368 4 1353 q 49 1397 21 1383 q 92 1412 75 1411 q 122 1389 110 1413 l 478 721 l 838 1389 q 868 1412 851 1413 q 911 1397 885 1411 q 947 1368 939 1383 q 946 1335 954 1353 l 539 588 l 539 19 q 478 -19 539 -19 m 494 1800 q 604 1767 563 1800 q 646 1679 646 1735 q 630 1617 646 1644 q 575 1561 614 1590 q 550 1536 557 1547 q 546 1511 543 1525 l 547 1501 q 540 1475 551 1486 q 510 1460 528 1464 q 476 1460 492 1456 q 453 1478 460 1464 l 438 1515 q 438 1574 426 1547 q 481 1624 450 1601 q 508 1649 500 1638 q 515 1671 515 1660 q 503 1690 515 1682 q 472 1699 492 1699 q 431 1693 453 1699 q 396 1678 408 1688 q 338 1700 363 1657 q 346 1754 321 1732 q 415 1788 375 1775 q 494 1800 454 1800 z "},"Ỹ":{"ha":958,"x_min":4,"x_max":954,"o":"m 478 -19 q 417 19 417 -19 l 417 589 l 14 1335 q 13 1368 4 1353 q 49 1397 21 1383 q 92 1412 75 1411 q 122 1389 110 1413 l 478 721 l 838 1389 q 868 1412 851 1413 q 911 1397 885 1411 q 947 1368 939 1383 q 946 1335 954 1353 l 539 588 l 539 19 q 478 -19 539 -19 m 268 1510 q 221 1546 221 1510 q 256 1678 222 1635 q 357 1722 290 1722 q 433 1706 399 1722 q 494 1671 467 1690 q 546 1635 522 1651 q 593 1619 569 1619 q 622 1641 611 1619 q 635 1694 632 1663 q 682 1725 636 1725 q 720 1715 708 1725 q 732 1686 732 1706 q 697 1556 731 1600 q 594 1511 663 1511 q 518 1526 553 1511 q 455 1562 483 1542 q 403 1598 426 1582 q 358 1614 379 1614 q 330 1597 339 1614 q 318 1546 321 1581 q 304 1519 317 1528 q 268 1510 292 1510 z "},"Ź":{"ha":944,"x_min":17,"x_max":925,"o":"m 68 0 q 38 13 51 0 q 21 46 25 26 q 26 81 17 65 l 740 1275 l 111 1275 q 81 1288 90 1275 q 72 1331 72 1300 q 81 1374 72 1363 q 111 1386 90 1386 l 861 1386 q 902 1358 888 1386 q 903 1306 917 1331 l 189 111 l 888 111 q 917 99 908 111 q 925 56 925 88 q 917 13 925 25 q 888 0 908 0 l 68 0 m 406 1469 q 372 1488 390 1469 q 354 1521 354 1507 q 356 1532 354 1526 q 365 1546 357 1538 l 564 1747 q 577 1758 571 1754 q 592 1763 583 1763 q 622 1750 604 1763 q 653 1721 640 1738 q 667 1689 667 1704 q 663 1672 667 1679 q 646 1654 660 1665 l 432 1483 q 417 1474 424 1478 q 406 1469 411 1469 z "},"Ž":{"ha":944,"x_min":17,"x_max":925,"o":"m 68 0 q 38 13 51 0 q 21 46 25 26 q 26 81 17 65 l 740 1275 l 111 1275 q 81 1288 90 1275 q 72 1331 72 1300 q 81 1374 72 1363 q 111 1386 90 1386 l 861 1386 q 902 1358 888 1386 q 903 1306 917 1331 l 189 111 l 888 111 q 917 99 908 111 q 925 56 925 88 q 917 13 925 25 q 888 0 908 0 l 68 0 m 688 1763 q 719 1747 701 1763 q 736 1715 736 1731 q 735 1707 736 1713 q 728 1693 735 1701 l 533 1497 q 512 1479 524 1489 q 472 1469 500 1469 q 434 1479 446 1469 q 414 1497 422 1489 l 218 1693 q 210 1707 210 1701 q 210 1715 210 1713 q 227 1747 210 1731 q 258 1763 244 1763 q 275 1758 267 1763 q 293 1746 283 1753 l 472 1608 l 653 1746 q 671 1758 664 1753 q 688 1763 678 1763 z "},"Ż":{"ha":944,"x_min":17,"x_max":925,"o":"m 68 0 q 38 13 51 0 q 21 46 25 26 q 26 81 17 65 l 740 1275 l 111 1275 q 81 1288 90 1275 q 72 1331 72 1300 q 81 1374 72 1363 q 111 1386 90 1386 l 861 1386 q 902 1358 888 1386 q 903 1306 917 1331 l 189 111 l 888 111 q 917 99 908 111 q 925 56 925 88 q 917 13 925 25 q 888 0 908 0 l 68 0 m 472 1517 q 414 1538 433 1517 q 394 1603 394 1560 q 414 1669 394 1647 q 472 1692 433 1692 q 529 1669 510 1692 q 549 1603 549 1647 q 530 1538 550 1560 q 472 1517 510 1517 z "},"á":{"ha":867,"x_min":88,"x_max":867,"o":"m 347 -24 q 212 15 271 -24 q 120 131 153 54 q 88 322 88 207 q 101 456 88 394 q 140 567 114 518 q 204 651 167 617 q 290 703 242 685 q 399 721 339 721 q 489 708 443 721 q 576 671 535 694 l 576 676 q 592 706 576 696 q 638 715 607 715 q 683 706 668 715 q 697 678 697 697 l 697 138 q 702 106 697 118 q 716 88 707 93 q 736 82 725 82 q 759 86 750 82 q 777 99 768 90 q 799 122 786 108 q 819 130 807 132 q 846 118 832 128 q 863 91 860 106 q 860 64 867 76 q 822 18 844 38 q 771 -12 799 -1 q 713 -24 743 -24 q 657 -16 681 -24 q 616 8 633 -8 q 590 47 599 24 q 578 99 582 69 q 577 115 578 106 q 576 136 576 125 q 508 42 546 76 q 430 -8 471 7 q 347 -24 389 -24 m 210 326 q 226 200 210 254 q 278 117 243 146 q 365 88 313 88 q 447 111 408 88 q 519 183 486 135 q 576 301 553 231 l 576 568 q 494 602 533 593 q 413 611 454 611 q 344 600 375 611 q 288 566 313 589 q 245 509 263 543 q 219 430 228 475 q 210 326 210 385 m 379 847 q 343 864 364 847 q 322 894 322 881 q 324 903 322 899 q 331 917 325 907 l 479 1144 q 494 1160 486 1156 q 513 1165 501 1165 q 545 1155 526 1165 q 578 1130 564 1144 q 593 1103 593 1115 q 590 1087 593 1093 q 576 1069 586 1081 l 406 865 q 379 847 389 847 z "},"ă":{"ha":867,"x_min":88,"x_max":867,"o":"m 347 -24 q 212 15 271 -24 q 120 131 153 54 q 88 322 88 207 q 101 456 88 394 q 140 567 114 518 q 204 651 167 617 q 290 703 242 685 q 399 721 339 721 q 489 708 443 721 q 576 671 535 694 l 576 676 q 592 706 576 696 q 638 715 607 715 q 683 706 668 715 q 697 678 697 697 l 697 138 q 702 106 697 118 q 716 88 707 93 q 736 82 725 82 q 759 86 750 82 q 777 99 768 90 q 799 122 786 108 q 819 130 807 132 q 846 118 832 128 q 863 91 860 106 q 860 64 867 76 q 822 18 844 38 q 771 -12 799 -1 q 713 -24 743 -24 q 657 -16 681 -24 q 616 8 633 -8 q 590 47 599 24 q 578 99 582 69 q 577 115 578 106 q 576 136 576 125 q 508 42 546 76 q 430 -8 471 7 q 347 -24 389 -24 m 210 326 q 226 200 210 254 q 278 117 243 146 q 365 88 313 88 q 447 111 408 88 q 519 183 486 135 q 576 301 553 231 l 576 568 q 494 602 533 593 q 413 611 454 611 q 344 600 375 611 q 288 566 313 589 q 245 509 263 543 q 219 430 228 475 q 210 326 210 385 m 422 858 q 248 928 313 858 q 178 1124 183 999 q 188 1152 176 1140 q 225 1164 199 1164 q 261 1153 251 1164 q 275 1124 271 1142 q 323 1021 288 1061 q 422 981 358 981 q 522 1021 488 981 q 569 1124 557 1061 q 583 1153 574 1143 q 618 1164 592 1164 q 657 1152 644 1164 q 667 1124 669 1140 q 632 985 664 1044 q 546 892 600 925 q 422 858 492 858 z "},"ǎ":{"ha":867,"x_min":88,"x_max":867,"o":"m 347 -24 q 212 15 271 -24 q 120 131 153 54 q 88 322 88 207 q 101 456 88 394 q 140 567 114 518 q 204 651 167 617 q 290 703 242 685 q 399 721 339 721 q 489 708 443 721 q 576 671 535 694 l 576 676 q 592 706 576 696 q 638 715 607 715 q 683 706 668 715 q 697 678 697 697 l 697 138 q 702 106 697 118 q 716 88 707 93 q 736 82 725 82 q 759 86 750 82 q 777 99 768 90 q 799 122 786 108 q 819 130 807 132 q 846 118 832 128 q 863 91 860 106 q 860 64 867 76 q 822 18 844 38 q 771 -12 799 -1 q 713 -24 743 -24 q 657 -16 681 -24 q 616 8 633 -8 q 590 47 599 24 q 578 99 582 69 q 577 115 578 106 q 576 136 576 125 q 508 42 546 76 q 430 -8 471 7 q 347 -24 389 -24 m 210 326 q 226 200 210 254 q 278 117 243 146 q 365 88 313 88 q 447 111 408 88 q 519 183 486 135 q 576 301 553 231 l 576 568 q 494 602 533 593 q 413 611 454 611 q 344 600 375 611 q 288 566 313 589 q 245 509 263 543 q 219 430 228 475 q 210 326 210 385 m 621 1174 q 651 1158 633 1174 q 669 1126 669 1142 q 668 1119 669 1124 q 660 1104 667 1114 l 483 883 q 463 865 475 875 q 422 856 450 856 q 383 865 396 856 q 364 883 371 875 l 185 1104 q 178 1119 179 1114 q 176 1126 176 1124 q 194 1158 176 1142 q 225 1174 211 1174 q 242 1169 233 1174 q 260 1157 250 1164 l 422 994 l 586 1157 q 603 1169 594 1164 q 621 1174 611 1174 z "},"â":{"ha":867,"x_min":88,"x_max":867,"o":"m 347 -24 q 212 15 271 -24 q 120 131 153 54 q 88 322 88 207 q 101 456 88 394 q 140 567 114 518 q 204 651 167 617 q 290 703 242 685 q 399 721 339 721 q 489 708 443 721 q 576 671 535 694 l 576 676 q 592 706 576 696 q 638 715 607 715 q 683 706 668 715 q 697 678 697 697 l 697 138 q 702 106 697 118 q 716 88 707 93 q 736 82 725 82 q 759 86 750 82 q 777 99 768 90 q 799 122 786 108 q 819 130 807 132 q 846 118 832 128 q 863 91 860 106 q 860 64 867 76 q 822 18 844 38 q 771 -12 799 -1 q 713 -24 743 -24 q 657 -16 681 -24 q 616 8 633 -8 q 590 47 599 24 q 578 99 582 69 q 577 115 578 106 q 576 136 576 125 q 508 42 546 76 q 430 -8 471 7 q 347 -24 389 -24 m 210 326 q 226 200 210 254 q 278 117 243 146 q 365 88 313 88 q 447 111 408 88 q 519 183 486 135 q 576 301 553 231 l 576 568 q 494 602 533 593 q 413 611 454 611 q 344 600 375 611 q 288 566 313 589 q 245 509 263 543 q 219 430 228 475 q 210 326 210 385 m 225 847 q 194 864 211 847 q 176 894 176 881 q 178 903 176 899 q 185 917 179 907 l 361 1138 q 383 1156 369 1147 q 422 1165 396 1165 q 461 1156 449 1165 q 482 1138 474 1147 l 660 917 q 668 903 667 907 q 669 894 669 899 q 651 864 669 881 q 621 847 633 847 q 603 852 611 847 q 586 865 594 857 l 422 1026 l 260 865 q 242 852 250 857 q 225 847 233 847 z "},"ä":{"ha":867,"x_min":88,"x_max":867,"o":"m 347 -24 q 212 15 271 -24 q 120 131 153 54 q 88 322 88 207 q 101 456 88 394 q 140 567 114 518 q 204 651 167 617 q 290 703 242 685 q 399 721 339 721 q 489 708 443 721 q 576 671 535 694 l 576 676 q 592 706 576 696 q 638 715 607 715 q 683 706 668 715 q 697 678 697 697 l 697 138 q 702 106 697 118 q 716 88 707 93 q 736 82 725 82 q 759 86 750 82 q 777 99 768 90 q 799 122 786 108 q 819 130 807 132 q 846 118 832 128 q 863 91 860 106 q 860 64 867 76 q 822 18 844 38 q 771 -12 799 -1 q 713 -24 743 -24 q 657 -16 681 -24 q 616 8 633 -8 q 590 47 599 24 q 578 99 582 69 q 577 115 578 106 q 576 136 576 125 q 508 42 546 76 q 430 -8 471 7 q 347 -24 389 -24 m 210 326 q 226 200 210 254 q 278 117 243 146 q 365 88 313 88 q 447 111 408 88 q 519 183 486 135 q 576 301 553 231 l 576 568 q 494 602 533 593 q 413 611 454 611 q 344 600 375 611 q 288 566 313 589 q 245 509 263 543 q 219 430 228 475 q 210 326 210 385 m 263 929 q 204 951 224 929 q 185 1015 185 972 q 204 1082 185 1060 q 263 1104 224 1104 q 320 1082 301 1104 q 339 1015 339 1060 q 322 951 342 972 q 263 929 301 929 m 583 929 q 525 951 544 929 q 506 1015 506 972 q 525 1082 506 1060 q 583 1104 544 1104 q 640 1082 621 1104 q 660 1015 660 1060 q 641 951 661 972 q 583 929 621 929 z "},"ǽ":{"ha":1240,"x_min":88,"x_max":1201,"o":"m 88 297 q 103 428 88 365 q 151 544 119 490 q 228 637 182 597 q 337 699 275 676 q 474 721 399 721 q 592 711 539 721 q 696 685 646 701 q 799 647 746 668 q 742 490 763 569 q 721 331 721 411 q 744 201 721 257 q 813 115 768 146 q 917 85 857 85 q 991 97 960 85 q 1048 133 1022 110 q 1101 188 1074 157 q 1138 208 1119 208 q 1175 192 1156 207 q 1198 160 1194 176 q 1189 125 1201 143 q 1106 38 1150 71 q 1013 -11 1061 4 q 910 -26 964 -26 q 746 17 815 -26 q 639 140 676 61 q 601 318 601 218 q 612 447 601 389 q 638 554 622 506 q 671 640 654 603 l 715 546 q 596 592 651 574 q 469 610 540 610 q 361 587 410 610 q 279 522 313 564 q 228 425 246 481 q 210 303 210 369 q 224 184 210 232 q 268 112 239 136 q 338 88 297 88 q 413 110 376 88 q 485 185 450 133 q 558 326 521 238 q 636 546 596 415 l 726 531 q 638 267 682 374 q 547 97 594 161 q 445 4 499 32 q 329 -24 392 -24 q 152 60 217 -24 q 88 297 88 144 m 1174 538 q 1149 435 1174 481 q 1080 358 1125 390 q 972 301 1035 325 q 834 265 910 278 q 674 249 758 253 l 674 347 q 785 359 731 350 q 888 383 840 368 q 972 419 936 397 q 1029 467 1008 440 q 1050 528 1050 494 q 1019 591 1050 572 q 942 610 989 610 q 830 593 883 610 q 732 540 776 576 l 703 649 q 817 702 758 683 q 953 721 876 721 q 1111 676 1049 721 q 1174 538 1174 631 m 656 847 q 619 864 640 847 q 599 894 599 881 q 600 903 599 899 q 607 917 601 907 l 756 1144 q 770 1160 763 1156 q 789 1165 778 1165 q 822 1155 803 1165 q 855 1130 840 1144 q 869 1103 869 1115 q 866 1087 869 1093 q 853 1069 863 1081 l 682 865 q 656 847 665 847 z "},"à":{"ha":867,"x_min":88,"x_max":867,"o":"m 347 -24 q 212 15 271 -24 q 120 131 153 54 q 88 322 88 207 q 101 456 88 394 q 140 567 114 518 q 204 651 167 617 q 290 703 242 685 q 399 721 339 721 q 489 708 443 721 q 576 671 535 694 l 576 676 q 592 706 576 696 q 638 715 607 715 q 683 706 668 715 q 697 678 697 697 l 697 138 q 702 106 697 118 q 716 88 707 93 q 736 82 725 82 q 759 86 750 82 q 777 99 768 90 q 799 122 786 108 q 819 130 807 132 q 846 118 832 128 q 863 91 860 106 q 860 64 867 76 q 822 18 844 38 q 771 -12 799 -1 q 713 -24 743 -24 q 657 -16 681 -24 q 616 8 633 -8 q 590 47 599 24 q 578 99 582 69 q 577 115 578 106 q 576 136 576 125 q 508 42 546 76 q 430 -8 471 7 q 347 -24 389 -24 m 210 326 q 226 200 210 254 q 278 117 243 146 q 365 88 313 88 q 447 111 408 88 q 519 183 486 135 q 576 301 553 231 l 576 568 q 494 602 533 593 q 413 611 454 611 q 344 600 375 611 q 288 566 313 589 q 245 509 263 543 q 219 430 228 475 q 210 326 210 385 m 464 847 q 452 851 458 847 q 438 865 446 856 l 267 1069 q 253 1087 257 1081 q 250 1103 250 1093 q 265 1130 250 1115 q 298 1155 279 1144 q 331 1165 317 1165 q 364 1144 350 1165 l 513 917 q 520 903 519 907 q 521 894 521 899 q 500 864 521 881 q 464 847 479 847 z "},"ā":{"ha":867,"x_min":88,"x_max":867,"o":"m 347 -24 q 212 15 271 -24 q 120 131 153 54 q 88 322 88 207 q 101 456 88 394 q 140 567 114 518 q 204 651 167 617 q 290 703 242 685 q 399 721 339 721 q 489 708 443 721 q 576 671 535 694 l 576 676 q 592 706 576 696 q 638 715 607 715 q 683 706 668 715 q 697 678 697 697 l 697 138 q 702 106 697 118 q 716 88 707 93 q 736 82 725 82 q 759 86 750 82 q 777 99 768 90 q 799 122 786 108 q 819 130 807 132 q 846 118 832 128 q 863 91 860 106 q 860 64 867 76 q 822 18 844 38 q 771 -12 799 -1 q 713 -24 743 -24 q 657 -16 681 -24 q 616 8 633 -8 q 590 47 599 24 q 578 99 582 69 q 577 115 578 106 q 576 136 576 125 q 508 42 546 76 q 430 -8 471 7 q 347 -24 389 -24 m 210 326 q 226 200 210 254 q 278 117 243 146 q 365 88 313 88 q 447 111 408 88 q 519 183 486 135 q 576 301 553 231 l 576 568 q 494 602 533 593 q 413 611 454 611 q 344 600 375 611 q 288 566 313 589 q 245 509 263 543 q 219 430 228 475 q 210 326 210 385 m 236 953 q 206 969 213 953 q 199 1011 199 986 q 206 1054 199 1038 q 236 1071 213 1071 l 608 1071 q 640 1054 633 1071 q 646 1011 646 1038 q 640 969 646 986 q 608 953 633 953 l 236 953 z "},"ą":{"ha":867,"x_min":88,"x_max":867,"o":"m 347 -24 q 212 15 271 -24 q 120 131 153 54 q 88 322 88 207 q 101 456 88 394 q 140 567 114 518 q 204 651 167 617 q 290 703 242 685 q 399 721 339 721 q 489 708 443 721 q 576 671 535 694 l 576 676 q 592 706 576 696 q 638 715 607 715 q 683 706 668 715 q 697 678 697 697 l 697 138 q 702 106 697 118 q 716 88 707 93 q 736 82 725 82 q 759 86 750 82 q 777 99 768 90 q 799 122 786 108 q 819 130 807 132 q 846 118 832 128 q 863 91 860 106 q 860 64 867 76 q 822 18 844 38 q 771 -12 799 -1 q 713 -24 743 -24 q 657 -16 681 -24 q 616 8 633 -8 q 590 47 599 24 q 578 99 582 69 q 577 115 578 106 q 576 136 576 125 q 508 42 546 76 q 430 -8 471 7 q 347 -24 389 -24 m 210 326 q 226 200 210 254 q 278 117 243 146 q 365 88 313 88 q 447 111 408 88 q 519 183 486 135 q 576 301 553 231 l 576 568 q 494 602 533 593 q 413 611 454 611 q 344 600 375 611 q 288 566 313 589 q 245 509 263 543 q 219 430 228 475 q 210 326 210 385 m 675 -353 q 583 -322 621 -353 q 546 -235 546 -292 q 558 -167 546 -199 q 594 -103 571 -135 q 653 -40 618 -72 q 736 31 689 -7 l 822 32 l 822 19 q 761 -35 790 -7 q 708 -90 732 -62 q 670 -143 685 -117 q 656 -196 656 -169 q 668 -235 656 -222 q 701 -247 681 -247 q 741 -236 724 -247 q 783 -204 758 -225 q 806 -195 793 -197 q 835 -206 819 -193 q 854 -236 850 -218 q 851 -267 858 -254 q 803 -313 833 -293 q 738 -343 772 -333 q 675 -353 704 -353 z "},"å":{"ha":867,"x_min":88,"x_max":867,"o":"m 347 -24 q 212 15 271 -24 q 120 131 153 54 q 88 322 88 207 q 101 456 88 394 q 140 567 114 518 q 204 651 167 617 q 290 703 242 685 q 399 721 339 721 q 489 708 443 721 q 576 671 535 694 l 576 676 q 592 706 576 696 q 638 715 607 715 q 683 706 668 715 q 697 678 697 697 l 697 138 q 702 106 697 118 q 716 88 707 93 q 736 82 725 82 q 759 86 750 82 q 777 99 768 90 q 799 122 786 108 q 819 130 807 132 q 846 118 832 128 q 863 91 860 106 q 860 64 867 76 q 822 18 844 38 q 771 -12 799 -1 q 713 -24 743 -24 q 657 -16 681 -24 q 616 8 633 -8 q 590 47 599 24 q 578 99 582 69 q 577 115 578 106 q 576 136 576 125 q 508 42 546 76 q 430 -8 471 7 q 347 -24 389 -24 m 210 326 q 226 200 210 254 q 278 117 243 146 q 365 88 313 88 q 447 111 408 88 q 519 183 486 135 q 576 301 553 231 l 576 568 q 494 602 533 593 q 413 611 454 611 q 344 600 375 611 q 288 566 313 589 q 245 509 263 543 q 219 430 228 475 q 210 326 210 385 m 422 835 q 285 885 338 835 q 233 1015 233 935 q 257 1110 233 1069 q 324 1172 281 1150 q 422 1194 367 1194 q 559 1146 507 1194 q 611 1015 611 1097 q 588 921 611 961 q 522 858 564 881 q 422 835 479 835 m 422 918 q 472 931 451 918 q 502 965 492 943 q 513 1015 513 986 q 489 1085 513 1060 q 422 1111 465 1111 q 374 1099 394 1111 q 342 1066 353 1088 q 332 1015 332 1044 q 356 945 332 972 q 422 918 379 918 z "},"ã":{"ha":867,"x_min":88,"x_max":867,"o":"m 347 -24 q 212 15 271 -24 q 120 131 153 54 q 88 322 88 207 q 101 456 88 394 q 140 567 114 518 q 204 651 167 617 q 290 703 242 685 q 399 721 339 721 q 489 708 443 721 q 576 671 535 694 l 576 676 q 592 706 576 696 q 638 715 607 715 q 683 706 668 715 q 697 678 697 697 l 697 138 q 702 106 697 118 q 716 88 707 93 q 736 82 725 82 q 759 86 750 82 q 777 99 768 90 q 799 122 786 108 q 819 130 807 132 q 846 118 832 128 q 863 91 860 106 q 860 64 867 76 q 822 18 844 38 q 771 -12 799 -1 q 713 -24 743 -24 q 657 -16 681 -24 q 616 8 633 -8 q 590 47 599 24 q 578 99 582 69 q 577 115 578 106 q 576 136 576 125 q 508 42 546 76 q 430 -8 471 7 q 347 -24 389 -24 m 210 326 q 226 200 210 254 q 278 117 243 146 q 365 88 313 88 q 447 111 408 88 q 519 183 486 135 q 576 301 553 231 l 576 568 q 494 602 533 593 q 413 611 454 611 q 344 600 375 611 q 288 566 313 589 q 245 509 263 543 q 219 430 228 475 q 210 326 210 385 m 213 889 q 165 925 165 889 q 206 1069 168 1026 q 307 1113 243 1113 q 381 1097 349 1113 q 439 1062 413 1082 q 489 1026 465 1042 q 535 1010 513 1010 q 563 1029 551 1010 q 575 1085 574 1049 q 622 1115 579 1115 q 661 1106 650 1115 q 672 1076 672 1096 q 638 941 671 992 q 529 890 606 890 q 456 906 489 890 q 395 943 422 922 q 346 980 368 964 q 303 996 324 996 q 276 978 286 996 q 263 925 265 961 q 249 898 261 907 q 213 889 236 889 z "},"ắ":{"ha":867,"x_min":88,"x_max":867,"o":"m 347 -24 q 212 15 271 -24 q 120 131 153 54 q 88 322 88 207 q 101 456 88 394 q 140 567 114 518 q 204 651 167 617 q 290 703 242 685 q 399 721 339 721 q 489 708 443 721 q 576 671 535 694 l 576 676 q 592 706 576 696 q 638 715 607 715 q 683 706 668 715 q 697 678 697 697 l 697 138 q 702 106 697 118 q 716 88 707 93 q 736 82 725 82 q 759 86 750 82 q 777 99 768 90 q 799 122 786 108 q 819 130 807 132 q 846 118 832 128 q 863 91 860 106 q 860 64 867 76 q 822 18 844 38 q 771 -12 799 -1 q 713 -24 743 -24 q 657 -16 681 -24 q 616 8 633 -8 q 590 47 599 24 q 578 99 582 69 q 577 115 578 106 q 576 136 576 125 q 508 42 546 76 q 430 -8 471 7 q 347 -24 389 -24 m 210 326 q 226 200 210 254 q 278 117 243 146 q 365 88 313 88 q 447 111 408 88 q 519 183 486 135 q 576 301 553 231 l 576 568 q 494 602 533 593 q 413 611 454 611 q 344 600 375 611 q 288 566 313 589 q 245 509 263 543 q 219 430 228 475 q 210 326 210 385 m 422 858 q 248 928 313 858 q 178 1124 183 999 q 188 1152 176 1140 q 225 1164 199 1164 q 261 1153 251 1164 q 275 1124 271 1142 q 323 1021 288 1061 q 422 981 358 981 q 522 1021 488 981 q 569 1124 557 1061 q 583 1153 574 1143 q 618 1164 592 1164 q 657 1152 644 1164 q 667 1124 669 1140 q 632 985 664 1044 q 546 892 600 925 q 422 858 492 858 m 383 1161 q 347 1178 368 1161 q 326 1208 326 1194 q 328 1217 326 1213 q 335 1231 329 1221 l 483 1458 q 498 1474 490 1469 q 517 1479 506 1479 q 549 1469 531 1479 q 583 1444 568 1458 q 597 1417 597 1429 q 594 1401 597 1407 q 581 1383 590 1394 l 410 1179 q 383 1161 393 1161 z "},"ặ":{"ha":867,"x_min":88,"x_max":867,"o":"m 347 -24 q 212 15 271 -24 q 120 131 153 54 q 88 322 88 207 q 101 456 88 394 q 140 567 114 518 q 204 651 167 617 q 290 703 242 685 q 399 721 339 721 q 489 708 443 721 q 576 671 535 694 l 576 676 q 592 706 576 696 q 638 715 607 715 q 683 706 668 715 q 697 678 697 697 l 697 138 q 702 106 697 118 q 716 88 707 93 q 736 82 725 82 q 759 86 750 82 q 777 99 768 90 q 799 122 786 108 q 819 130 807 132 q 846 118 832 128 q 863 91 860 106 q 860 64 867 76 q 822 18 844 38 q 771 -12 799 -1 q 713 -24 743 -24 q 657 -16 681 -24 q 616 8 633 -8 q 590 47 599 24 q 578 99 582 69 q 577 115 578 106 q 576 136 576 125 q 508 42 546 76 q 430 -8 471 7 q 347 -24 389 -24 m 210 326 q 226 200 210 254 q 278 117 243 146 q 365 88 313 88 q 447 111 408 88 q 519 183 486 135 q 576 301 553 231 l 576 568 q 494 602 533 593 q 413 611 454 611 q 344 600 375 611 q 288 566 313 589 q 245 509 263 543 q 219 430 228 475 q 210 326 210 385 m 389 -326 q 331 -305 350 -326 q 311 -239 311 -283 q 331 -173 311 -194 q 389 -151 350 -151 q 446 -173 426 -151 q 465 -239 465 -194 q 447 -305 467 -283 q 389 -326 426 -326 m 422 858 q 248 928 313 858 q 178 1124 183 999 q 188 1152 176 1140 q 225 1164 199 1164 q 261 1153 251 1164 q 275 1124 271 1142 q 323 1021 288 1061 q 422 981 358 981 q 522 1021 488 981 q 569 1124 557 1061 q 583 1153 574 1143 q 618 1164 592 1164 q 657 1152 644 1164 q 667 1124 669 1140 q 632 985 664 1044 q 546 892 600 925 q 422 858 492 858 z "},"ằ":{"ha":867,"x_min":88,"x_max":867,"o":"m 347 -24 q 212 15 271 -24 q 120 131 153 54 q 88 322 88 207 q 101 456 88 394 q 140 567 114 518 q 204 651 167 617 q 290 703 242 685 q 399 721 339 721 q 489 708 443 721 q 576 671 535 694 l 576 676 q 592 706 576 696 q 638 715 607 715 q 683 706 668 715 q 697 678 697 697 l 697 138 q 702 106 697 118 q 716 88 707 93 q 736 82 725 82 q 759 86 750 82 q 777 99 768 90 q 799 122 786 108 q 819 130 807 132 q 846 118 832 128 q 863 91 860 106 q 860 64 867 76 q 822 18 844 38 q 771 -12 799 -1 q 713 -24 743 -24 q 657 -16 681 -24 q 616 8 633 -8 q 590 47 599 24 q 578 99 582 69 q 577 115 578 106 q 576 136 576 125 q 508 42 546 76 q 430 -8 471 7 q 347 -24 389 -24 m 210 326 q 226 200 210 254 q 278 117 243 146 q 365 88 313 88 q 447 111 408 88 q 519 183 486 135 q 576 301 553 231 l 576 568 q 494 602 533 593 q 413 611 454 611 q 344 600 375 611 q 288 566 313 589 q 245 509 263 543 q 219 430 228 475 q 210 326 210 385 m 422 858 q 248 928 313 858 q 178 1124 183 999 q 188 1152 176 1140 q 225 1164 199 1164 q 261 1153 251 1164 q 275 1124 271 1142 q 323 1021 288 1061 q 422 981 358 981 q 522 1021 488 981 q 569 1124 557 1061 q 583 1153 574 1143 q 618 1164 592 1164 q 657 1152 644 1164 q 667 1124 669 1140 q 632 985 664 1044 q 546 892 600 925 q 422 858 492 858 m 464 1160 q 452 1164 458 1160 q 438 1178 446 1168 l 267 1382 q 253 1399 257 1393 q 250 1415 250 1406 q 265 1442 250 1428 q 298 1467 279 1457 q 331 1478 317 1478 q 364 1457 350 1478 l 513 1229 q 520 1215 519 1219 q 521 1207 521 1211 q 500 1176 521 1193 q 464 1160 479 1160 z "}}}
